<svg width="315" height="116" viewBox="0 0 315 116" fill="none" xmlns="http://www.w3.org/2000/svg">
<rect width="304" height="107" transform="translate(6 5)" fill="#00631C"/>
<path d="M7.6 40C7.6 43.2211 8 46.1168 8 49.2284C8 52.5487 7.2 55.2906 7.2 58.5278C7.2 65.0231 7.2 71.5185 7.2 78.0139C7.2 79.0992 6.46444 79.2722 6.4 80.25C6.31767 81.4992 6.4 82.826 6.4 84.0833C6.4 86.4792 6 88.7892 6 91.1111C6 97.0741 6 103.037 6 109" stroke="#00631C" stroke-width="10" stroke-linecap="square" stroke-dasharray="20 20"/>
<path d="M8.6 10C8.6 11.027 9 11.9503 9 12.9424C9 14.001 8.2 14.8753 8.2 15.9074C8.2 17.9784 8.2 20.0494 8.2 22.1204C8.2 22.4664 7.46444 22.5216 7.4 22.8333C7.31767 23.2316 7.4 23.6547 7.4 24.0556C7.4 24.8195 7 25.556 7 26.2963C7 28.1975 7 30.0988 7 32" stroke="#00631C" stroke-width="10" stroke-linecap="square" stroke-dasharray="20 20"/>
<path d="M307.6 75C307.6 71.7789 308 68.8832 308 65.7716C308 62.4513 307.2 59.7094 307.2 56.4722C307.2 49.9769 307.2 43.4815 307.2 36.9861C307.2 35.9008 306.464 35.7278 306.4 34.75C306.318 33.5008 306.4 32.174 306.4 30.9167C306.4 28.5208 306 26.2108 306 23.8889C306 17.9259 306 11.963 306 6" stroke="#00631C" stroke-width="10" stroke-linecap="square" stroke-dasharray="20 20"/>
<path d="M308.6 105C308.6 103.973 309 103.05 309 102.058C309 100.999 308.2 100.125 308.2 99.0926C308.2 97.0216 308.2 94.9506 308.2 92.8796C308.2 92.5336 307.464 92.4784 307.4 92.1667C307.318 91.7684 307.4 91.3453 307.4 90.9444C307.4 90.1805 307 89.444 307 88.7037C307 86.8025 307 84.9012 307 83" stroke="#00631C" stroke-width="10" stroke-linecap="square" stroke-dasharray="20 20"/>
<path d="M36 9.6C34.973 9.6 34.0497 10 33.0576 10C31.999 10 31.1247 9.2 30.0926 9.2C28.0216 9.2 25.9506 9.2 23.8796 9.2C23.5336 9.2 23.4784 8.46444 23.1667 8.4C22.7684 8.31767 22.3453 8.4 21.9444 8.4C21.1805 8.4 20.444 8 19.7037 8C17.8025 8 15.9012 8 14 8" stroke="#00631C" stroke-width="10" stroke-linecap="square" stroke-dasharray="20 20"/>
<path d="M83 110.4C79.7323 110.4 76.7946 111 73.6379 111C70.2694 111 67.4878 109.8 64.2037 109.8C57.6142 109.8 51.0247 109.8 44.4352 109.8C43.3342 109.8 43.1586 108.697 42.1667 108.6C40.8993 108.477 39.5533 108.6 38.2778 108.6C35.8472 108.6 33.5037 108 31.1481 108C25.0988 108 19.0494 108 13 108" stroke="#00631C" stroke-width="10" stroke-linecap="square" stroke-dasharray="20 20"/>
<path d="M92 109.4C94.4741 109.4 96.6984 110 99.0885 110C101.639 110 103.745 108.8 106.231 108.8C111.221 108.8 116.21 108.8 121.199 108.8C122.033 108.8 122.166 107.697 122.917 107.6C123.876 107.477 124.895 107.6 125.861 107.6C127.701 107.6 129.476 107 131.259 107C135.84 107 140.42 107 145 107" stroke="#00631C" stroke-width="8" stroke-linecap="square" stroke-dasharray="20 20"/>
<path d="M223 110.4C219.732 110.4 216.795 111 213.638 111C210.269 111 207.488 109.8 204.204 109.8C197.614 109.8 191.025 109.8 184.435 109.8C183.334 109.8 183.159 108.697 182.167 108.6C180.899 108.477 179.553 108.6 178.278 108.6C175.847 108.6 173.504 108 171.148 108C165.099 108 159.049 108 153 108" stroke="#00631C" stroke-width="10" stroke-linecap="square" stroke-dasharray="20 20"/>
<path d="M232 109.4C234.474 109.4 236.698 110 239.088 110C241.639 110 243.745 108.8 246.231 108.8C251.221 108.8 256.21 108.8 261.199 108.8C262.033 108.8 262.166 107.697 262.917 107.6C263.876 107.477 264.895 107.6 265.861 107.6C267.701 107.6 269.476 107 271.259 107C275.84 107 280.42 107 285 107" stroke="#00631C" stroke-width="8" stroke-linecap="square" stroke-dasharray="20 20"/>
<path d="M257 111.4C259.474 111.4 261.698 112 264.088 112C266.639 112 268.745 110.8 271.231 110.8C276.221 110.8 281.21 110.8 286.199 110.8C287.033 110.8 287.166 109.697 287.917 109.6C288.876 109.477 289.895 109.6 290.861 109.6C292.701 109.6 294.476 109 296.259 109C300.84 109 305.42 109 310 109" stroke="#00631C" stroke-width="8" stroke-linecap="square" stroke-dasharray="20 20"/>
<path d="M111 9.6C107.872 9.6 105.06 10 102.039 10C98.815 10 96.1526 9.2 93.0093 9.2C86.7022 9.2 80.3951 9.2 74.088 9.2C73.0342 9.2 72.8661 8.46444 71.9167 8.4C70.7036 8.31767 69.4153 8.4 68.1944 8.4C65.868 8.4 63.625 8 61.3704 8C55.5802 8 49.7901 8 44 8" stroke="#00631C" stroke-width="10" stroke-linecap="square" stroke-dasharray="20 20"/>
<path d="M120 8.6C122.427 8.6 124.61 9 126.955 9C129.457 9 131.523 8.2 133.963 8.2C138.858 8.2 143.753 8.2 148.648 8.2C149.466 8.2 149.596 7.46444 150.333 7.4C151.275 7.31767 152.275 7.4 153.222 7.4C155.028 7.4 156.769 7 158.519 7C163.012 7 167.506 7 172 7" stroke="#00631C" stroke-width="8" stroke-linecap="square" stroke-dasharray="20 20"/>
<path d="M241 7.6C237.872 7.6 235.06 8 232.039 8C228.815 8 226.153 7.2 223.009 7.2C216.702 7.2 210.395 7.2 204.088 7.2C203.034 7.2 202.866 6.46444 201.917 6.4C200.704 6.31767 199.415 6.4 198.194 6.4C195.868 6.4 193.625 6 191.37 6C185.58 6 179.79 6 174 6" stroke="#00631C" stroke-width="10" stroke-linecap="square" stroke-dasharray="20 20"/>
<path d="M250 6.6C252.427 6.6 254.61 7 256.955 7C259.457 7 261.523 6.2 263.963 6.2C268.858 6.2 273.753 6.2 278.648 6.2C279.466 6.2 279.596 5.46444 280.333 5.4C281.275 5.31767 282.275 5.4 283.222 5.4C285.028 5.4 286.769 5 288.519 5C293.012 5 297.506 5 302 5" stroke="#00631C" stroke-width="8" stroke-linecap="square" stroke-dasharray="20 20"/>
<path d="M94.6441 69.12C95.3907 63.1933 96.0441 60.1833 96.6041 60.09L95.6941 57.78L93.5941 57.5L92.4041 57.99C92.3574 57.6633 91.6574 57.5 90.3041 57.5L88.3441 57.57L87.9241 57.29V56.73C87.9241 56.1233 88.4141 55.7033 89.3941 55.47L96.1841 55.68L100.314 32.37L101.854 32.3C103.487 32.3 104.327 32.6033 104.374 33.21V34.05L104.094 34.47L104.514 34.89V35.24C104.094 39.7667 103.627 42.3567 103.114 43.01L103.674 43.43C103.674 43.71 103.464 46.1133 103.044 50.64C102.811 50.4533 102.531 50.36 102.204 50.36L102.274 51.2L102.834 52.32H102.414C102.694 52.5067 102.834 52.7633 102.834 53.09C102.414 54.49 101.947 55.2133 101.434 55.26C101.714 55.4467 101.854 55.7033 101.854 56.03C101.667 56.2633 101.574 56.5433 101.574 56.87L101.994 57.15L100.384 66.18L97.0241 68.91L94.6441 69.12ZM111.304 74.79C108.924 74.51 107.734 74.1367 107.734 73.67V72.83C108.527 68.2567 109.717 63.9867 111.304 60.02L111.024 57.99C112.331 47.63 112.984 40 112.984 35.1L114.174 33.98H115.294C117.347 33.98 118.444 34.3533 118.584 35.1V36.36C118.584 37.1533 118.047 37.55 116.974 37.55V38.81L115.714 41.96H116.554L116.134 42.38C116.134 42.7067 116.274 42.9867 116.554 43.22V43.5L115.714 45.18L116.134 45.53V46.37L115.714 46.79L116.554 51.62C115.994 51.62 115.714 52.67 115.714 54.77H115.294L115.714 55.19V57.15L115.014 58.41L115.294 60.02L113.334 64.01V66.81C112.774 69.9833 112.237 71.57 111.724 71.57L112.144 71.99V73.67L111.304 74.79ZM83.7241 72.83C83.3507 72.83 83.0707 72.69 82.8841 72.41L82.5341 72.83H82.1141C80.5274 72.55 79.7341 72.13 79.7341 71.57L80.5741 70.8V70.38H79.7341C79.7341 69.82 80.3874 69.54 81.6941 69.54L82.1141 69.26V68.84C79.9674 68.56 78.8941 68.14 78.8941 67.58L80.1541 67.16L81.6941 68C81.9741 67.2067 82.1141 66.67 82.1141 66.39H81.6941V67.16H81.2741C79.6874 66.9267 78.8941 66.53 78.8941 65.97V65.55L79.7341 64.43V64.01C78.8941 64.01 78.4741 63.73 78.4741 63.17V62.75L79.3141 61.56V60.72H78.4741C78.4741 60.5333 78.6141 59.88 78.8941 58.76L78.4741 57.57C79.1741 57.57 79.5941 56.4967 79.7341 54.35C79.5007 54.63 79.2207 54.77 78.8941 54.77C78.8941 53.6967 78.4974 53.16 77.7041 53.16V52.32H78.1241C77.8441 48.3533 77.7041 45.4133 77.7041 43.5C77.2841 42.1933 76.3507 41.54 74.9041 41.54V40.77L73.2941 41.12L72.0341 40.77L70.9141 41.12L70.0741 40.35L65.3141 41.12L64.8941 40.77C63.0274 41.0033 61.6974 41.12 60.9041 41.12L60.0641 40.35V39.51L69.3041 38.39L79.3141 40.77C80.2007 41.2833 80.9941 44.0833 81.6941 49.17L82.1141 49.59L81.6941 51.9C82.7674 51.9 83.3041 53.37 83.3041 56.31H82.8841L82.5341 56.03H82.1141V57.57C82.6274 57.57 82.8841 58.2467 82.8841 59.6L83.7241 60.72L83.3041 61.14C82.5107 60.86 81.9741 60.72 81.6941 60.72V61.14C82.7674 61.14 83.7241 63.2867 84.5641 67.58L84.1441 69.54L84.9841 70.38C84.9841 71.78 84.5641 72.5967 83.7241 72.83ZM78.8941 55.61H78.4741V54.77H78.8941V55.61ZM83.7241 77.66H82.8841C81.3441 76.96 80.5741 76.2833 80.5741 75.63L81.2741 73.95C83.6074 73.95 84.8441 74.6267 84.9841 75.98C84.5641 77.1 84.1441 77.66 83.7241 77.66ZM158.274 66.74H157.574L156.944 64.08L156.524 64.43L154.634 64.22V63.45L155.054 63.17L154.634 58.83H155.054L154.704 58.41V58.13L155.124 57.78L154.844 56.66L155.334 55.61L155.124 53.37L155.264 52.67L156.104 51.69L155.334 50.85L155.894 44.76L156.314 44.48L155.964 44.06C155.964 43.7333 156.104 43.4767 156.384 43.29L156.104 42.24L156.944 37.2L156.594 36.78C156.594 36.5933 156.804 35.7533 157.224 34.26L156.944 32.79L157.434 31.74L157.014 27.05L157.434 26.7L159.044 26.84C160.164 26.98 160.724 29.3833 160.724 34.05V34.61L160.304 35.03L160.514 37.55H160.094L160.514 37.83L160.094 41.82L160.374 43.29C160.094 43.4767 159.931 43.7333 159.884 44.06L160.094 46.58L159.674 46.86L159.744 50.15L160.094 50.99L159.674 51.27L159.884 54.14H159.464L159.744 54.56V55.26L159.324 55.61L159.674 56.03L159.324 59.18L158.834 60.93L159.044 63.17L158.904 64.92L158.274 66.74ZM134.544 58.34H134.334C129.901 58.34 126.261 56.6833 123.414 53.37L122.084 49.52C121.991 48.82 121.944 48.19 121.944 47.63C121.944 44.5967 123.041 42.87 125.234 42.45L125.864 43.29C124.744 44.6433 124.137 45.8333 124.044 46.86L124.674 50.36C125.654 52.7867 127.474 54.4667 130.134 55.4L133.704 56.1L136.434 55.26C136.247 55.0733 136.154 54.8633 136.154 54.63C136.854 52.7633 137.414 51.83 137.834 51.83V48.33L138.254 45.39L137.834 45.18L138.254 44.9V44.27C138.254 39.7433 136.504 37.48 133.004 37.48C129.317 37.48 126.541 38.9033 124.674 41.75L123.414 41.96L123.204 41.12C124.417 37.9467 127.334 36.1267 131.954 35.66H134.334C137.367 36.22 138.884 37.0833 138.884 38.25L138.534 38.46C139.094 38.46 139.911 39.23 140.984 40.77L141.264 41.12C141.077 41.3067 140.984 41.5167 140.984 41.75L142.034 43.08V43.64C142.034 44.6667 141.917 45.5767 141.684 46.37C141.684 47.35 141.591 48.33 141.404 49.31C140.937 49.87 140.541 50.5 140.214 51.2V52.67L139.934 53.16C139.934 53.3933 139.864 53.9533 139.724 54.84L139.304 55.47C138.511 56.8233 136.924 57.78 134.544 58.34ZM153.584 88.23C153.351 87.9967 153.234 87.7167 153.234 87.39L151.274 87.81H146.864L145.604 87.11H144.764V87.81C141.591 87.81 140.004 85.4067 140.004 80.6L140.354 79.41C139.794 78.15 139.397 74.02 139.164 67.02L139.584 66.6L143.574 67.44C150.807 65.2933 155.217 64.22 156.804 64.22H157.224C159.744 65.6667 161.354 71.8267 162.054 82.7L158.414 83.4C157.994 81.8133 157.597 81.02 157.224 81.02L157.644 78.99V76.61L157.224 75L157.644 74.58L156.804 67.79L148.404 69.75L147.984 69.47L146.444 69.75L144.414 69.47L141.614 69.75V72.62C141.614 74.02 141.987 75.21 142.734 76.19L142.454 76.61C142.454 76.89 142.827 79.0133 143.574 82.98L142.734 83.82C143.434 84.38 146.141 84.7767 150.854 85.01L151.274 84.66L152.814 85.01L154.004 84.66V85.01L159.954 83.82L160.374 84.24L159.954 84.66V85.85L160.374 87.11C160.094 87.11 157.831 87.4833 153.584 88.23ZM180.819 68.14C178.812 66.04 176.292 62.12 173.259 56.38L171.999 54.7C171.766 54.42 171.486 54.28 171.159 54.28L166.959 67.72L166.539 68.14C166.259 68.14 165.699 68 164.859 67.72L166.959 60.16C166.679 59.9267 166.539 59.6467 166.539 59.32C167.659 58.48 168.359 56.66 168.639 53.86C168.359 52.74 168.219 52.04 168.219 51.76L169.479 50.08L168.639 48.82L169.899 46.72C169.619 46.4867 169.479 46.2067 169.479 45.88C170.179 43.64 170.739 42.52 171.159 42.52H171.579L172.419 43.36V45.04L171.579 49.66L171.999 50.92H171.579L175.359 54.28C175.359 54.8867 177.319 57.2667 181.239 61.42L185.439 66.88L180.819 68.14ZM198.039 76.75H197.199L196.359 74.02L195.939 74.44H193.839V73.67L194.259 73.25L193.419 68.63H193.839L193.419 68.21V67.93L193.839 67.51L193.419 66.32L193.839 65.2C193.559 63.66 193.419 62.61 193.419 62.05L194.259 60.86L193.419 60.16V53.65L193.839 53.23L193.419 52.81V52.46L193.839 52.04L193.419 50.92L193.839 45.53L193.419 45.11C193.419 44.83 193.559 43.92 193.839 42.38L193.419 40.84L193.839 39.65L192.999 34.75L193.419 34.33H195.099C196.359 34.33 197.199 37.0133 197.619 42.38L197.199 42.8C197.199 43.0333 197.339 43.9433 197.619 45.53H197.199L197.619 45.88V50.15L198.039 51.62C197.759 51.8533 197.619 52.1333 197.619 52.46C197.899 54 198.039 54.8867 198.039 55.12L197.619 55.54L198.039 58.97L198.459 59.74L198.039 60.16C198.039 60.44 198.179 61.4433 198.459 63.17H198.039L198.459 63.59V64.36L198.039 64.78L198.459 65.2V68.63L198.039 70.52L198.459 72.83V74.86L198.039 76.75ZM244.906 93.27L243.786 92.22L244.206 91.8C244.206 91.52 244.066 90.89 243.786 89.91L244.206 89.49H244.486L244.206 88.02L244.906 80.74C244.906 80.46 244.766 79.69 244.486 78.43H244.906L244.486 78.01V77.73L245.256 76.54C244.836 76.54 244.09 75.63 243.016 73.81H238.396L234.966 73.53L233.916 73.81V73.53L233.496 73.81C232.703 73.81 230.766 73.7167 227.686 73.53L227.406 73.11H223.906C223.16 73.39 222.53 73.53 222.016 73.53C220.756 73.1567 220.126 72.76 220.126 72.34L218.236 72.69H216.276L215.506 71.92L214.386 71.5L212.916 71.92L211.726 71.5L211.026 72.34C209.486 72.34 208.32 71.57 207.526 70.03C207.526 68.21 209.416 67.3 213.196 67.3H214.806V68.14L215.926 67.3L216.276 67.72L216.696 67.3H217.396L219.006 68.49L219.286 68.14H220.126V68.91L220.476 68.49H223.906L226.216 68.91L226.566 68.49H226.986L229.716 69.61C229.716 68.63 229.95 68.14 230.416 68.14L230.766 69.33L231.186 68.91C232.586 68.91 233.73 69.2833 234.616 70.03L236.926 69.61C241.22 70.59 243.366 71.36 243.366 71.92C243.553 71.6867 243.833 71.5467 244.206 71.5L245.676 73.53L245.256 73.81L246.096 76.12L245.676 77.31C246.423 77.59 246.796 78.36 246.796 79.62L246.376 79.9C246.376 80.18 246.516 80.81 246.796 81.79H246.376C246.656 82.0233 246.796 82.3033 246.796 82.63C245.956 89.7233 245.326 93.27 244.906 93.27ZM238.326 66.25H237.556L236.856 63.66L236.436 63.94H234.546V63.24L234.966 62.82L234.126 58.27H234.546L234.126 57.85V57.57L234.546 57.15L234.126 55.96L234.546 54.84C234.266 53.3467 234.126 52.32 234.126 51.76L234.966 50.71L234.126 49.87V43.5L234.546 43.08L234.126 42.73C234.126 42.4033 234.266 42.1233 234.546 41.89L234.126 40.77L234.546 35.52L234.126 35.1C234.126 34.82 234.266 33.9333 234.546 32.44L234.126 30.9L234.546 29.71L233.776 24.81L234.126 24.46H235.666C236.786 24.46 237.556 27.12 237.976 32.44L237.556 32.79C237.556 33.07 237.696 33.98 237.976 35.52H237.556L237.976 35.8V40L238.326 41.61L237.976 41.89C237.976 42.17 238.093 43.08 238.326 44.62C238.28 44.9 238.163 45.1567 237.976 45.39L238.326 48.75H238.746C238.746 46.6967 240.52 45.4367 244.066 44.97L251.626 43.08L252.046 43.5C252.28 43.5 253.306 43.2433 255.126 42.73C256.106 43.8033 256.596 45.0633 256.596 46.51C256.596 47.3033 255.08 47.7933 252.046 47.98L251.626 47.7C251.346 47.7 250.833 47.7933 250.086 47.98V47.7L239.026 49.87L238.746 49.59L238.326 49.87C238.326 50.15 238.466 51.1767 238.746 52.95H238.326L238.746 53.37V54.07L238.326 54.49L238.746 54.84V58.27L238.326 60.16L238.746 62.47V64.36L238.326 66.25ZM206.406 61.63C206.406 61.0233 205.986 60.44 205.146 59.88L206.896 56.52L206.686 55.68C207.386 55.68 208.366 53.86 209.626 50.22L210.886 49.03H211.096L210.886 48.75C210.886 48.19 211.983 47.07 214.176 45.39C214.176 44.8767 214.876 44.1767 216.276 43.29L215.926 42.94V42.73L221.106 35.8L220.756 35.52L219.916 35.8C216.696 36.64 214.993 37.06 214.806 37.06C212.193 38.1333 209.323 39.16 206.196 40.14C204.703 40.84 203.046 41.19 201.226 41.19L201.786 39.16L210.256 36.36C210.49 35.8 211.306 35.52 212.706 35.52L212.986 35.8C213.92 34.96 215.436 34.54 217.536 34.54C217.536 34.12 218.026 33.84 219.006 33.7L219.636 34.26L220.126 33.7C221.526 34.0733 222.553 34.7733 223.206 35.8L219.916 41.19L219.636 40.84C219.636 43.4533 217.42 46.37 212.986 49.59L212.706 50.85L216.066 53.16L219.006 55.68H219.286C220.92 56.1 222.32 56.9633 223.486 58.27L222.016 59.88L221.386 59.25L220.756 59.88C219.356 59.18 218.656 58.48 218.656 57.78C218.47 57.9667 218.26 58.06 218.026 58.06C217.84 57.92 217.746 57.71 217.746 57.43L214.456 55.89L211.096 53.23H210.886C208.086 58.6433 206.593 61.4433 206.406 61.63Z" fill="white"/>
</svg>
