<svg width="52" height="108" viewBox="0 0 52 108" fill="none" xmlns="http://www.w3.org/2000/svg">
<path d="M46 59.2179L43.7545 59.2179" stroke="white" stroke-width="10" stroke-linecap="square"/>
<path d="M44.2539 64.3515C43.309 65.6809 41.6723 64.922 40.5668 64.922C39.1366 64.922 39.2819 66.5285 38.3905 68.5664C37.7809 69.9601 36.7635 69.2215 36.1311 70.4044C35.4111 71.7513 34.5849 72.9375 33.7747 74.0488" stroke="white" stroke-width="10" stroke-linecap="square"/>
<path d="M32.0273 75.7603C31.541 77.4788 29.3059 80.4956 28.4234 80.8625C26.477 81.6715 24.3793 80.9111 22.4214 81.7815C21.2321 82.3102 20.8302 85.1769 19.9402 86.2815C18.8478 87.6373 17.7425 88.7664 16.7521 90.4647C16.1094 91.5667 14.3722 92.848 13.5501 93.4119C12.4795 94.1462 11.6652 95.5407 10.6808 96.3591C10.1829 96.773 9.85896 98.0549 9.46101 98.7993C9.13307 99.4127 8.6949 98.9778 8.32437 99.4014C7.98221 99.7925 6.71392 101.378 6.57784 102" stroke="white" stroke-width="10" stroke-linecap="square"/>
<path d="M43.5049 54.084C42.3754 54.084 41.9969 50.5068 41.495 48.7283C40.8637 46.4914 39.2205 43.9474 38.0158 43.8163C36.8218 43.6863 35.5981 43.5433 34.4257 42.9606C33.5071 42.5041 33.275 41.1344 32.6237 39.7599C31.6288 37.6602 30.9782 35.3182 29.8376 33.5486C29.2138 32.581 28.5804 32.0481 27.897 31.2669C27.3024 30.5872 26.7556 29.7712 26.1782 29.0168C25.3926 27.9905 24.4731 28.6072 23.6138 28.0978C21.7772 27.0092 21.294 26.6581 19.9128 23.8513C18.9522 21.8991 17.932 21.1273 16.8079 19.9851C16.1054 19.2713 15.6604 17.6403 14.9366 16.7209C14.4343 16.0829 13.8159 16.8517 13.3148 16.309C12.8513 15.807 12.6769 15.0729 12.0673 14.7244" stroke="white" stroke-width="10" stroke-linecap="square"/>
<path d="M11.8174 14.7244C10.7966 14.5785 10.5622 12.2256 9.82134 11.3018C8.76268 9.9816 8.41062 7.81704 7.07679 7.3088" stroke="white" stroke-width="10" stroke-linecap="square"/>
</svg>
