<svg width="51" height="108" viewBox="0 0 51 108" fill="none" xmlns="http://www.w3.org/2000/svg">
<path d="M5.57812 48.7821H7.82367" stroke="white" stroke-width="10" stroke-linecap="square"/>
<path d="M7.32422 43.6485C8.26911 42.3191 9.90587 43.078 11.0113 43.078C12.4415 43.078 12.2962 41.4715 13.1876 39.4336C13.7972 38.0399 14.8146 38.7785 15.447 37.5956C16.1671 36.2486 16.9932 35.0625 17.8034 33.9512" stroke="white" stroke-width="10" stroke-linecap="square"/>
<path d="M19.5508 32.2397C20.0371 30.5212 22.2722 27.5044 23.1547 27.1375C25.1011 26.3285 27.1988 27.0889 29.1567 26.2185C30.346 25.6898 30.7479 22.8231 31.6379 21.7185C32.7303 20.3627 33.8356 19.2336 34.826 17.5353C35.4688 16.4333 37.2059 15.152 38.028 14.5881C39.0986 13.8538 39.9129 12.4593 40.8973 11.6409C41.3952 11.227 41.7192 9.94514 42.1171 9.20074C42.4451 8.58731 42.8832 9.02218 43.2538 8.59862C43.5959 8.20748 44.8642 6.62223 45.0003 6" stroke="white" stroke-width="10" stroke-linecap="square"/>
<path d="M8.07324 53.916C9.20274 53.916 9.58127 57.4932 10.0831 59.2717C10.7144 61.5086 12.3576 64.0526 13.5624 64.1837C14.7563 64.3137 15.98 64.4567 17.1525 65.0394C18.0711 65.4959 18.3031 66.8656 18.9544 68.2401C19.9494 70.3398 20.5999 72.6818 21.7406 74.4514C22.3643 75.419 22.9977 75.9519 23.6812 76.7331C24.2757 77.4128 24.8225 78.2288 25.4 78.9832C26.1856 80.0095 27.105 79.3928 27.9643 79.9022C29.8009 80.9908 30.2842 81.3419 31.6653 84.1487C32.6259 86.1009 33.6461 86.8727 34.7703 88.0149C35.4727 88.7287 35.9177 90.3597 36.6416 91.2791C37.1439 91.9171 37.7622 91.1483 38.2633 91.691C38.7269 92.193 38.9012 92.9271 39.5109 93.2756" stroke="white" stroke-width="10" stroke-linecap="square"/>
<path d="M39.7607 93.2756C40.7816 93.4215 41.016 95.7744 41.7568 96.6982C42.8154 98.0184 43.1675 100.183 44.5013 100.691" stroke="white" stroke-width="10" stroke-linecap="square"/>
</svg>
