<svg width="342" height="344" viewBox="0 0 342 344" fill="none" xmlns="http://www.w3.org/2000/svg">
<rect width="331" height="331" transform="translate(5 7)" fill="white"/>
<path d="M6.73429 225.04C6.73429 216.578 7.16787 208.971 7.16787 200.797C7.16787 192.074 6.30072 184.872 6.30072 176.367C6.30072 159.304 6.30072 142.241 6.30072 125.178C6.30072 122.327 5.50342 121.872 5.43357 119.304C5.34433 116.022 5.43357 112.536 5.43357 109.233C5.43357 102.939 5 96.8712 5 90.7716C5 75.107 5 59.4424 5 43.7778" stroke="white" stroke-width="10" stroke-linecap="square" stroke-dasharray="20 20"/>
<path d="M7.81828 303.849C7.81828 301.151 8.25185 298.726 8.25185 296.12C8.25185 293.339 7.3847 291.042 7.3847 288.331C7.3847 282.89 7.3847 277.45 7.3847 272.009C7.3847 271.1 6.58741 270.955 6.51756 270.136C6.42832 269.09 6.51756 267.979 6.51756 266.926C6.51756 264.919 6.08398 262.984 6.08398 261.039C6.08398 256.045 6.08398 251.05 6.08398 246.056" stroke="white" stroke-width="10" stroke-linecap="square" stroke-dasharray="20 20"/>
<path d="M334.483 214.532C334.483 206.07 334.916 198.463 334.916 190.289C334.916 181.567 334.049 174.364 334.049 165.86C334.049 148.796 334.049 131.733 334.049 114.67C334.049 111.819 333.252 111.364 333.182 108.796C333.093 105.514 333.182 102.028 333.182 98.7255C333.182 92.4315 332.748 86.3632 332.748 80.2636C332.748 64.599 332.748 48.9344 332.748 33.2698" stroke="white" stroke-width="10" stroke-linecap="square" stroke-dasharray="20 20"/>
<path d="M335.566 293.341C335.566 290.643 336 288.218 336 285.612C336 282.831 335.133 280.534 335.133 277.823C335.133 272.382 335.133 266.942 335.133 261.501C335.133 260.592 334.335 260.447 334.266 259.628C334.176 258.582 334.266 257.471 334.266 256.418C334.266 254.411 333.832 252.476 333.832 250.531C333.832 245.537 333.832 240.542 333.832 235.548" stroke="white" stroke-width="10" stroke-linecap="square" stroke-dasharray="20 20"/>
<path d="M254.222 323.289C254.944 323.289 255.593 324.865 256.29 324.865C257.035 324.865 257.649 321.713 258.375 321.713C259.831 321.713 261.287 321.713 262.743 321.713C262.986 321.713 263.025 318.814 263.244 318.56C263.524 318.236 263.822 318.56 264.104 318.56C264.641 318.56 265.159 316.984 265.679 316.984C267.016 316.984 268.353 316.984 269.689 316.984" stroke="white" stroke-width="10" stroke-linecap="square" stroke-dasharray="20 20"/>
<path d="M321.064 307.527C321.747 307.527 322.362 309.103 323.022 309.103C323.726 309.103 324.308 305.951 324.995 305.951C326.373 305.951 327.751 305.951 329.129 305.951C329.359 305.951 329.396 303.052 329.603 302.798C329.868 302.474 330.15 302.798 330.417 302.798C330.925 302.798 331.415 301.222 331.908 301.222C333.173 301.222 334.438 301.222 335.703 301.222" stroke="white" stroke-width="10" stroke-linecap="square" stroke-dasharray="20 20"/>
<path d="M304.491 310.154C305.175 310.154 305.789 311.73 306.449 311.73C307.154 311.73 307.735 308.578 308.422 308.578C309.8 308.578 311.178 308.578 312.556 308.578C312.787 308.578 312.823 305.679 313.031 305.425C313.296 305.101 313.577 305.425 313.844 305.425C314.352 305.425 314.843 303.849 315.335 303.849C316.6 303.849 317.865 303.849 319.13 303.849" stroke="white" stroke-width="10" stroke-linecap="square" stroke-dasharray="20 20"/>
<path d="M288.471 320.662C289.155 320.662 289.769 322.238 290.429 322.238C291.134 322.238 291.715 319.086 292.402 319.086C293.78 319.086 295.158 319.086 296.536 319.086C296.767 319.086 296.803 316.187 297.011 315.933C297.276 315.609 297.557 315.933 297.824 315.933C298.332 315.933 298.823 314.357 299.315 314.357C300.58 314.357 301.845 314.357 303.11 314.357" stroke="white" stroke-width="10" stroke-linecap="square" stroke-dasharray="20 20"/>
<path d="M286.538 323.289C285.855 323.289 285.24 324.865 284.58 324.865C283.876 324.865 283.294 321.713 282.607 321.713C281.229 321.713 279.851 321.713 278.473 321.713C278.243 321.713 278.206 318.814 277.999 318.56C277.734 318.236 277.452 318.56 277.185 318.56C276.677 318.56 276.187 316.984 275.694 316.984C274.429 316.984 273.164 316.984 271.899 316.984" stroke="white" stroke-width="10" stroke-linecap="square" stroke-dasharray="20 20"/>
<path d="M103.965 323.814C103.243 323.814 102.594 322.238 101.896 322.238C101.152 322.238 100.537 325.39 99.8115 325.39C98.3554 325.39 96.8994 325.39 95.4433 325.39C95.2 325.39 95.1613 328.289 94.9421 328.543C94.662 328.867 94.3646 328.543 94.0828 328.543C93.5457 328.543 93.0278 330.119 92.5073 330.119C91.1706 330.119 89.8339 330.119 88.4972 330.119" stroke="white" stroke-width="10" stroke-linecap="square" stroke-dasharray="20 20"/>
<path d="M238.202 318.56C238.885 318.56 239.499 316.984 240.16 316.984C240.864 316.984 241.446 320.137 242.133 320.137C243.511 320.137 244.889 320.137 246.267 320.137C246.497 320.137 246.534 323.035 246.741 323.289C247.006 323.613 247.288 323.289 247.554 323.289C248.063 323.289 248.553 324.865 249.045 324.865C250.31 324.865 251.576 324.865 252.841 324.865" stroke="white" stroke-width="10" stroke-linecap="square" stroke-dasharray="20 20"/>
<path d="M221.629 315.933C222.313 315.933 222.927 314.357 223.587 314.357C224.291 314.357 224.873 317.509 225.56 317.509C226.938 317.509 228.316 317.509 229.694 317.509C229.924 317.509 229.961 320.408 230.169 320.662C230.434 320.986 230.715 320.662 230.982 320.662C231.49 320.662 231.98 322.238 232.473 322.238C233.738 322.238 235.003 322.238 236.268 322.238" stroke="white" stroke-width="10" stroke-linecap="square" stroke-dasharray="20 20"/>
<path d="M205.609 310.679C206.293 310.679 206.907 309.103 207.567 309.103C208.271 309.103 208.853 312.256 209.54 312.256C210.918 312.256 212.296 312.256 213.674 312.256C213.904 312.256 213.941 315.154 214.149 315.408C214.414 315.732 214.695 315.408 214.962 315.408C215.47 315.408 215.96 316.984 216.453 316.984C217.718 316.984 218.983 316.984 220.248 316.984" stroke="white" stroke-width="10" stroke-linecap="square" stroke-dasharray="20 20"/>
<path d="M203.676 315.933C202.992 315.933 202.378 314.357 201.718 314.357C201.013 314.357 200.432 317.509 199.745 317.509C198.367 317.509 196.989 317.509 195.611 317.509C195.381 317.509 195.344 320.408 195.136 320.662C194.871 320.986 194.59 320.662 194.323 320.662C193.815 320.662 193.325 322.238 192.832 322.238C191.567 322.238 190.302 322.238 189.037 322.238" stroke="white" stroke-width="10" stroke-linecap="square" stroke-dasharray="20 20"/>
<path d="M186.827 315.933C186.105 315.933 185.456 314.357 184.758 314.357C184.014 314.357 183.399 317.509 182.674 317.509C181.218 317.509 179.762 317.509 178.306 317.509C178.062 317.509 178.024 320.408 177.804 320.662C177.524 320.986 177.227 320.662 176.945 320.662C176.408 320.662 175.89 322.238 175.37 322.238C174.033 322.238 172.696 322.238 171.36 322.238" stroke="white" stroke-width="10" stroke-linecap="square" stroke-dasharray="20 20"/>
<path d="M119.985 326.441C119.301 326.441 118.687 324.865 118.027 324.865C117.323 324.865 116.741 328.018 116.054 328.018C114.676 328.018 113.298 328.018 111.92 328.018C111.69 328.018 111.653 330.916 111.445 331.17C111.18 331.494 110.899 331.17 110.632 331.17C110.124 331.17 109.634 332.746 109.141 332.746C107.876 332.746 106.611 332.746 105.346 332.746" stroke="white" stroke-width="10" stroke-linecap="square" stroke-dasharray="20 20"/>
<path d="M136.557 323.814C135.874 323.814 135.26 322.238 134.599 322.238C133.895 322.238 133.313 325.39 132.627 325.39C131.248 325.39 129.87 325.39 128.492 325.39C128.262 325.39 128.225 328.289 128.018 328.543C127.753 328.867 127.471 328.543 127.205 328.543C126.696 328.543 126.206 330.119 125.714 330.119C124.449 330.119 123.183 330.119 121.918 330.119" stroke="white" stroke-width="10" stroke-linecap="square" stroke-dasharray="20 20"/>
<path d="M152.577 313.306C151.894 313.306 151.28 311.73 150.62 311.73C149.915 311.73 149.333 314.883 148.647 314.883C147.268 314.883 145.89 314.883 144.512 314.883C144.282 314.883 144.245 317.781 144.038 318.035C143.773 318.359 143.491 318.035 143.225 318.035C142.716 318.035 142.226 319.611 141.734 319.611C140.469 319.611 139.203 319.611 137.938 319.611" stroke="white" stroke-width="10" stroke-linecap="square" stroke-dasharray="20 20"/>
<path d="M154.511 323.814C155.194 323.814 155.808 322.238 156.469 322.238C157.173 322.238 157.755 325.39 158.442 325.39C159.82 325.39 161.198 325.39 162.576 325.39C162.806 325.39 162.843 328.289 163.05 328.543C163.315 328.867 163.597 328.543 163.863 328.543C164.372 328.543 164.862 330.119 165.354 330.119C166.62 330.119 167.885 330.119 169.15 330.119" stroke="white" stroke-width="10" stroke-linecap="square" stroke-dasharray="20 20"/>
<path d="M72.7781 331.695C73.5001 331.695 74.1493 330.119 74.8468 330.119C75.5911 330.119 76.2057 333.271 76.9314 333.271C78.3875 333.271 79.8435 333.271 81.2996 333.271C81.5429 333.271 81.5817 336.17 81.8009 336.424C82.0809 336.748 82.3783 336.424 82.6602 336.424C83.1973 336.424 83.7151 338 84.2356 338C85.5723 338 86.909 338 88.2457 338" stroke="white" stroke-width="10" stroke-linecap="square" stroke-dasharray="20 20"/>
<path d="M124.705 323.814C125.388 323.814 126.003 322.238 126.663 322.238C127.367 322.238 127.949 325.39 128.636 325.39C130.014 325.39 131.392 325.39 132.77 325.39C133 325.39 133.037 328.289 133.244 328.543C133.51 328.867 133.791 328.543 134.058 328.543C134.566 328.543 135.056 330.119 135.549 330.119C136.814 330.119 138.079 330.119 139.344 330.119" stroke="white" stroke-width="10" stroke-linecap="square" stroke-dasharray="20 20"/>
<path d="M105.923 313.306C105.201 313.306 104.552 311.73 103.854 311.73C103.11 311.73 102.495 314.883 101.77 314.883C100.314 314.883 98.8576 314.883 97.4016 314.883C97.1583 314.883 97.1195 317.781 96.9003 318.035C96.6203 318.359 96.3228 318.035 96.041 318.035C95.5039 318.035 94.9861 319.611 94.4656 319.611C93.1289 319.611 91.7922 319.611 90.4555 319.611" stroke="white" stroke-width="10" stroke-linecap="square" stroke-dasharray="20 20"/>
<path d="M56.7581 326.441C57.4414 326.441 58.0558 324.865 58.7159 324.865C59.4204 324.865 60.0021 328.018 60.6889 328.018C62.067 328.018 63.445 328.018 64.8231 328.018C65.0533 328.018 65.09 330.916 65.2975 331.17C65.5625 331.494 65.844 331.17 66.1107 331.17C66.6191 331.17 67.1091 332.746 67.6018 332.746C68.8669 332.746 70.132 332.746 71.397 332.746" stroke="white" stroke-width="10" stroke-linecap="square" stroke-dasharray="20 20"/>
<path d="M40.1858 323.814C40.8692 323.814 41.4835 322.238 42.1437 322.238C42.8481 322.238 43.4298 325.39 44.1166 325.39C45.4947 325.39 46.8727 325.39 48.2508 325.39C48.481 325.39 48.5178 328.289 48.7252 328.543C48.9902 328.867 49.2717 328.543 49.5385 328.543C50.0468 328.543 50.5369 330.119 51.0295 330.119C52.2946 330.119 53.5597 330.119 54.8248 330.119" stroke="white" stroke-width="10" stroke-linecap="square" stroke-dasharray="20 20"/>
<path d="M24.1658 321.187C24.8491 321.187 25.4635 319.611 26.1237 319.611C26.8281 319.611 27.4098 322.763 28.0966 322.763C29.4747 322.763 30.8527 322.763 32.2308 322.763C32.461 322.763 32.4977 325.662 32.7052 325.916C32.9702 326.24 33.2517 325.916 33.5185 325.916C34.0268 325.916 34.5169 327.492 35.0095 327.492C36.2746 327.492 37.5397 327.492 38.8048 327.492" stroke="white" stroke-width="10" stroke-linecap="square" stroke-dasharray="20 20"/>
<path d="M22.2322 323.814C21.5488 323.814 20.9344 322.238 20.2743 322.238C19.5699 322.238 18.9881 325.39 18.3013 325.39C16.9233 325.39 15.5452 325.39 14.1672 325.39C13.9369 325.39 13.9002 328.289 13.6928 328.543C13.4277 328.867 13.1462 328.543 12.8795 328.543C12.3712 328.543 11.8811 330.119 11.3885 330.119C10.1234 330.119 8.85828 330.119 7.59318 330.119" stroke="white" stroke-width="10" stroke-linecap="square" stroke-dasharray="20 20"/>
<path d="M254.222 21.1857C254.944 21.1857 255.593 22.7619 256.29 22.7619C257.035 22.7619 257.649 19.6096 258.375 19.6096C259.831 19.6096 261.287 19.6096 262.743 19.6096C262.986 19.6096 263.025 16.7111 263.244 16.4572C263.524 16.1328 263.822 16.4572 264.104 16.4572C264.641 16.4572 265.159 14.881 265.679 14.881C267.016 14.881 268.353 14.881 269.689 14.881" stroke="white" stroke-width="10" stroke-linecap="square" stroke-dasharray="20 20"/>
<path d="M320.911 18.5588C321.405 18.5588 321.85 20.135 322.328 20.135C322.837 20.135 323.258 16.9826 323.755 16.9826C324.753 16.9826 325.75 16.9826 326.747 16.9826C326.914 16.9826 326.941 14.0841 327.091 13.8302C327.283 13.5058 327.486 13.8302 327.679 13.8302C328.047 13.8302 328.402 12.254 328.758 12.254C329.674 12.254 330.59 12.254 331.505 12.254" stroke="white" stroke-width="15" stroke-linecap="square" stroke-dasharray="20 20"/>
<path d="M304.491 21.1857C305.175 21.1857 305.789 22.7619 306.449 22.7619C307.154 22.7619 307.735 19.6096 308.422 19.6096C309.8 19.6096 311.178 19.6096 312.556 19.6096C312.787 19.6096 312.823 16.7111 313.031 16.4572C313.296 16.1328 313.577 16.4572 313.844 16.4572C314.352 16.4572 314.843 14.881 315.335 14.881C316.6 14.881 317.865 14.881 319.13 14.881" stroke="white" stroke-width="15" stroke-linecap="square" stroke-dasharray="20 20"/>
<path d="M288.471 18.5588C289.155 18.5588 289.769 20.135 290.429 20.135C291.134 20.135 291.715 16.9826 292.402 16.9826C293.78 16.9826 295.158 16.9826 296.536 16.9826C296.767 16.9826 296.803 14.0841 297.011 13.8302C297.276 13.5058 297.557 13.8302 297.824 13.8302C298.332 13.8302 298.823 12.254 299.315 12.254C300.58 12.254 301.845 12.254 303.11 12.254" stroke="white" stroke-width="10" stroke-linecap="square" stroke-dasharray="20 20"/>
<path d="M286.538 21.1857C285.855 21.1857 285.24 22.7619 284.58 22.7619C283.876 22.7619 283.294 19.6096 282.607 19.6096C281.229 19.6096 279.851 19.6096 278.473 19.6096C278.243 19.6096 278.206 16.7111 277.999 16.4572C277.734 16.1328 277.452 16.4572 277.185 16.4572C276.677 16.4572 276.187 14.881 275.694 14.881C274.429 14.881 273.164 14.881 271.899 14.881" stroke="white" stroke-width="10" stroke-linecap="square" stroke-dasharray="20 20"/>
<path d="M103.323 29.5921C102.601 29.5921 101.952 28.0159 101.254 28.0159C100.51 28.0159 99.8951 31.1683 99.1694 31.1683C97.7134 31.1683 96.2573 31.1683 94.8012 31.1683C94.558 31.1683 94.5192 34.0667 94.3 34.3207C94.0199 34.6451 93.7225 34.3207 93.4407 34.3207C92.9036 34.3207 92.3858 35.8969 91.8653 35.8969C90.5285 35.8969 89.1918 35.8969 87.8551 35.8969" stroke="white" stroke-width="10" stroke-linecap="square" stroke-dasharray="20 20"/>
<path d="M238.202 16.4572C238.885 16.4572 239.499 14.881 240.16 14.881C240.864 14.881 241.446 18.0334 242.133 18.0334C243.511 18.0334 244.889 18.0334 246.267 18.0334C246.497 18.0334 246.534 20.9318 246.741 21.1858C247.006 21.5102 247.288 21.1858 247.554 21.1858C248.063 21.1858 248.553 22.762 249.045 22.762C250.31 22.762 251.576 22.762 252.841 22.762" stroke="white" stroke-width="10" stroke-linecap="square" stroke-dasharray="20 20"/>
<path d="M221.629 13.8301C222.313 13.8301 222.927 12.2539 223.587 12.2539C224.291 12.2539 224.873 15.4063 225.56 15.4063C226.938 15.4063 228.316 15.4063 229.694 15.4063C229.924 15.4063 229.961 18.3048 230.169 18.5587C230.434 18.8831 230.715 18.5587 230.982 18.5587C231.49 18.5587 231.98 20.1349 232.473 20.1349C233.738 20.1349 235.003 20.1349 236.268 20.1349" stroke="white" stroke-width="10" stroke-linecap="square" stroke-dasharray="20 20"/>
<path d="M205.609 8.57622C206.293 8.57622 206.907 7.00003 207.567 7.00003C208.271 7.00003 208.853 10.1524 209.54 10.1524C210.918 10.1524 212.296 10.1524 213.674 10.1524C213.904 10.1524 213.941 13.0509 214.149 13.3048C214.414 13.6292 214.695 13.3048 214.962 13.3048C215.47 13.3048 215.96 14.881 216.453 14.881C217.718 14.881 218.983 14.881 220.248 14.881" stroke="white" stroke-width="10" stroke-linecap="square" stroke-dasharray="20 20"/>
<path d="M203.676 19.0842C202.992 19.0842 202.378 17.508 201.718 17.508C201.013 17.508 200.432 20.6603 199.745 20.6603C198.367 20.6603 196.989 20.6603 195.611 20.6603C195.381 20.6603 195.344 23.5588 195.136 23.8127C194.871 24.1371 194.59 23.8127 194.323 23.8127C193.815 23.8127 193.325 25.3889 192.832 25.3889C191.567 25.3889 190.302 25.3889 189.037 25.3889" stroke="white" stroke-width="15" stroke-linecap="square" stroke-dasharray="20 20"/>
<path d="M186.827 19.0842C186.105 19.0842 185.456 17.508 184.758 17.508C184.014 17.508 183.399 20.6603 182.674 20.6603C181.218 20.6603 179.762 20.6603 178.306 20.6603C178.062 20.6603 178.024 23.5588 177.804 23.8127C177.524 24.1371 177.227 23.8127 176.945 23.8127C176.408 23.8127 175.89 25.3889 175.37 25.3889C174.033 25.3889 172.696 25.3889 171.36 25.3889" stroke="white" stroke-width="15" stroke-linecap="square" stroke-dasharray="20 20"/>
<path d="M119.343 24.3381C118.659 24.3381 118.045 22.7619 117.385 22.7619C116.68 22.7619 116.099 25.9143 115.412 25.9143C114.034 25.9143 112.656 25.9143 111.278 25.9143C111.048 25.9143 111.011 28.8127 110.803 29.0666C110.538 29.391 110.257 29.0666 109.99 29.0666C109.482 29.0666 108.992 30.6428 108.499 30.6428C107.234 30.6428 105.969 30.6428 104.704 30.6428" stroke="white" stroke-width="10" stroke-linecap="square" stroke-dasharray="20 20"/>
<path d="M135.915 21.7111C135.232 21.7111 134.618 20.1349 133.957 20.1349C133.253 20.1349 132.671 23.2873 131.984 23.2873C130.606 23.2873 129.228 23.2873 127.85 23.2873C127.62 23.2873 127.583 26.1858 127.376 26.4397C127.111 26.7641 126.829 26.4397 126.563 26.4397C126.054 26.4397 125.564 28.0159 125.072 28.0159C123.806 28.0159 122.541 28.0159 121.276 28.0159" stroke="white" stroke-width="10" stroke-linecap="square" stroke-dasharray="20 20"/>
<path d="M151.935 11.2032C151.252 11.2032 150.638 9.62698 149.977 9.62698C149.273 9.62698 148.691 12.7794 148.004 12.7794C146.626 12.7794 145.248 12.7794 143.87 12.7794C143.64 12.7794 143.603 15.6778 143.396 15.9317C143.131 16.2562 142.849 15.9317 142.583 15.9317C142.074 15.9317 141.584 17.5079 141.092 17.5079C139.827 17.5079 138.561 17.5079 137.296 17.5079" stroke="white" stroke-width="15" stroke-linecap="square" stroke-dasharray="20 20"/>
<path d="M154.511 19.0842C155.194 19.0842 155.808 17.508 156.469 17.508C157.173 17.508 157.755 20.6603 158.442 20.6603C159.82 20.6603 161.198 20.6603 162.576 20.6603C162.806 20.6603 162.843 23.5588 163.05 23.8127C163.315 24.1371 163.597 23.8127 163.863 23.8127C164.372 23.8127 164.862 25.3889 165.354 25.3889C166.62 25.3889 167.885 25.3889 169.15 25.3889" stroke="white" stroke-width="15" stroke-linecap="square" stroke-dasharray="20 20"/>
<path d="M23.0608 26.9651C22.3387 26.9651 21.6896 25.3889 20.9921 25.3889C20.2478 25.3889 19.6331 28.5413 18.9074 28.5413C17.4514 28.5413 15.9953 28.5413 14.5393 28.5413C14.296 28.5413 14.2572 31.4398 14.038 31.6937C13.758 32.0181 13.4605 31.6937 13.1787 31.6937C12.6416 31.6937 12.1238 33.2699 11.6033 33.2699C10.2666 33.2699 8.92988 33.2699 7.59317 33.2699" stroke="white" stroke-width="10" stroke-linecap="square" stroke-dasharray="20 20"/>
<path d="M124.063 21.7111C124.746 21.7111 125.361 20.1349 126.021 20.1349C126.725 20.1349 127.307 23.2873 127.994 23.2873C129.372 23.2873 130.75 23.2873 132.128 23.2873C132.358 23.2873 132.395 26.1858 132.602 26.4397C132.867 26.7641 133.149 26.4397 133.416 26.4397C133.924 26.4397 134.414 28.0159 134.907 28.0159C136.172 28.0159 137.437 28.0159 138.702 28.0159" stroke="white" stroke-width="10" stroke-linecap="square" stroke-dasharray="20 20"/>
<path d="M105.281 19.0842C104.559 19.0842 103.91 17.508 103.212 17.508C102.468 17.508 101.853 20.6603 101.128 20.6603C99.6716 20.6603 98.2155 20.6603 96.7595 20.6603C96.5162 20.6603 96.4774 23.5588 96.2582 23.8127C95.9782 24.1371 95.6808 23.8127 95.3989 23.8127C94.8618 23.8127 94.344 25.3889 93.8235 25.3889C92.4868 25.3889 91.1501 25.3889 89.8134 25.3889" stroke="white" stroke-width="10" stroke-linecap="square" stroke-dasharray="20 20"/>
<path d="M39.0808 21.7111C38.3974 21.7111 37.7831 20.1349 37.1229 20.1349C36.4185 20.1349 35.8368 23.2873 35.15 23.2873C33.7719 23.2873 32.3939 23.2873 31.0158 23.2873C30.7856 23.2873 30.7488 26.1858 30.5414 26.4397C30.2764 26.7641 29.9949 26.4397 29.7281 26.4397C29.2198 26.4397 28.7297 28.0159 28.2371 28.0159C26.972 28.0159 25.7069 28.0159 24.4418 28.0159" stroke="white" stroke-width="10" stroke-linecap="square" stroke-dasharray="20 20"/>
<path d="M55.6533 19.0842C54.9699 19.0842 54.3556 17.508 53.6954 17.508C52.991 17.508 52.4093 20.6603 51.7225 20.6603C50.3444 20.6603 48.9664 20.6603 47.5883 20.6603C47.3581 20.6603 47.3214 23.5588 47.1139 23.8127C46.8489 24.1371 46.5674 23.8127 46.3006 23.8127C45.7923 23.8127 45.3022 25.3889 44.8096 25.3889C43.5445 25.3889 42.2794 25.3889 41.0143 25.3889" stroke="white" stroke-width="10" stroke-linecap="square" stroke-dasharray="20 20"/>
<path d="M71.6733 21.7111C70.99 21.7111 70.3756 20.1349 69.7154 20.1349C69.011 20.1349 68.4293 23.2873 67.7425 23.2873C66.3644 23.2873 64.9864 23.2873 63.6083 23.2873C63.3781 23.2873 63.3414 26.1858 63.1339 26.4397C62.8689 26.7641 62.5874 26.4397 62.3206 26.4397C61.8123 26.4397 61.3222 28.0159 60.8296 28.0159C59.5645 28.0159 58.2994 28.0159 57.0343 28.0159" stroke="white" stroke-width="10" stroke-linecap="square" stroke-dasharray="20 20"/>
<path d="M72.9646 19.0842C73.648 19.0842 74.2623 17.508 74.9225 17.508C75.6269 17.508 76.2086 20.6603 76.8954 20.6603C78.2735 20.6603 79.6516 20.6603 81.0296 20.6603C81.2599 20.6603 81.2966 23.5588 81.504 23.8127C81.7691 24.1371 82.0505 23.8127 82.3173 23.8127C82.8256 23.8127 83.3157 25.3889 83.8083 25.3889C85.0734 25.3889 86.3385 25.3889 87.6036 25.3889" stroke="white" stroke-width="10" stroke-linecap="square" stroke-dasharray="20 20"/>
</svg>
