<svg width="315" height="116" viewBox="0 0 315 116" fill="none" xmlns="http://www.w3.org/2000/svg">
<rect width="304" height="107" transform="translate(6 5)" fill="#00631C"/>
<path d="M7.6 40C7.6 43.2211 8 46.1168 8 49.2284C8 52.5487 7.2 55.2906 7.2 58.5278C7.2 65.0231 7.2 71.5185 7.2 78.0139C7.2 79.0992 6.46444 79.2722 6.4 80.25C6.31767 81.4992 6.4 82.826 6.4 84.0833C6.4 86.4792 6 88.7892 6 91.1111C6 97.0741 6 103.037 6 109" stroke="#00631C" stroke-width="10" stroke-linecap="square" stroke-dasharray="20 20"/>
<path d="M8.6 10C8.6 11.027 9 11.9503 9 12.9424C9 14.001 8.2 14.8753 8.2 15.9074C8.2 17.9784 8.2 20.0494 8.2 22.1204C8.2 22.4664 7.46444 22.5216 7.4 22.8333C7.31767 23.2316 7.4 23.6547 7.4 24.0556C7.4 24.8195 7 25.556 7 26.2963C7 28.1975 7 30.0988 7 32" stroke="#00631C" stroke-width="10" stroke-linecap="square" stroke-dasharray="20 20"/>
<path d="M307.6 75C307.6 71.7789 308 68.8832 308 65.7716C308 62.4513 307.2 59.7094 307.2 56.4722C307.2 49.9769 307.2 43.4815 307.2 36.9861C307.2 35.9008 306.464 35.7278 306.4 34.75C306.318 33.5008 306.4 32.174 306.4 30.9167C306.4 28.5208 306 26.2108 306 23.8889C306 17.9259 306 11.963 306 6" stroke="#00631C" stroke-width="10" stroke-linecap="square" stroke-dasharray="20 20"/>
<path d="M308.6 105C308.6 103.973 309 103.05 309 102.058C309 100.999 308.2 100.125 308.2 99.0926C308.2 97.0216 308.2 94.9506 308.2 92.8796C308.2 92.5336 307.464 92.4784 307.4 92.1667C307.318 91.7684 307.4 91.3453 307.4 90.9444C307.4 90.1805 307 89.444 307 88.7037C307 86.8025 307 84.9012 307 83" stroke="#00631C" stroke-width="10" stroke-linecap="square" stroke-dasharray="20 20"/>
<path d="M36 9.6C34.973 9.6 34.0497 10 33.0576 10C31.999 10 31.1247 9.2 30.0926 9.2C28.0216 9.2 25.9506 9.2 23.8796 9.2C23.5336 9.2 23.4784 8.46444 23.1667 8.4C22.7684 8.31767 22.3453 8.4 21.9444 8.4C21.1805 8.4 20.444 8 19.7037 8C17.8025 8 15.9012 8 14 8" stroke="#00631C" stroke-width="10" stroke-linecap="square" stroke-dasharray="20 20"/>
<path d="M83 110.4C79.7323 110.4 76.7946 111 73.6379 111C70.2694 111 67.4878 109.8 64.2037 109.8C57.6142 109.8 51.0247 109.8 44.4352 109.8C43.3342 109.8 43.1586 108.697 42.1667 108.6C40.8993 108.477 39.5533 108.6 38.2778 108.6C35.8472 108.6 33.5037 108 31.1481 108C25.0988 108 19.0494 108 13 108" stroke="#00631C" stroke-width="10" stroke-linecap="square" stroke-dasharray="20 20"/>
<path d="M92 109.4C94.4741 109.4 96.6984 110 99.0885 110C101.639 110 103.745 108.8 106.231 108.8C111.221 108.8 116.21 108.8 121.199 108.8C122.033 108.8 122.166 107.697 122.917 107.6C123.876 107.477 124.895 107.6 125.861 107.6C127.701 107.6 129.476 107 131.259 107C135.84 107 140.42 107 145 107" stroke="#00631C" stroke-width="8" stroke-linecap="square" stroke-dasharray="20 20"/>
<path d="M223 110.4C219.732 110.4 216.795 111 213.638 111C210.269 111 207.488 109.8 204.204 109.8C197.614 109.8 191.025 109.8 184.435 109.8C183.334 109.8 183.159 108.697 182.167 108.6C180.899 108.477 179.553 108.6 178.278 108.6C175.847 108.6 173.504 108 171.148 108C165.099 108 159.049 108 153 108" stroke="#00631C" stroke-width="10" stroke-linecap="square" stroke-dasharray="20 20"/>
<path d="M232 109.4C234.474 109.4 236.698 110 239.088 110C241.639 110 243.745 108.8 246.231 108.8C251.221 108.8 256.21 108.8 261.199 108.8C262.033 108.8 262.166 107.697 262.917 107.6C263.876 107.477 264.895 107.6 265.861 107.6C267.701 107.6 269.476 107 271.259 107C275.84 107 280.42 107 285 107" stroke="#00631C" stroke-width="8" stroke-linecap="square" stroke-dasharray="20 20"/>
<path d="M257 111.4C259.474 111.4 261.698 112 264.088 112C266.639 112 268.745 110.8 271.231 110.8C276.221 110.8 281.21 110.8 286.199 110.8C287.033 110.8 287.166 109.697 287.917 109.6C288.876 109.477 289.895 109.6 290.861 109.6C292.701 109.6 294.476 109 296.259 109C300.84 109 305.42 109 310 109" stroke="#00631C" stroke-width="8" stroke-linecap="square" stroke-dasharray="20 20"/>
<path d="M111 9.6C107.872 9.6 105.06 10 102.039 10C98.815 10 96.1526 9.2 93.0093 9.2C86.7022 9.2 80.3951 9.2 74.088 9.2C73.0342 9.2 72.8661 8.46444 71.9167 8.4C70.7036 8.31767 69.4153 8.4 68.1944 8.4C65.868 8.4 63.625 8 61.3704 8C55.5802 8 49.7901 8 44 8" stroke="#00631C" stroke-width="10" stroke-linecap="square" stroke-dasharray="20 20"/>
<path d="M120 8.6C122.427 8.6 124.61 9 126.955 9C129.457 9 131.523 8.2 133.963 8.2C138.858 8.2 143.753 8.2 148.648 8.2C149.466 8.2 149.596 7.46444 150.333 7.4C151.275 7.31767 152.275 7.4 153.222 7.4C155.028 7.4 156.769 7 158.519 7C163.012 7 167.506 7 172 7" stroke="#00631C" stroke-width="8" stroke-linecap="square" stroke-dasharray="20 20"/>
<path d="M241 7.6C237.872 7.6 235.06 8 232.039 8C228.815 8 226.153 7.2 223.009 7.2C216.702 7.2 210.395 7.2 204.088 7.2C203.034 7.2 202.866 6.46444 201.917 6.4C200.704 6.31767 199.415 6.4 198.194 6.4C195.868 6.4 193.625 6 191.37 6C185.58 6 179.79 6 174 6" stroke="#00631C" stroke-width="10" stroke-linecap="square" stroke-dasharray="20 20"/>
<path d="M250 6.6C252.427 6.6 254.61 7 256.955 7C259.457 7 261.523 6.2 263.963 6.2C268.858 6.2 273.753 6.2 278.648 6.2C279.466 6.2 279.596 5.46444 280.333 5.4C281.275 5.31767 282.275 5.4 283.222 5.4C285.028 5.4 286.769 5 288.519 5C293.012 5 297.506 5 302 5" stroke="#00631C" stroke-width="8" stroke-linecap="square" stroke-dasharray="20 20"/>
<path d="M104.789 78.5H103.949L103.109 75.56L102.689 75.98H100.589V75.14L101.009 74.72L100.169 69.68H100.589L100.169 69.26C100.169 68.9333 100.309 68.6533 100.589 68.42L100.169 67.16L100.589 65.9C100.309 64.22 100.169 63.1 100.169 62.54L101.009 61.28L100.169 60.44V53.3L100.589 52.88L100.169 52.46C100.169 52.1333 100.309 51.8533 100.589 51.62L100.169 50.36L100.589 44.48L100.169 44.06C100.169 43.78 100.309 42.8 100.589 41.12L100.169 39.44L100.589 38.18L99.7486 32.72L100.169 32.3H101.849C103.109 32.3 103.949 35.24 104.369 41.12L103.949 41.54C103.949 41.82 104.089 42.8 104.369 44.48H103.949L104.369 44.9V49.52L104.789 51.2L104.369 51.62C104.369 51.9 104.509 52.88 104.789 54.56C104.789 54.8867 104.649 55.1667 104.369 55.4L104.789 59.18H105.209C105.209 56.8467 107.169 55.4467 111.089 54.98L119.489 52.88L119.909 53.3C120.189 53.3 121.309 53.02 123.269 52.46C124.389 53.6267 124.949 55.0267 124.949 56.66C124.949 57.5 123.269 58.06 119.909 58.34L119.489 57.92C119.209 57.92 118.649 58.06 117.809 58.34V57.92L105.629 60.44L105.209 60.02L104.789 60.44C104.789 60.72 104.929 61.84 105.209 63.8H104.789L105.209 64.22V65.06L104.789 65.48L105.209 65.9V69.68L104.789 71.78L105.209 74.3V76.4L104.789 78.5ZM72.8686 71.36L71.6086 70.52L71.1886 70.94H68.2486L67.4086 70.1C67.6886 69.8667 67.8286 69.5867 67.8286 69.26L66.9886 68.42V68L68.2486 66.32L66.9886 65.9V63.8L67.4086 63.38L66.5686 60.02L67.4086 59.18L66.5686 57.5L66.9886 56.24L66.1486 53.3L67.4086 52.04C66.8019 52.04 66.2419 51.48 65.7286 50.36L66.1486 49.94L65.7286 49.52C66.0086 48.12 66.1486 47.14 66.1486 46.58L65.7286 46.16C65.7286 45.6467 65.0286 45.3667 63.6286 45.32L63.2086 44.9V44.06L64.0486 42.8L69.9286 43.64L72.4486 43.22L74.1286 43.64L78.7486 42.8L79.5886 43.64C79.8686 43.4067 80.0086 43.1267 80.0086 42.8L85.4686 44.06L85.8886 43.64C86.1686 43.64 87.5686 43.92 90.0886 44.48V44.9L88.4086 46.58C83.6486 46.3467 81.2686 46.0667 81.2686 45.74L80.8486 46.16L78.7486 45.74H71.6086L71.1886 45.32L70.7686 45.74H69.9286C69.6953 45.46 69.4153 45.32 69.0886 45.32V52.88L69.5086 54.98H69.0886L69.5086 55.4V65.48L69.9286 68.42H73.7086L81.2686 67.16V67.58L84.6286 66.74L86.7286 67.16L93.8686 66.32V66.74L88.4086 70.94L83.7886 69.68L77.4886 70.52V70.1L72.8686 71.36ZM144.47 59.6L139.43 58.9L132.36 59.6C132.08 59.4133 131.777 59.32 131.45 59.32C129.817 59.5067 128.72 59.6 128.16 59.6V57.92L127.74 55.96L129 54.98H131.1L131.45 55.54L131.87 54.98H133.13L133.55 55.54L136.49 54.7L141.53 55.54C142.37 55.54 149.02 54.56 161.48 52.6V53.02L169.46 51.34L170.58 55.96L169.46 57.22L162.74 55.96C161.62 56.2867 161.06 56.7067 161.06 57.22L159.45 56.66L157.35 57.22L156.86 56.66C156.86 57.4533 155.623 58.2 153.15 58.9L151.47 57.92L150.63 58.9L150.21 58.34L146.15 59.32V58.9L144.47 59.6ZM150.35 49.03H150.14C145.66 49.03 142.02 47.49 139.22 44.41L137.82 40.63L137.68 38.95C137.68 36.1033 138.777 34.4933 140.97 34.12L141.6 34.75C140.48 36.0567 139.897 37.2 139.85 38.18L140.48 41.47C141.46 43.7567 143.28 45.3667 145.94 46.3L149.51 47L152.24 46.09C152.007 45.95 151.89 45.7633 151.89 45.53C152.59 43.71 153.15 42.8 153.57 42.8V39.58L153.99 36.85L153.57 36.64L153.99 36.29V35.8C153.99 31.5067 152.263 29.36 148.81 29.36C144.983 29.36 142.207 30.69 140.48 33.35L139.22 33.49L139.01 32.72C140.177 29.7333 143.07 28.03 147.69 27.61H150.14C153.127 28.17 154.62 28.9633 154.62 29.99L154.34 30.34C154.9 30.34 155.693 31.0633 156.72 32.51L157.07 32.72L156.72 33.07V33.28L157.77 34.61L157.84 35.45C157.84 36.29 157.723 37.0367 157.49 37.69C157.49 38.6233 157.373 39.5567 157.14 40.49L156.51 41.12L156.02 42.31V43.64L155.67 44.2C155.67 44.3867 155.6 44.9 155.46 45.74L155.04 46.37C154.293 47.5833 152.73 48.47 150.35 49.03ZM154.62 88.93C154.433 88.6967 154.34 88.4167 154.34 88.09L152.31 88.51H147.9L146.64 87.74H145.8V88.51C142.673 88.51 141.11 86.0833 141.11 81.23L141.39 80.11C140.83 78.85 140.457 74.72 140.27 67.72L140.69 67.3L144.68 68.14C151.867 65.9467 156.277 64.85 157.91 64.85H158.33C160.85 66.3433 162.46 72.5033 163.16 83.33L159.45 84.1C159.03 82.4667 158.657 81.65 158.33 81.65L158.75 79.69V77.24L158.33 75.7L158.75 75.28L157.91 68.42L149.51 70.45L149.09 70.1L147.48 70.45L145.52 70.1L142.65 70.45V73.25C142.65 74.65 143.047 75.84 143.84 76.82L143.49 77.24C143.49 77.52 143.887 79.6667 144.68 83.68L143.84 84.52C144.54 85.08 147.223 85.4533 151.89 85.64L152.31 85.36C152.543 85.36 153.08 85.4533 153.92 85.64L155.04 85.36V85.64L161.06 84.52L161.48 84.94L161.06 85.36V86.48L161.48 87.74C161.2 87.74 158.913 88.1367 154.62 88.93ZM190.134 71.71L185.094 70.94L178.024 71.71C177.744 71.5233 177.441 71.4067 177.114 71.36C175.481 71.5933 174.384 71.71 173.824 71.71V70.03L173.404 68L174.664 67.09H176.764L177.114 67.58L177.534 67.09H178.794L179.214 67.58L182.154 66.74L187.194 67.58C188.034 67.58 194.684 66.6 207.144 64.64V65.06L215.124 63.38L216.244 68L215.124 69.26L208.404 68C207.284 68.3733 206.724 68.7933 206.724 69.26L205.114 68.77L203.014 69.26L202.524 68.77C202.524 69.5167 201.287 70.24 198.814 70.94L197.134 70.03L196.294 70.94L195.874 70.45L191.814 71.36V70.94L190.134 71.71ZM196.014 60.02H195.594C191.207 60.02 187.637 58.48 184.884 55.4L183.484 51.62L183.344 49.94C183.344 47.0933 184.441 45.4833 186.634 45.11L187.264 45.74C186.144 47.0933 185.561 48.26 185.514 49.24L186.144 52.46C187.124 54.7933 188.944 56.4033 191.604 57.29L195.174 58.06L197.904 57.08C197.671 56.9867 197.554 56.8233 197.554 56.59C198.254 54.77 198.814 53.86 199.234 53.86V50.57L199.654 47.84L199.234 47.63L199.654 47.35V46.79C199.654 42.4967 197.927 40.35 194.474 40.35C190.647 40.35 187.871 41.7033 186.144 44.41L184.884 44.48L184.674 43.78C185.841 40.7467 188.734 39.02 193.354 38.6H195.804C198.791 39.16 200.284 39.9767 200.284 41.05L200.004 41.33C200.564 41.33 201.357 42.0767 202.384 43.57L202.734 43.78L202.384 44.06V44.27L203.434 45.67L203.504 46.51C203.504 47.3033 203.387 48.0267 203.154 48.68C203.154 49.66 203.037 50.6167 202.804 51.55C202.337 52.0633 201.964 52.6467 201.684 53.3V54.7L201.334 55.19C201.334 55.4233 201.264 55.96 201.124 56.8L200.704 57.43C199.957 58.5967 198.394 59.46 196.014 60.02ZM233.768 75.42C231.901 75.42 230.128 75.35 228.448 75.21L228.098 74.72C227.818 74.72 226.815 74.8133 225.088 75L220.958 74.3C219.885 72.8067 219.348 71.5467 219.348 70.52L219.418 69.96L221.098 70.31H223.198L225.158 71.01L229.778 71.43L236.288 71.22L236.918 70.1L236.708 68.7L237.758 65.13L237.548 63.38C238.015 62.2133 238.691 61.63 239.578 61.63L240.068 61.7C240.721 62.82 241.141 64.4533 241.328 66.6C240.628 68.98 240.255 70.31 240.208 70.59L242.168 70.31L246.508 70.94L246.578 70.52C246.765 70.8 247.021 71.01 247.348 71.15C248.328 70.59 249.215 70.31 250.008 70.31L250.498 70.38C250.685 70.66 250.918 70.8467 251.198 70.94L252.178 70.31H252.598C252.738 70.59 252.971 70.8 253.298 70.94C253.438 70.1 254.138 69.4933 255.398 69.12L256.168 69.26L256.658 71.43L256.588 71.85C256.448 73.4833 254.091 74.3 249.518 74.3C243.638 75.0467 238.388 75.42 233.768 75.42ZM233.908 61.7H230.408L230.618 59.6L229.778 58.76V55.4L229.078 50.36L229.148 48.89L228.868 48.54V48.12L230.338 46.65H231.038L231.458 47L235.868 46.23L241.258 45.95L243.008 45.39C243.568 42.87 244.058 40.3267 244.478 37.76L243.988 36.08C243.755 34.4 243.265 33.56 242.518 33.56V32.37H243.358L246.718 31.95C246.765 33.77 246.905 35.5667 247.138 37.34C246.765 39.3467 246.485 41.33 246.298 43.29C245.878 45.11 245.551 46.93 245.318 48.75C241.351 48.9833 237.408 49.2633 233.488 49.59L232.648 52.53L233.698 58.76L235.378 58.2C236.125 58.3867 236.895 58.5267 237.688 58.62L239.648 58.55C241.281 58.27 242.891 57.92 244.478 57.5L248.188 57.08L247.418 60.65L244.478 60.93L244.198 60.51L242.938 61.28L241.328 61.56L238.108 61.28L233.908 61.7ZM227.608 39.3H225.578C225.298 39.1133 225.158 38.8333 225.158 38.46L226.208 36.57L234.328 34.68C235.448 34.4933 236.591 34.26 237.758 33.98L242.728 32.79L243.428 33.98L245.038 34.26V34.68L243.148 35.87C242.495 35.87 241.725 36.01 240.838 36.29V35.87L240.418 36.29L236.218 37.34L235.028 37.13L234.608 37.41H233.908C231.948 38.11 230.571 38.46 229.778 38.46L227.608 39.3Z" fill="white"/>
</svg>
