<svg width="1191" height="129" viewBox="0 0 1191 129" fill="none" xmlns="http://www.w3.org/2000/svg">
<rect width="1180" height="115" transform="translate(5 8)" fill="white"/>
<path d="M11.1827 83.7539C11.1827 80.8141 12.7283 78.1711 12.7283 75.3312C12.7283 72.3007 9.63701 69.7982 9.63701 66.8436C9.63701 60.9153 9.63701 54.987 9.63701 49.0587C9.63701 48.0682 6.79468 47.9102 6.54567 47.0178C6.22753 45.8776 6.54567 44.6666 6.54567 43.5191C6.54567 41.3324 5 39.2241 5 37.1049C5 31.6625 5 26.2201 5 20.7777" stroke="white" stroke-width="10" stroke-linecap="square" stroke-dasharray="20 20"/>
<path d="M15.0469 111.135C15.0469 110.198 16.5926 109.355 16.5926 108.449C16.5926 107.483 13.5013 106.685 13.5013 105.743C13.5013 103.853 13.5013 101.963 13.5013 100.073C13.5013 99.757 10.6589 99.7066 10.4099 99.422C10.0918 99.0585 10.4099 98.6724 10.4099 98.3065C10.4099 97.6093 8.86426 96.9371 8.86426 96.2614C8.86426 94.5262 8.86426 92.7909 8.86426 91.0556" stroke="white" stroke-width="10" stroke-linecap="square" stroke-dasharray="20 20"/>
<path d="M1179.59 80.1033C1179.59 77.1634 1181.14 74.5205 1181.14 71.6805C1181.14 68.6501 1178.04 66.1476 1178.04 63.193C1178.04 57.2647 1178.04 51.3364 1178.04 45.4081C1178.04 44.4175 1175.2 44.2596 1174.95 43.3672C1174.63 42.227 1174.95 41.016 1174.95 39.8685C1174.95 37.6818 1173.41 35.5734 1173.41 33.4542C1173.41 28.0119 1173.41 22.5695 1173.41 17.1271" stroke="white" stroke-width="10" stroke-linecap="square" stroke-dasharray="20 20"/>
<path d="M1183.45 107.484C1183.45 106.547 1185 105.704 1185 104.799C1185 103.832 1181.91 103.034 1181.91 102.092C1181.91 100.202 1181.91 98.3121 1181.91 96.4219C1181.91 96.1061 1179.07 96.0557 1178.82 95.7712C1178.5 95.4076 1178.82 95.0215 1178.82 94.6557C1178.82 93.9584 1177.27 93.2862 1177.27 92.6105C1177.27 90.8753 1177.27 89.14 1177.27 87.4048" stroke="white" stroke-width="10" stroke-linecap="square" stroke-dasharray="20 20"/>
<path d="M893.464 117.889C896.038 117.889 898.352 118.437 900.839 118.437C903.492 118.437 905.683 117.341 908.27 117.341C913.461 117.341 918.652 117.341 923.843 117.341C924.71 117.341 924.848 116.334 925.63 116.246C926.628 116.133 927.688 116.246 928.693 116.246C930.608 116.246 932.454 115.698 934.309 115.698C939.075 115.698 943.84 115.698 948.605 115.698" stroke="white" stroke-width="10" stroke-linecap="square" stroke-dasharray="20 20"/>
<path d="M1131.75 112.413C1134.19 112.413 1136.38 112.96 1138.73 112.96C1141.24 112.96 1143.32 111.865 1145.77 111.865C1150.68 111.865 1155.59 111.865 1160.51 111.865C1161.33 111.865 1161.46 110.858 1162.2 110.77C1163.14 110.657 1164.14 110.77 1165.1 110.77C1166.91 110.77 1168.66 110.222 1170.41 110.222C1174.92 110.222 1179.43 110.222 1183.94 110.222" stroke="white" stroke-width="10" stroke-linecap="square" stroke-dasharray="20 20"/>
<path d="M1072.67 113.325C1075.11 113.325 1077.3 113.873 1079.65 113.873C1082.16 113.873 1084.24 112.778 1086.69 112.778C1091.6 112.778 1096.51 112.778 1101.43 112.778C1102.25 112.778 1102.38 111.771 1103.12 111.683C1104.06 111.57 1105.06 111.683 1106.02 111.683C1107.83 111.683 1109.58 111.135 1111.33 111.135C1115.84 111.135 1120.35 111.135 1124.86 111.135" stroke="white" stroke-width="10" stroke-linecap="square" stroke-dasharray="20 20"/>
<path d="M1015.56 116.976C1018 116.976 1020.19 117.524 1022.54 117.524C1025.05 117.524 1027.13 116.429 1029.58 116.429C1034.49 116.429 1039.4 116.429 1044.31 116.429C1045.13 116.429 1045.27 115.421 1046.01 115.333C1046.95 115.221 1047.95 115.333 1048.9 115.333C1050.72 115.333 1052.46 114.786 1054.22 114.786C1058.73 114.786 1063.24 114.786 1067.75 114.786" stroke="white" stroke-width="10" stroke-linecap="square" stroke-dasharray="20 20"/>
<path d="M1008.67 117.889C1006.23 117.889 1004.04 118.437 1001.69 118.437C999.179 118.437 997.105 117.341 994.657 117.341C989.744 117.341 984.831 117.341 979.919 117.341C979.098 117.341 978.967 116.334 978.227 116.246C977.282 116.133 976.279 116.246 975.328 116.246C973.516 116.246 971.769 115.698 970.013 115.698C965.503 115.698 960.993 115.698 956.483 115.698" stroke="white" stroke-width="10" stroke-linecap="square" stroke-dasharray="20 20"/>
<path d="M357.805 118.071C355.231 118.071 352.916 117.524 350.43 117.524C347.776 117.524 345.585 118.619 342.998 118.619C337.807 118.619 332.617 118.619 327.426 118.619C326.559 118.619 326.42 119.626 325.639 119.714C324.641 119.827 323.58 119.714 322.575 119.714C320.661 119.714 318.815 120.262 316.959 120.262C312.194 120.262 307.429 120.262 302.663 120.262" stroke="white" stroke-width="10" stroke-linecap="square" stroke-dasharray="20 20"/>
<path d="M836.354 116.246C838.79 116.246 840.98 115.698 843.333 115.698C845.845 115.698 847.918 116.794 850.367 116.794C855.279 116.794 860.192 116.794 865.105 116.794C865.926 116.794 866.057 117.801 866.796 117.889C867.741 118.002 868.745 117.889 869.695 117.889C871.508 117.889 873.255 118.437 875.011 118.437C879.521 118.437 884.031 118.437 888.541 118.437" stroke="white" stroke-width="10" stroke-linecap="square" stroke-dasharray="20 20"/>
<path d="M777.273 115.333C779.71 115.333 781.9 114.786 784.253 114.786C786.765 114.786 788.838 115.881 791.287 115.881C796.199 115.881 801.112 115.881 806.025 115.881C806.846 115.881 806.977 116.888 807.716 116.976C808.661 117.089 809.664 116.976 810.615 116.976C812.427 116.976 814.175 117.524 815.931 117.524C820.441 117.524 824.951 117.524 829.461 117.524" stroke="white" stroke-width="10" stroke-linecap="square" stroke-dasharray="20 20"/>
<path d="M720.162 113.508C722.598 113.508 724.788 112.96 727.142 112.96C729.653 112.96 731.727 114.056 734.175 114.056C739.088 114.056 744.001 114.056 748.913 114.056C749.734 114.056 749.865 115.063 750.605 115.151C751.55 115.264 752.553 115.151 753.504 115.151C755.316 115.151 757.063 115.698 758.819 115.698C763.329 115.698 767.839 115.698 772.349 115.698" stroke="white" stroke-width="10" stroke-linecap="square" stroke-dasharray="20 20"/>
<path d="M713.271 115.333C710.834 115.333 708.644 114.786 706.291 114.786C703.779 114.786 701.706 115.881 699.257 115.881C694.345 115.881 689.432 115.881 684.519 115.881C683.698 115.881 683.567 116.888 682.828 116.976C681.883 117.089 680.88 116.976 679.929 116.976C678.116 116.976 676.369 117.524 674.613 117.524C670.103 117.524 665.593 117.524 661.083 117.524" stroke="white" stroke-width="10" stroke-linecap="square" stroke-dasharray="20 20"/>
<path d="M653.205 115.333C650.631 115.333 648.317 114.786 645.83 114.786C643.177 114.786 640.986 115.881 638.399 115.881C633.208 115.881 628.017 115.881 622.826 115.881C621.959 115.881 621.821 116.888 621.039 116.976C620.041 117.089 618.981 116.976 617.976 116.976C616.061 116.976 614.215 117.524 612.36 117.524C607.594 117.524 602.829 117.524 598.064 117.524" stroke="white" stroke-width="10" stroke-linecap="square" stroke-dasharray="20 20"/>
<path d="M414.916 118.984C412.48 118.984 410.29 118.436 407.936 118.436C405.425 118.436 403.351 119.532 400.903 119.532C395.99 119.532 391.077 119.532 386.165 119.532C385.344 119.532 385.213 120.539 384.473 120.627C383.529 120.74 382.525 120.627 381.574 120.627C379.762 120.627 378.015 121.175 376.259 121.175C371.749 121.175 367.239 121.175 362.729 121.175" stroke="white" stroke-width="10" stroke-linecap="square" stroke-dasharray="20 20"/>
<path d="M473.996 118.071C471.56 118.071 469.37 117.524 467.016 117.524C464.505 117.524 462.431 118.619 459.983 118.619C455.07 118.619 450.157 118.619 445.245 118.619C444.424 118.619 444.293 119.626 443.553 119.714C442.609 119.827 441.605 119.714 440.654 119.714C438.842 119.714 437.095 120.262 435.339 120.262C430.829 120.262 426.319 120.262 421.809 120.262" stroke="white" stroke-width="10" stroke-linecap="square" stroke-dasharray="20 20"/>
<path d="M531.106 114.421C528.67 114.421 526.48 113.873 524.127 113.873C521.615 113.873 519.542 114.968 517.093 114.968C512.18 114.968 507.268 114.968 502.355 114.968C501.534 114.968 501.403 115.975 500.664 116.063C499.719 116.176 498.715 116.063 497.765 116.063C495.952 116.063 494.205 116.611 492.449 116.611C487.939 116.611 483.429 116.611 478.919 116.611" stroke="white" stroke-width="10" stroke-linecap="square" stroke-dasharray="20 20"/>
<path d="M537.999 118.071C540.435 118.071 542.625 117.524 544.979 117.524C547.49 117.524 549.564 118.619 552.012 118.619C556.925 118.619 561.838 118.619 566.75 118.619C567.571 118.619 567.702 119.626 568.442 119.714C569.387 119.827 570.39 119.714 571.341 119.714C573.153 119.714 574.9 120.262 576.656 120.262C581.166 120.262 585.676 120.262 590.186 120.262" stroke="white" stroke-width="10" stroke-linecap="square" stroke-dasharray="20 20"/>
<path d="M246.626 120.81C249.2 120.81 251.514 120.262 254.001 120.262C256.654 120.262 258.845 121.357 261.432 121.357C266.623 121.357 271.814 121.357 277.005 121.357C277.872 121.357 278.01 122.364 278.792 122.452C279.79 122.565 280.85 122.452 281.855 122.452C283.77 122.452 285.616 123 287.471 123C292.237 123 297.002 123 301.767 123" stroke="white" stroke-width="10" stroke-linecap="square" stroke-dasharray="20 20"/>
<path d="M431.743 118.071C434.179 118.071 436.37 117.524 438.723 117.524C441.234 117.524 443.308 118.619 445.756 118.619C450.669 118.619 455.582 118.619 460.495 118.619C461.315 118.619 461.446 119.626 462.186 119.714C463.131 119.827 464.134 119.714 465.085 119.714C466.897 119.714 468.644 120.262 470.4 120.262C474.91 120.262 479.42 120.262 483.931 120.262" stroke="white" stroke-width="10" stroke-linecap="square" stroke-dasharray="20 20"/>
<path d="M364.786 114.421C362.212 114.421 359.898 113.873 357.411 113.873C354.758 113.873 352.567 114.968 349.98 114.968C344.789 114.968 339.598 114.968 334.407 114.968C333.54 114.968 333.402 115.975 332.62 116.063C331.622 116.176 330.562 116.063 329.557 116.063C327.642 116.063 325.796 116.611 323.941 116.611C319.175 116.611 314.41 116.611 309.645 116.611" stroke="white" stroke-width="10" stroke-linecap="square" stroke-dasharray="20 20"/>
<path d="M189.516 118.984C191.952 118.984 194.142 118.436 196.495 118.436C199.007 118.436 201.08 119.532 203.529 119.532C208.442 119.532 213.354 119.532 218.267 119.532C219.088 119.532 219.219 120.539 219.958 120.627C220.903 120.74 221.907 120.627 222.858 120.627C224.67 120.627 226.417 121.175 228.173 121.175C232.683 121.175 237.193 121.175 241.703 121.175" stroke="white" stroke-width="10" stroke-linecap="square" stroke-dasharray="20 20"/>
<path d="M130.436 118.071C132.872 118.071 135.062 117.524 137.415 117.524C139.927 117.524 142 118.619 144.449 118.619C149.362 118.619 154.274 118.619 159.187 118.619C160.008 118.619 160.139 119.626 160.878 119.714C161.823 119.827 162.827 119.714 163.777 119.714C165.59 119.714 167.337 120.262 169.093 120.262C173.603 120.262 178.113 120.262 182.623 120.262" stroke="white" stroke-width="10" stroke-linecap="square" stroke-dasharray="20 20"/>
<path d="M73.3242 117.159C75.7604 117.159 77.9506 116.611 80.304 116.611C82.8153 116.611 84.8891 117.706 87.3375 117.706C92.2502 117.706 97.1629 117.706 102.076 117.706C102.896 117.706 103.027 118.713 103.767 118.802C104.712 118.914 105.715 118.802 106.666 118.802C108.478 118.802 110.225 119.349 111.982 119.349C116.492 119.349 121.002 119.349 125.512 119.349" stroke="white" stroke-width="10" stroke-linecap="square" stroke-dasharray="20 20"/>
<path d="M66.4316 118.071C63.9954 118.071 61.8053 117.524 59.4518 117.524C56.9406 117.524 54.8668 118.619 52.4184 118.619C47.5057 118.619 42.593 118.619 37.6803 118.619C36.8594 118.619 36.7286 119.626 35.989 119.714C35.0442 119.827 34.0406 119.714 33.0897 119.714C31.2776 119.714 29.5305 120.262 27.7743 120.262C23.2643 120.262 18.7543 120.262 14.2443 120.262" stroke="white" stroke-width="10" stroke-linecap="square" stroke-dasharray="20 20"/>
<path d="M893.464 12.9285C896.038 12.9285 898.352 13.4761 900.839 13.4761C903.492 13.4761 905.683 12.3809 908.27 12.3809C913.461 12.3809 918.652 12.3809 923.843 12.3809C924.71 12.3809 924.848 11.3739 925.63 11.2857C926.628 11.1729 927.688 11.2857 928.693 11.2857C930.608 11.2857 932.454 10.738 934.309 10.738C939.075 10.738 943.84 10.738 948.605 10.738" stroke="white" stroke-width="10" stroke-linecap="square" stroke-dasharray="20 20"/>
<path d="M1131.21 12.0159C1132.97 12.0159 1134.56 12.5635 1136.26 12.5635C1138.08 12.5635 1139.58 11.4683 1141.35 11.4683C1144.9 11.4683 1148.46 11.4683 1152.02 11.4683C1152.61 11.4683 1152.7 10.4613 1153.24 10.3731C1153.92 10.2603 1154.65 10.3731 1155.34 10.3731C1156.65 10.3731 1157.91 9.82544 1159.18 9.82544C1162.45 9.82544 1165.71 9.82544 1168.98 9.82544" stroke="white" stroke-width="15" stroke-linecap="square" stroke-dasharray="20 20"/>
<path d="M1072.67 12.9285C1075.11 12.9285 1077.3 13.4761 1079.65 13.4761C1082.16 13.4761 1084.24 12.3809 1086.69 12.3809C1091.6 12.3809 1096.51 12.3809 1101.43 12.3809C1102.25 12.3809 1102.38 11.3739 1103.12 11.2857C1104.06 11.1729 1105.06 11.2857 1106.02 11.2857C1107.83 11.2857 1109.58 10.738 1111.33 10.738C1115.84 10.738 1120.35 10.738 1124.86 10.738" stroke="white" stroke-width="15" stroke-linecap="square" stroke-dasharray="20 20"/>
<path d="M1015.56 12.0159C1018 12.0159 1020.19 12.5635 1022.54 12.5635C1025.05 12.5635 1027.13 11.4683 1029.58 11.4683C1034.49 11.4683 1039.4 11.4683 1044.31 11.4683C1045.13 11.4683 1045.27 10.4613 1046.01 10.3731C1046.95 10.2603 1047.95 10.3731 1048.9 10.3731C1050.72 10.3731 1052.46 9.82544 1054.22 9.82544C1058.73 9.82544 1063.24 9.82544 1067.75 9.82544" stroke="white" stroke-width="10" stroke-linecap="square" stroke-dasharray="20 20"/>
<path d="M1008.67 12.9285C1006.23 12.9285 1004.04 13.4761 1001.69 13.4761C999.179 13.4761 997.105 12.3809 994.657 12.3809C989.744 12.3809 984.831 12.3809 979.919 12.3809C979.098 12.3809 978.967 11.3739 978.227 11.2857C977.282 11.1729 976.279 11.2857 975.328 11.2857C973.516 11.2857 971.769 10.738 970.013 10.738C965.503 10.738 960.993 10.738 956.483 10.738" stroke="white" stroke-width="10" stroke-linecap="square" stroke-dasharray="20 20"/>
<path d="M355.516 15.8493C352.942 15.8493 350.627 15.3017 348.141 15.3017C345.487 15.3017 343.296 16.3969 340.709 16.3969C335.518 16.3969 330.328 16.3969 325.137 16.3969C324.27 16.3969 324.131 17.404 323.35 17.4922C322.352 17.6049 321.291 17.4922 320.286 17.4922C318.372 17.4922 316.526 18.0398 314.67 18.0398C309.905 18.0398 305.14 18.0398 300.374 18.0398" stroke="white" stroke-width="10" stroke-linecap="square" stroke-dasharray="20 20"/>
<path d="M836.354 11.2856C838.79 11.2856 840.98 10.738 843.333 10.738C845.845 10.738 847.918 11.8332 850.367 11.8332C855.279 11.8332 860.192 11.8332 865.105 11.8332C865.926 11.8332 866.057 12.8402 866.796 12.9285C867.741 13.0412 868.745 12.9285 869.695 12.9285C871.508 12.9285 873.255 13.4761 875.011 13.4761C879.521 13.4761 884.031 13.4761 888.541 13.4761" stroke="white" stroke-width="10" stroke-linecap="square" stroke-dasharray="20 20"/>
<path d="M777.273 10.373C779.71 10.373 781.9 9.82538 784.253 9.82538C786.765 9.82538 788.838 10.9206 791.287 10.9206C796.199 10.9206 801.112 10.9206 806.025 10.9206C806.846 10.9206 806.977 11.9276 807.716 12.0159C808.661 12.1286 809.664 12.0159 810.615 12.0159C812.427 12.0159 814.175 12.5635 815.931 12.5635C820.441 12.5635 824.951 12.5635 829.461 12.5635" stroke="white" stroke-width="10" stroke-linecap="square" stroke-dasharray="20 20"/>
<path d="M720.162 8.54756C722.598 8.54756 724.788 7.99994 727.142 7.99994C729.653 7.99994 731.727 9.09518 734.175 9.09518C739.088 9.09518 744.001 9.09518 748.913 9.09518C749.734 9.09518 749.865 10.1022 750.605 10.1904C751.55 10.3031 752.553 10.1904 753.504 10.1904C755.316 10.1904 757.063 10.738 758.819 10.738C763.329 10.738 767.839 10.738 772.349 10.738" stroke="white" stroke-width="10" stroke-linecap="square" stroke-dasharray="20 20"/>
<path d="M713.271 12.1984C710.834 12.1984 708.644 11.6508 706.291 11.6508C703.779 11.6508 701.706 12.7461 699.257 12.7461C694.345 12.7461 689.432 12.7461 684.519 12.7461C683.698 12.7461 683.567 13.7531 682.828 13.8413C681.883 13.954 680.88 13.8413 679.929 13.8413C678.116 13.8413 676.369 14.3889 674.613 14.3889C670.103 14.3889 665.593 14.3889 661.083 14.3889" stroke="white" stroke-width="15" stroke-linecap="square" stroke-dasharray="20 20"/>
<path d="M653.205 12.1984C650.631 12.1984 648.317 11.6508 645.83 11.6508C643.177 11.6508 640.986 12.7461 638.399 12.7461C633.208 12.7461 628.017 12.7461 622.826 12.7461C621.959 12.7461 621.821 13.7531 621.039 13.8413C620.041 13.954 618.981 13.8413 617.976 13.8413C616.061 13.8413 614.215 14.3889 612.36 14.3889C607.594 14.3889 602.829 14.3889 598.064 14.3889" stroke="white" stroke-width="15" stroke-linecap="square" stroke-dasharray="20 20"/>
<path d="M412.627 14.0239C410.191 14.0239 408.001 13.4763 405.647 13.4763C403.136 13.4763 401.062 14.5715 398.614 14.5715C393.701 14.5715 388.788 14.5715 383.876 14.5715C383.055 14.5715 382.924 15.5785 382.184 15.6667C381.239 15.7794 380.236 15.6667 379.285 15.6667C377.473 15.6667 375.726 16.2144 373.97 16.2144C369.46 16.2144 364.95 16.2144 360.44 16.2144" stroke="white" stroke-width="10" stroke-linecap="square" stroke-dasharray="20 20"/>
<path d="M471.707 13.111C469.271 13.111 467.081 12.5634 464.727 12.5634C462.216 12.5634 460.142 13.6587 457.694 13.6587C452.781 13.6587 447.868 13.6587 442.956 13.6587C442.135 13.6587 442.004 14.6657 441.264 14.7539C440.32 14.8666 439.316 14.7539 438.365 14.7539C436.553 14.7539 434.806 15.3015 433.05 15.3015C428.54 15.3015 424.03 15.3015 419.52 15.3015" stroke="white" stroke-width="10" stroke-linecap="square" stroke-dasharray="20 20"/>
<path d="M528.817 9.4604C526.381 9.4604 524.191 8.91278 521.838 8.91278C519.326 8.91278 517.253 10.008 514.804 10.008C509.891 10.008 504.979 10.008 500.066 10.008C499.245 10.008 499.114 11.015 498.375 11.1033C497.43 11.216 496.426 11.1033 495.475 11.1033C493.663 11.1033 491.916 11.6509 490.16 11.6509C485.65 11.6509 481.14 11.6509 476.63 11.6509" stroke="white" stroke-width="15" stroke-linecap="square" stroke-dasharray="20 20"/>
<path d="M537.999 12.1984C540.435 12.1984 542.625 11.6508 544.979 11.6508C547.49 11.6508 549.564 12.7461 552.012 12.7461C556.925 12.7461 561.838 12.7461 566.75 12.7461C567.571 12.7461 567.702 13.7531 568.442 13.8413C569.387 13.954 570.39 13.8413 571.341 13.8413C573.153 13.8413 574.9 14.3889 576.656 14.3889C581.166 14.3889 585.676 14.3889 590.186 14.3889" stroke="white" stroke-width="15" stroke-linecap="square" stroke-dasharray="20 20"/>
<path d="M69.3857 14.9365C66.8116 14.9365 64.4975 14.3889 62.0109 14.3889C59.3574 14.3889 57.1663 15.4841 54.5793 15.4841C49.3885 15.4841 44.1977 15.4841 39.0069 15.4841C38.1396 15.4841 38.0014 16.4911 37.2199 16.5793C36.2216 16.692 35.1613 16.5793 34.1565 16.5793C32.2419 16.5793 30.3958 17.127 28.5403 17.127C23.775 17.127 19.0097 17.127 14.2444 17.127" stroke="white" stroke-width="10" stroke-linecap="square" stroke-dasharray="20 20"/>
<path d="M429.454 13.111C431.89 13.111 434.08 12.5634 436.434 12.5634C438.945 12.5634 441.019 13.6587 443.467 13.6587C448.38 13.6587 453.293 13.6587 458.205 13.6587C459.026 13.6587 459.157 14.6657 459.897 14.7539C460.842 14.8666 461.845 14.7539 462.796 14.7539C464.608 14.7539 466.355 15.3015 468.111 15.3015C472.621 15.3015 477.131 15.3015 481.641 15.3015" stroke="white" stroke-width="10" stroke-linecap="square" stroke-dasharray="20 20"/>
<path d="M362.497 12.1984C359.923 12.1984 357.609 11.6508 355.122 11.6508C352.469 11.6508 350.278 12.7461 347.691 12.7461C342.5 12.7461 337.309 12.7461 332.118 12.7461C331.251 12.7461 331.113 13.7531 330.331 13.8413C329.333 13.954 328.273 13.8413 327.268 13.8413C325.353 13.8413 323.507 14.3889 321.652 14.3889C316.886 14.3889 312.121 14.3889 307.356 14.3889" stroke="white" stroke-width="10" stroke-linecap="square" stroke-dasharray="20 20"/>
<path d="M126.497 13.111C124.061 13.111 121.871 12.5634 119.517 12.5634C117.006 12.5634 114.932 13.6587 112.484 13.6587C107.571 13.6587 102.658 13.6587 97.7457 13.6587C96.9249 13.6587 96.794 14.6657 96.0544 14.7539C95.1096 14.8666 94.1061 14.7539 93.1551 14.7539C91.343 14.7539 89.5959 15.3015 87.8398 15.3015C83.3297 15.3015 78.8197 15.3015 74.3097 15.3015" stroke="white" stroke-width="10" stroke-linecap="square" stroke-dasharray="20 20"/>
<path d="M185.577 12.1984C183.141 12.1984 180.951 11.6508 178.597 11.6508C176.086 11.6508 174.012 12.7461 171.564 12.7461C166.651 12.7461 161.738 12.7461 156.826 12.7461C156.005 12.7461 155.874 13.7531 155.135 13.8413C154.19 13.954 153.186 13.8413 152.235 13.8413C150.423 13.8413 148.676 14.3889 146.92 14.3889C142.41 14.3889 137.9 14.3889 133.39 14.3889" stroke="white" stroke-width="10" stroke-linecap="square" stroke-dasharray="20 20"/>
<path d="M242.687 13.111C240.251 13.111 238.061 12.5634 235.708 12.5634C233.196 12.5634 231.123 13.6587 228.674 13.6587C223.762 13.6587 218.849 13.6587 213.936 13.6587C213.115 13.6587 212.984 14.6657 212.245 14.7539C211.3 14.8666 210.297 14.7539 209.346 14.7539C207.533 14.7539 205.786 15.3015 204.03 15.3015C199.52 15.3015 195.01 15.3015 190.5 15.3015" stroke="white" stroke-width="10" stroke-linecap="square" stroke-dasharray="20 20"/>
<path d="M247.291 12.1984C249.727 12.1984 251.917 11.6508 254.271 11.6508C256.782 11.6508 258.856 12.7461 261.304 12.7461C266.217 12.7461 271.13 12.7461 276.042 12.7461C276.863 12.7461 276.994 13.7531 277.734 13.8413C278.678 13.954 279.682 13.8413 280.633 13.8413C282.445 13.8413 284.192 14.3889 285.948 14.3889C290.458 14.3889 294.968 14.3889 299.478 14.3889" stroke="white" stroke-width="10" stroke-linecap="square" stroke-dasharray="20 20"/>
</svg>
