<svg width="91" height="92" viewBox="0 0 91 92" fill="none" xmlns="http://www.w3.org/2000/svg">
<rect width="75" height="75" transform="translate(7 10)" fill="#00631C"/>
<path d="M7.39297 59.4048C7.39297 57.4875 7.49121 55.7638 7.49121 53.9117C7.49121 51.9353 7.29472 50.3032 7.29472 48.3763C7.29472 44.5101 7.29472 40.6438 7.29472 36.7775C7.29472 36.1315 7.11407 36.0285 7.09824 35.4465C7.07802 34.7029 7.09824 33.9131 7.09824 33.1647C7.09824 31.7386 7 30.3636 7 28.9815C7 25.4321 7 21.8827 7 18.3334" stroke="#00631C" stroke-width="10" stroke-linecap="square" stroke-dasharray="20 20"/>
<path d="M7.63808 77.262C7.63808 76.6507 7.73633 76.1011 7.73633 75.5105C7.73633 74.8804 7.53984 74.36 7.53984 73.7457C7.53984 72.5129 7.53984 71.2802 7.53984 70.0475C7.53984 69.8415 7.35919 69.8086 7.34336 69.6231C7.32314 69.386 7.34336 69.1342 7.34336 68.8956C7.34336 68.4409 7.24512 68.0025 7.24512 67.5618C7.24512 66.4301 7.24512 65.2984 7.24512 64.1667" stroke="#00631C" stroke-width="10" stroke-linecap="square" stroke-dasharray="20 20"/>
<path d="M81.6566 57.0239C81.6566 55.1066 81.7549 53.383 81.7549 51.5308C81.7549 49.5545 81.5584 47.9224 81.5584 45.9955C81.5584 42.1292 81.5584 38.2629 81.5584 34.3966C81.5584 33.7506 81.3777 33.6476 81.3619 33.0656C81.3417 32.322 81.3619 31.5322 81.3619 30.7838C81.3619 29.3577 81.2637 27.9827 81.2637 26.6006C81.2637 23.0513 81.2637 19.5019 81.2637 15.9525" stroke="#00631C" stroke-width="10" stroke-linecap="square" stroke-dasharray="20 20"/>
<path d="M81.9018 74.8809C81.9018 74.2695 82 73.72 82 73.1294C82 72.4993 81.8035 71.9789 81.8035 71.3645C81.8035 70.1318 81.8035 68.8991 81.8035 67.6664C81.8035 67.4604 81.6229 67.4275 81.607 67.242C81.5868 67.0049 81.607 66.7531 81.607 66.5145C81.607 66.0597 81.5088 65.6213 81.5088 65.1807C81.5088 64.049 81.5088 62.9173 81.5088 61.7856" stroke="#00631C" stroke-width="10" stroke-linecap="square" stroke-dasharray="20 20"/>
<path d="M63.4697 81.6666C63.6333 81.6666 63.7804 82.0237 63.9385 82.0237C64.1071 82.0237 64.2464 81.3095 64.4108 81.3095C64.7407 81.3095 65.0707 81.3095 65.4006 81.3095C65.4557 81.3095 65.4645 80.6527 65.5142 80.5952C65.5776 80.5217 65.645 80.5952 65.7089 80.5952C65.8306 80.5952 65.9479 80.238 66.0658 80.238C66.3687 80.238 66.6716 80.238 66.9745 80.238" stroke="#00631C" stroke-width="10" stroke-linecap="square" stroke-dasharray="20 20"/>
<path d="M78.6152 78.0953C78.7701 78.0953 78.9093 78.4525 79.0589 78.4525C79.2185 78.4525 79.3503 77.7382 79.5059 77.7382C79.8182 77.7382 80.1304 77.7382 80.4427 77.7382C80.4948 77.7382 80.5031 77.0814 80.5501 77.0239C80.6102 76.9504 80.674 77.0239 80.7344 77.0239C80.8496 77.0239 80.9606 76.6667 81.0723 76.6667C81.3589 76.6667 81.6456 76.6667 81.9322 76.6667" stroke="#00631C" stroke-width="10" stroke-linecap="square" stroke-dasharray="20 20"/>
<path d="M74.8604 78.6905C75.0152 78.6905 75.1544 79.0477 75.304 79.0477C75.4636 79.0477 75.5954 78.3334 75.751 78.3334C76.0633 78.3334 76.3755 78.3334 76.6878 78.3334C76.7399 78.3334 76.7483 77.6766 76.7953 77.6191C76.8553 77.5456 76.9191 77.6191 76.9795 77.6191C77.0947 77.6191 77.2058 77.262 77.3174 77.262C77.604 77.262 77.8907 77.262 78.1773 77.262" stroke="#00631C" stroke-width="10" stroke-linecap="square" stroke-dasharray="20 20"/>
<path d="M71.2305 81.0714C71.3853 81.0714 71.5245 81.4285 71.6741 81.4285C71.8337 81.4285 71.9655 80.7142 72.1211 80.7142C72.4334 80.7142 72.7456 80.7142 73.0579 80.7142C73.1101 80.7142 73.1184 80.0575 73.1654 80C73.2254 79.9265 73.2892 80 73.3497 80C73.4648 80 73.5759 79.6428 73.6875 79.6428C73.9742 79.6428 74.2608 79.6428 74.5475 79.6428" stroke="#00631C" stroke-width="10" stroke-linecap="square" stroke-dasharray="20 20"/>
<path d="M70.793 81.6666C70.6381 81.6666 70.4989 82.0237 70.3493 82.0237C70.1897 82.0237 70.0579 81.3095 69.9023 81.3095C69.59 81.3095 69.2778 81.3095 68.9656 81.3095C68.9134 81.3095 68.9051 80.6527 68.8581 80.5952C68.798 80.5217 68.7342 80.5952 68.6738 80.5952C68.5586 80.5952 68.4476 80.238 68.3359 80.238C68.0493 80.238 67.7626 80.238 67.476 80.238" stroke="#00631C" stroke-width="10" stroke-linecap="square" stroke-dasharray="20 20"/>
<path d="M29.4238 81.7858C29.2602 81.7858 29.1131 81.4286 28.9551 81.4286C28.7864 81.4286 28.6472 82.1429 28.4827 82.1429C28.1528 82.1429 27.8229 82.1429 27.493 82.1429C27.4378 82.1429 27.4291 82.7997 27.3794 82.8572C27.3159 82.9307 27.2485 82.8572 27.1847 82.8572C27.063 82.8572 26.9457 83.2144 26.8277 83.2144C26.5248 83.2144 26.222 83.2144 25.9191 83.2144" stroke="#00631C" stroke-width="10" stroke-linecap="square" stroke-dasharray="20 20"/>
<path d="M59.8398 80.5954C59.9947 80.5954 60.1339 80.2382 60.2835 80.2382C60.4431 80.2382 60.5749 80.9525 60.7305 80.9525C61.0428 80.9525 61.355 80.9525 61.6673 80.9525C61.7194 80.9525 61.7278 81.6092 61.7748 81.6668C61.8348 81.7403 61.8986 81.6668 61.959 81.6668C62.0742 81.6668 62.1853 82.0239 62.2969 82.0239C62.5835 82.0239 62.8702 82.0239 63.1568 82.0239" stroke="#00631C" stroke-width="10" stroke-linecap="square" stroke-dasharray="20 20"/>
<path d="M56.085 79.9999C56.2398 79.9999 56.379 79.6428 56.5286 79.6428C56.6882 79.6428 56.82 80.357 56.9756 80.357C57.2879 80.357 57.6001 80.357 57.9124 80.357C57.9646 80.357 57.9729 81.0138 58.0199 81.0713C58.0799 81.1448 58.1437 81.0713 58.2042 81.0713C58.3193 81.0713 58.4304 81.4285 58.542 81.4285C58.8286 81.4285 59.1153 81.4285 59.402 81.4285" stroke="#00631C" stroke-width="10" stroke-linecap="square" stroke-dasharray="20 20"/>
<path d="M52.4551 78.8095C52.6099 78.8095 52.7491 78.4523 52.8987 78.4523C53.0583 78.4523 53.1901 79.1666 53.3458 79.1666C53.658 79.1666 53.9702 79.1666 54.2825 79.1666C54.3347 79.1666 54.343 79.8234 54.39 79.8809C54.45 79.9544 54.5138 79.8809 54.5743 79.8809C54.6894 79.8809 54.8005 80.238 54.9121 80.238C55.1988 80.238 55.4854 80.238 55.7721 80.238" stroke="#00631C" stroke-width="10" stroke-linecap="square" stroke-dasharray="20 20"/>
<path d="M52.0176 79.9999C51.8627 79.9999 51.7235 79.6428 51.5739 79.6428C51.4143 79.6428 51.2825 80.357 51.1269 80.357C50.8147 80.357 50.5024 80.357 50.1902 80.357C50.138 80.357 50.1297 81.0138 50.0827 81.0713C50.0226 81.1448 49.9588 81.0713 49.8984 81.0713C49.7832 81.0713 49.6722 81.4285 49.5605 81.4285C49.2739 81.4285 48.9872 81.4285 48.7006 81.4285" stroke="#00631C" stroke-width="10" stroke-linecap="square" stroke-dasharray="20 20"/>
<path d="M48.1992 79.9999C48.0356 79.9999 47.8885 79.6428 47.7305 79.6428C47.5618 79.6428 47.4226 80.357 47.2581 80.357C46.9282 80.357 46.5983 80.357 46.2684 80.357C46.2132 80.357 46.2044 81.0138 46.1548 81.0713C46.0913 81.1448 46.0239 81.0713 45.9601 81.0713C45.8384 81.0713 45.721 81.4285 45.6031 81.4285C45.3002 81.4285 44.9973 81.4285 44.6945 81.4285" stroke="#00631C" stroke-width="10" stroke-linecap="square" stroke-dasharray="20 20"/>
<path d="M33.0537 82.381C32.8989 82.381 32.7597 82.0239 32.6101 82.0239C32.4505 82.0239 32.3187 82.7381 32.163 82.7381C31.8508 82.7381 31.5385 82.7381 31.2263 82.7381C31.1741 82.7381 31.1658 83.3949 31.1188 83.4524C31.0587 83.5259 30.995 83.4524 30.9345 83.4524C30.8193 83.4524 30.7083 83.8096 30.5967 83.8096C30.31 83.8096 30.0234 83.8096 29.7367 83.8096" stroke="#00631C" stroke-width="10" stroke-linecap="square" stroke-dasharray="20 20"/>
<path d="M36.8086 81.7858C36.6538 81.7858 36.5145 81.4286 36.365 81.4286C36.2053 81.4286 36.0735 82.1429 35.9179 82.1429C35.6057 82.1429 35.2934 82.1429 34.9812 82.1429C34.929 82.1429 34.9207 82.7997 34.8737 82.8572C34.8136 82.9307 34.7498 82.8572 34.6894 82.8572C34.5742 82.8572 34.4632 83.2144 34.3516 83.2144C34.0649 83.2144 33.7783 83.2144 33.4916 83.2144" stroke="#00631C" stroke-width="10" stroke-linecap="square" stroke-dasharray="20 20"/>
<path d="M40.4395 79.4047C40.2846 79.4047 40.1454 79.0475 39.9958 79.0475C39.8362 79.0475 39.7044 79.7618 39.5488 79.7618C39.2365 79.7618 38.9243 79.7618 38.612 79.7618C38.5599 79.7618 38.5515 80.4186 38.5045 80.4761C38.4445 80.5496 38.3807 80.4761 38.3203 80.4761C38.2051 80.4761 38.094 80.8333 37.9824 80.8333C37.6958 80.8333 37.4091 80.8333 37.1225 80.8333" stroke="#00631C" stroke-width="10" stroke-linecap="square" stroke-dasharray="20 20"/>
<path d="M40.877 81.7858C41.0318 81.7858 41.171 81.4286 41.3206 81.4286C41.4802 81.4286 41.612 82.1429 41.7676 82.1429C42.0799 82.1429 42.3921 82.1429 42.7044 82.1429C42.7565 82.1429 42.7649 82.7997 42.8119 82.8572C42.8719 82.9307 42.9357 82.8572 42.9961 82.8572C43.1113 82.8572 43.2224 83.2144 43.334 83.2144C43.6206 83.2144 43.9073 83.2144 44.1939 83.2144" stroke="#00631C" stroke-width="10" stroke-linecap="square" stroke-dasharray="20 20"/>
<path d="M22.3574 83.5714C22.521 83.5714 22.6681 83.2143 22.8262 83.2143C22.9948 83.2143 23.1341 83.9286 23.2985 83.9286C23.6284 83.9286 23.9584 83.9286 24.2883 83.9286C24.3434 83.9286 24.3522 84.5853 24.4019 84.6429C24.4653 84.7164 24.5327 84.6429 24.5966 84.6429C24.7183 84.6429 24.8356 85 24.9535 85C25.2564 85 25.5593 85 25.8622 85" stroke="#00631C" stroke-width="10" stroke-linecap="square" stroke-dasharray="20 20"/>
<path d="M34.123 81.7858C34.2779 81.7858 34.4171 81.4286 34.5667 81.4286C34.7263 81.4286 34.8581 82.1429 35.0137 82.1429C35.326 82.1429 35.6382 82.1429 35.9505 82.1429C36.0026 82.1429 36.011 82.7997 36.058 82.8572C36.118 82.9307 36.1818 82.8572 36.2422 82.8572C36.3574 82.8572 36.4685 83.2144 36.5801 83.2144C36.8667 83.2144 37.1534 83.2144 37.44 83.2144" stroke="#00631C" stroke-width="10" stroke-linecap="square" stroke-dasharray="20 20"/>
<path d="M29.8682 79.4047C29.7046 79.4047 29.5575 79.0475 29.3994 79.0475C29.2308 79.0475 29.0915 79.7618 28.9271 79.7618C28.5972 79.7618 28.2672 79.7618 27.9373 79.7618C27.8822 79.7618 27.8734 80.4186 27.8237 80.4761C27.7603 80.5496 27.6929 80.4761 27.629 80.4761C27.5073 80.4761 27.39 80.8333 27.2721 80.8333C26.9692 80.8333 26.6663 80.8333 26.3634 80.8333" stroke="#00631C" stroke-width="10" stroke-linecap="square" stroke-dasharray="20 20"/>
<path d="M18.7275 82.381C18.8824 82.381 19.0216 82.0239 19.1712 82.0239C19.3308 82.0239 19.4626 82.7381 19.6182 82.7381C19.9305 82.7381 20.2427 82.7381 20.555 82.7381C20.6071 82.7381 20.6154 83.3949 20.6625 83.4524C20.7225 83.5259 20.7863 83.4524 20.8467 83.4524C20.9619 83.4524 21.073 83.8096 21.1846 83.8096C21.4712 83.8096 21.7579 83.8096 22.0445 83.8096" stroke="#00631C" stroke-width="10" stroke-linecap="square" stroke-dasharray="20 20"/>
<path d="M14.9727 81.7858C15.1275 81.7858 15.2667 81.4286 15.4163 81.4286C15.5759 81.4286 15.7077 82.1429 15.8633 82.1429C16.1756 82.1429 16.4878 82.1429 16.8001 82.1429C16.8522 82.1429 16.8606 82.7997 16.9076 82.8572C16.9676 82.9307 17.0314 82.8572 17.0918 82.8572C17.207 82.8572 17.3181 83.2144 17.4297 83.2144C17.7163 83.2144 18.003 83.2144 18.2897 83.2144" stroke="#00631C" stroke-width="10" stroke-linecap="square" stroke-dasharray="20 20"/>
<path d="M11.3428 81.1906C11.4976 81.1906 11.6368 80.8334 11.7864 80.8334C11.946 80.8334 12.0778 81.5477 12.2334 81.5477C12.5457 81.5477 12.8579 81.5477 13.1702 81.5477C13.2224 81.5477 13.2307 82.2045 13.2777 82.262C13.3377 82.3355 13.4015 82.262 13.462 82.262C13.5771 82.262 13.6882 82.6191 13.7998 82.6191C14.0865 82.6191 14.3731 82.6191 14.6598 82.6191" stroke="#00631C" stroke-width="10" stroke-linecap="square" stroke-dasharray="20 20"/>
<path d="M10.9043 81.7858C10.7495 81.7858 10.6102 81.4286 10.4607 81.4286C10.3011 81.4286 10.1692 82.1429 10.0136 82.1429C9.70137 82.1429 9.38913 82.1429 9.07688 82.1429C9.02471 82.1429 9.01639 82.7997 8.96938 82.8572C8.90933 82.9307 8.84555 82.8572 8.78511 82.8572C8.66993 82.8572 8.55888 83.2144 8.44726 83.2144C8.16061 83.2144 7.87396 83.2144 7.5873 83.2144" stroke="#00631C" stroke-width="10" stroke-linecap="square" stroke-dasharray="20 20"/>
<path d="M63.4697 13.2142C63.6333 13.2142 63.7804 13.5714 63.9385 13.5714C64.1071 13.5714 64.2464 12.8571 64.4108 12.8571C64.7407 12.8571 65.0707 12.8571 65.4006 12.8571C65.4557 12.8571 65.4645 12.2003 65.5142 12.1428C65.5776 12.0693 65.645 12.1428 65.7089 12.1428C65.8306 12.1428 65.9479 11.7856 66.0658 11.7856C66.3687 11.7856 66.6716 11.7856 66.9745 11.7856" stroke="#00631C" stroke-width="10" stroke-linecap="square" stroke-dasharray="20 20"/>
<path d="M78.5811 12.619C78.6931 12.619 78.7939 12.9761 78.9021 12.9761C79.0176 12.9761 79.113 12.2619 79.2257 12.2619C79.4516 12.2619 79.6776 12.2619 79.9036 12.2619C79.9414 12.2619 79.9474 11.6051 79.9814 11.5476C80.0249 11.4741 80.071 11.5476 80.1148 11.5476C80.1981 11.5476 80.2785 11.1904 80.3593 11.1904C80.5667 11.1904 80.7742 11.1904 80.9816 11.1904" stroke="#00631C" stroke-width="15" stroke-linecap="square" stroke-dasharray="20 20"/>
<path d="M74.8604 13.2142C75.0152 13.2142 75.1544 13.5714 75.304 13.5714C75.4636 13.5714 75.5954 12.8571 75.751 12.8571C76.0633 12.8571 76.3755 12.8571 76.6878 12.8571C76.7399 12.8571 76.7483 12.2003 76.7953 12.1428C76.8553 12.0693 76.9191 12.1428 76.9795 12.1428C77.0947 12.1428 77.2058 11.7856 77.3174 11.7856C77.604 11.7856 77.8907 11.7856 78.1773 11.7856" stroke="#00631C" stroke-width="15" stroke-linecap="square" stroke-dasharray="20 20"/>
<path d="M71.2305 12.619C71.3853 12.619 71.5245 12.9761 71.6741 12.9761C71.8337 12.9761 71.9655 12.2619 72.1211 12.2619C72.4334 12.2619 72.7456 12.2619 73.0579 12.2619C73.1101 12.2619 73.1184 11.6051 73.1654 11.5476C73.2254 11.4741 73.2892 11.5476 73.3497 11.5476C73.4648 11.5476 73.5759 11.1904 73.6875 11.1904C73.9742 11.1904 74.2608 11.1904 74.5475 11.1904" stroke="#00631C" stroke-width="10" stroke-linecap="square" stroke-dasharray="20 20"/>
<path d="M70.793 13.2142C70.6381 13.2142 70.4989 13.5714 70.3493 13.5714C70.1897 13.5714 70.0579 12.8571 69.9023 12.8571C69.59 12.8571 69.2778 12.8571 68.9656 12.8571C68.9134 12.8571 68.9051 12.2003 68.8581 12.1428C68.798 12.0693 68.7342 12.1428 68.6738 12.1428C68.5586 12.1428 68.4476 11.7856 68.3359 11.7856C68.0493 11.7856 67.7626 11.7856 67.476 11.7856" stroke="#00631C" stroke-width="10" stroke-linecap="square" stroke-dasharray="20 20"/>
<path d="M29.2783 15.119C29.1147 15.119 28.9676 14.7619 28.8096 14.7619C28.6409 14.7619 28.5017 15.4762 28.3372 15.4762C28.0073 15.4762 27.6774 15.4762 27.3475 15.4762C27.2923 15.4762 27.2836 16.1329 27.2339 16.1905C27.1704 16.264 27.103 16.1905 27.0392 16.1905C26.9175 16.1905 26.8001 16.5476 26.6822 16.5476C26.3793 16.5476 26.0765 16.5476 25.7736 16.5476" stroke="#00631C" stroke-width="10" stroke-linecap="square" stroke-dasharray="20 20"/>
<path d="M59.8398 12.143C59.9947 12.143 60.1339 11.7858 60.2835 11.7858C60.4431 11.7858 60.5749 12.5001 60.7305 12.5001C61.0428 12.5001 61.355 12.5001 61.6673 12.5001C61.7194 12.5001 61.7278 13.1569 61.7748 13.2144C61.8348 13.2879 61.8986 13.2144 61.959 13.2144C62.0742 13.2144 62.1853 13.5715 62.2969 13.5715C62.5835 13.5715 62.8702 13.5715 63.1568 13.5715" stroke="#00631C" stroke-width="10" stroke-linecap="square" stroke-dasharray="20 20"/>
<path d="M56.085 11.5475C56.2398 11.5475 56.379 11.1904 56.5286 11.1904C56.6882 11.1904 56.82 11.9046 56.9756 11.9046C57.2879 11.9046 57.6001 11.9046 57.9124 11.9046C57.9646 11.9046 57.9729 12.5614 58.0199 12.6189C58.0799 12.6924 58.1437 12.6189 58.2042 12.6189C58.3193 12.6189 58.4304 12.9761 58.542 12.9761C58.8286 12.9761 59.1153 12.9761 59.402 12.9761" stroke="#00631C" stroke-width="10" stroke-linecap="square" stroke-dasharray="20 20"/>
<path d="M52.4551 10.3571C52.6099 10.3571 52.7491 9.99993 52.8987 9.99993C53.0583 9.99993 53.1901 10.7142 53.3458 10.7142C53.658 10.7142 53.9702 10.7142 54.2825 10.7142C54.3347 10.7142 54.343 11.371 54.39 11.4285C54.45 11.502 54.5138 11.4285 54.5743 11.4285C54.6894 11.4285 54.8005 11.7856 54.9121 11.7856C55.1988 11.7856 55.4854 11.7856 55.7721 11.7856" stroke="#00631C" stroke-width="10" stroke-linecap="square" stroke-dasharray="20 20"/>
<path d="M52.0176 12.7382C51.8627 12.7382 51.7235 12.381 51.5739 12.381C51.4143 12.381 51.2825 13.0953 51.1269 13.0953C50.8147 13.0953 50.5024 13.0953 50.1902 13.0953C50.138 13.0953 50.1297 13.7521 50.0827 13.8096C50.0226 13.8831 49.9588 13.8096 49.8984 13.8096C49.7832 13.8096 49.6722 14.1667 49.5605 14.1667C49.2739 14.1667 48.9872 14.1667 48.7006 14.1667" stroke="#00631C" stroke-width="15" stroke-linecap="square" stroke-dasharray="20 20"/>
<path d="M48.1992 12.7382C48.0356 12.7382 47.8885 12.381 47.7305 12.381C47.5618 12.381 47.4226 13.0953 47.2581 13.0953C46.9282 13.0953 46.5983 13.0953 46.2684 13.0953C46.2132 13.0953 46.2044 13.7521 46.1548 13.8096C46.0913 13.8831 46.0239 13.8096 45.9601 13.8096C45.8384 13.8096 45.721 14.1667 45.6031 14.1667C45.3002 14.1667 44.9973 14.1667 44.6945 14.1667" stroke="#00631C" stroke-width="15" stroke-linecap="square" stroke-dasharray="20 20"/>
<path d="M32.9082 13.9286C32.7534 13.9286 32.6142 13.5715 32.4646 13.5715C32.305 13.5715 32.1731 14.2857 32.0175 14.2857C31.7053 14.2857 31.393 14.2857 31.0808 14.2857C31.0286 14.2857 31.0203 14.9425 30.9733 15C30.9132 15.0735 30.8495 15 30.789 15C30.6738 15 30.5628 15.3572 30.4512 15.3572C30.1645 15.3572 29.8779 15.3572 29.5912 15.3572" stroke="#00631C" stroke-width="10" stroke-linecap="square" stroke-dasharray="20 20"/>
<path d="M36.6631 13.3334C36.5082 13.3334 36.369 12.9762 36.2195 12.9762C36.0598 12.9762 35.928 13.6905 35.7724 13.6905C35.4602 13.6905 35.1479 13.6905 34.8357 13.6905C34.7835 13.6905 34.7752 14.3473 34.7282 14.4048C34.6681 14.4783 34.6043 14.4048 34.5439 14.4048C34.4287 14.4048 34.3177 14.762 34.2061 14.762C33.9194 14.762 33.6327 14.762 33.3461 14.762" stroke="#00631C" stroke-width="10" stroke-linecap="square" stroke-dasharray="20 20"/>
<path d="M40.2939 10.9523C40.1391 10.9523 39.9999 10.5951 39.8503 10.5951C39.6907 10.5951 39.5589 11.3094 39.4033 11.3094C39.091 11.3094 38.7788 11.3094 38.4665 11.3094C38.4144 11.3094 38.406 11.9662 38.359 12.0237C38.299 12.0972 38.2352 12.0237 38.1748 12.0237C38.0596 12.0237 37.9485 12.3809 37.8369 12.3809C37.5503 12.3809 37.2636 12.3809 36.977 12.3809" stroke="#00631C" stroke-width="15" stroke-linecap="square" stroke-dasharray="20 20"/>
<path d="M40.877 12.7382C41.0318 12.7382 41.171 12.381 41.3206 12.381C41.4802 12.381 41.612 13.0953 41.7676 13.0953C42.0799 13.0953 42.3921 13.0953 42.7044 13.0953C42.7565 13.0953 42.7649 13.7521 42.8119 13.8096C42.8719 13.8831 42.9357 13.8096 42.9961 13.8096C43.1113 13.8096 43.2224 14.1667 43.334 14.1667C43.6206 14.1667 43.9073 14.1667 44.1939 14.1667" stroke="#00631C" stroke-width="15" stroke-linecap="square" stroke-dasharray="20 20"/>
<path d="M11.0928 14.5238C10.9292 14.5238 10.7821 14.1667 10.624 14.1667C10.4554 14.1667 10.3161 14.881 10.1517 14.881C9.82176 14.881 9.49184 14.881 9.16192 14.881C9.10679 14.881 9.098 15.5377 9.04834 15.5952C8.98488 15.6688 8.91749 15.5952 8.85363 15.5952C8.73193 15.5952 8.6146 15.9524 8.49666 15.9524C8.19378 15.9524 7.89091 15.9524 7.58803 15.9524" stroke="#00631C" stroke-width="10" stroke-linecap="square" stroke-dasharray="20 20"/>
<path d="M33.9785 13.3334C34.1334 13.3334 34.2726 12.9762 34.4221 12.9762C34.5818 12.9762 34.7136 13.6905 34.8692 13.6905C35.1814 13.6905 35.4937 13.6905 35.8059 13.6905C35.8581 13.6905 35.8664 14.3473 35.9134 14.4048C35.9735 14.4783 36.0373 14.4048 36.0977 14.4048C36.2129 14.4048 36.3239 14.762 36.4355 14.762C36.7222 14.762 37.0089 14.762 37.2955 14.762" stroke="#00631C" stroke-width="10" stroke-linecap="square" stroke-dasharray="20 20"/>
<path d="M29.7227 12.7382C29.559 12.7382 29.412 12.381 29.2539 12.381C29.0853 12.381 28.946 13.0953 28.7816 13.0953C28.4516 13.0953 28.1217 13.0953 27.7918 13.0953C27.7367 13.0953 27.7279 13.7521 27.6782 13.8096C27.6148 13.8831 27.5474 13.8096 27.4835 13.8096C27.3618 13.8096 27.2445 14.1667 27.1265 14.1667C26.8237 14.1667 26.5208 14.1667 26.2179 14.1667" stroke="#00631C" stroke-width="10" stroke-linecap="square" stroke-dasharray="20 20"/>
<path d="M14.7227 13.3334C14.5678 13.3334 14.4286 12.9762 14.279 12.9762C14.1194 12.9762 13.9876 13.6905 13.832 13.6905C13.5197 13.6905 13.2075 13.6905 12.8952 13.6905C12.8431 13.6905 12.8347 14.3473 12.7877 14.4048C12.7277 14.4783 12.6639 14.4048 12.6035 14.4048C12.4883 14.4048 12.3772 14.762 12.2656 14.762C11.979 14.762 11.6923 14.762 11.4057 14.762" stroke="#00631C" stroke-width="10" stroke-linecap="square" stroke-dasharray="20 20"/>
<path d="M18.4775 12.7382C18.3227 12.7382 18.1835 12.381 18.0339 12.381C17.8743 12.381 17.7425 13.0953 17.5869 13.0953C17.2746 13.0953 16.9624 13.0953 16.6501 13.0953C16.598 13.0953 16.5896 13.7521 16.5426 13.8096C16.4826 13.8831 16.4188 13.8096 16.3583 13.8096C16.2432 13.8096 16.1321 14.1667 16.0205 14.1667C15.7339 14.1667 15.4472 14.1667 15.1605 14.1667" stroke="#00631C" stroke-width="10" stroke-linecap="square" stroke-dasharray="20 20"/>
<path d="M22.1074 13.3334C21.9526 13.3334 21.8134 12.9762 21.6638 12.9762C21.5042 12.9762 21.3724 13.6905 21.2167 13.6905C20.9045 13.6905 20.5923 13.6905 20.28 13.6905C20.2278 13.6905 20.2195 14.3473 20.1725 14.4048C20.1125 14.4783 20.0487 14.4048 19.9882 14.4048C19.8731 14.4048 19.762 14.762 19.6504 14.762C19.3637 14.762 19.0771 14.762 18.7904 14.762" stroke="#00631C" stroke-width="10" stroke-linecap="square" stroke-dasharray="20 20"/>
<path d="M22.3994 12.7382C22.5543 12.7382 22.6935 12.381 22.843 12.381C23.0027 12.381 23.1345 13.0953 23.2901 13.0953C23.6023 13.0953 23.9146 13.0953 24.2268 13.0953C24.279 13.0953 24.2873 13.7521 24.3343 13.8096C24.3944 13.8831 24.4582 13.8096 24.5186 13.8096C24.6338 13.8096 24.7448 14.1667 24.8564 14.1667C25.1431 14.1667 25.4298 14.1667 25.7164 14.1667" stroke="#00631C" stroke-width="10" stroke-linecap="square" stroke-dasharray="20 20"/>
</svg>
