<svg width="162" height="162" viewBox="0 0 162 162" fill="none" xmlns="http://www.w3.org/2000/svg">
<path d="M87.8531 88.6C87.8531 88.2 87.6531 87.4 87.2531 86.2L87.8531 85.7L87.2531 85.1H86.7531C87.8865 80.5 88.4531 74.5 88.4531 67.1C85.2531 67.1 80.7531 65.1667 74.9531 61.3H74.3531L74.9531 64.7L74.3531 65.3C74.3531 65.7 74.5531 67.0667 74.9531 69.4H74.3531L74.9531 70C74.9531 70.4667 74.7531 70.8667 74.3531 71.2L75.5531 74L73.7531 75.2L74.3531 75.8V77C74.0198 76.6 73.6198 76.4 73.1531 76.4V77.5H74.3531V85.1L74.9531 88L74.3531 88.6C73.8865 88.6 73.4865 88.4 73.1531 88L72.5531 88.6H69.0531L68.4531 86.8L69.6531 76.4L69.0531 69.4H69.6531L69.0531 68.9L69.6531 67.1L68.4531 56.6L69.0531 55L68.4531 51.5H69.0531L68.4531 50.9V44.5L67.8531 37.6L69.6531 36.4H71.9531L73.1531 37.6L72.5531 38.2L73.1531 38.8V40.4C72.7531 40.7333 72.5531 41.1333 72.5531 41.6H73.7531L73.1531 44.5C73.5531 49.1667 74.1531 51.8667 74.9531 52.6L74.3531 54.4C74.7531 54.7333 74.9531 55.1333 74.9531 55.6L74.3531 57.2L75.5531 58.4L74.3531 59.6C74.7531 59.6 76.0865 59.2 78.3531 58.4C79.0865 59.9333 80.8865 60.7 83.7531 60.7V61.3L84.3531 60.7H86.1531L86.7531 61.3L87.2531 60.7H88.4531C88.7865 61.1 89.1865 61.3 89.6531 61.3C90.6531 50.3 91.6865 43 92.7531 39.4L92.1531 38.8L92.7531 34.1L92.1531 32.5L93.9531 31.3C95.4865 32.5 96.2531 34.1333 96.2531 36.2V39.1C96.5865 40.3 96.7531 41.5667 96.7531 42.9C96.7531 46.0333 95.9198 49.4667 94.2531 53.2C94.6531 53.5333 94.8531 53.9333 94.8531 54.4C94.4531 61.6667 93.6531 67.4667 92.4531 71.8L93.0531 73.4L91.8531 79.3L92.4531 81.1L91.8531 81.7V82.1C92.2531 84.5 92.4531 86.0667 92.4531 86.8L91.4531 88V87.4L87.8531 88.6ZM40.1531 87.2H35.3531L35.6531 84.2L34.4531 83V78.4L33.6531 74.6L33.3531 68.3C32.5531 67.0333 31.9531 66.2 31.5531 65.8V65.3L33.6531 63.1H34.7531L35.3531 63.7L41.4531 62.6L48.9531 62.2L51.5531 61.4L52.7531 55.9L53.4531 49.1L52.8531 46.7C52.5865 44.4333 51.9531 43.3 50.9531 43.3V41.6H51.9531L56.7531 41C56.8198 43.6 56.9865 46.1667 57.2531 48.7C56.7865 51.9 56.3865 55.1333 56.0531 58.4L54.6531 66.2C47.5865 66.5333 42.0865 66.9 38.1531 67.3C38.2865 70.2333 38.4865 73.1667 38.7531 76.1C39.2198 78.4333 39.5865 80.7333 39.8531 83L42.2531 82.4C43.5865 82.7333 45.6198 82.9 48.3531 82.9L50.9531 82.4C54.0198 81.6667 57.1198 81.0667 60.2531 80.6L59.1531 85.7L55.1531 86.2L54.6531 85.6L52.8531 86.6L50.7531 87.1L45.9531 86.6L40.1531 87.2ZM29.7531 51.4H27.0531L26.4531 50.8V50.3L27.9531 47.6C31.9531 46.6 35.7531 45.7 39.3531 44.9C40.9531 44.6333 42.5531 44.3 44.1531 43.9L51.0531 42.2L52.1531 43.9L54.3531 44.3V44.9L51.6531 46.6C50.5198 46.6 49.4198 46.7333 48.3531 47V46.6L47.9531 47L42.0531 48.5L40.2531 48.2L39.6531 48.8C39.0531 48.8 36.9531 49.3 33.3531 50.3C33.0865 50.3 31.8865 50.6667 29.7531 51.4ZM81.0531 124.4C71.4531 124.4 65.1198 121.467 62.0531 115.6L62.3531 111.4C64.5531 103.067 67.1531 98.9 70.1531 98.9V100.7C68.1531 104.5 66.6865 106.4 65.7531 106.4L66.2531 106.9C66.2531 107.167 65.7865 109.367 64.8531 113.5C65.8531 116.7 69.9531 119.333 77.1531 121.4L79.1531 121.7L81.0531 120.1C80.7865 119.833 80.6531 119.533 80.6531 119.2C81.6531 116.2 82.4531 114.7 83.0531 114.7V109.6L83.6531 105.1L83.0531 104.6L83.6531 104.3V103.3C82.5198 96.9 79.3198 93.5 74.0531 93.1C68.7198 93.3 64.4531 94.7 61.2531 97.3H60.2531L59.7531 96.8V96.4C62.7531 92.2667 67.7198 90.2 74.6531 90.2H78.0531C82.3865 91.1333 84.5531 92.5 84.5531 94.3L84.0531 94.6C84.8531 94.6 86.0198 95.8 87.5531 98.2L88.1531 98.6C87.7531 98.7333 87.5531 99 87.5531 99.4L89.0531 101.6C88.5865 102.733 88.3531 103.8 88.3531 104.8C88.3531 105.4 88.4198 105.933 88.5531 106.4L87.5531 108.2L88.1531 108.7V109L87.5531 109.6V110H88.1531C87.7531 112.933 87.5531 114.7 87.5531 115.3L86.6531 116C86.4531 116.333 86.2865 116.633 86.1531 116.9C86.0865 117.233 85.7531 118.4 85.1531 120.4C84.0198 122.467 82.6531 123.8 81.0531 124.4ZM154.446 91.8H153.346L152.446 88L151.846 88.5L149.146 88.2V87.1L149.746 86.7L149.146 80.5H149.746C149.479 80.1667 149.346 79.8333 149.346 79.5L149.946 79L149.446 77.4L150.246 75.9L149.946 72.7L150.046 71.7L151.246 70.3L150.246 69.1L150.946 60.4L151.546 60L151.146 59.4C151.146 58.9333 151.346 58.5667 151.746 58.3L151.246 56.8L152.446 49.6L152.046 49C152.046 48.7333 152.346 47.5333 152.946 45.4L152.446 43.3L153.246 41.8L152.646 35.1L153.246 34.6L155.446 34.8C157.046 35 157.846 38.2 157.846 44.4V45.9L157.246 46.5L157.546 50.1H156.946L157.546 50.5L156.946 56.2L157.446 58.3C157.046 58.5667 156.779 58.9333 156.646 59.4L156.946 63L156.346 63.4C156.479 66.5333 156.679 68.5 156.946 69.3L156.346 69.7L156.646 73.8H156.046L156.546 74.4V75.4L155.946 75.9L156.346 76.5L155.946 81L155.146 83.5L155.446 86.7L155.346 89.2L154.446 91.8ZM127.246 86.1C124.446 86.1 123.046 84.9 123.046 82.5L124.846 71.1L117.046 69.9C114.579 70.7 110.779 71.1 105.646 71.1C105.246 70.7667 105.046 70.3667 105.046 69.9L106.246 68.7C106.579 69.1 106.979 69.3 107.446 69.3C112.379 68.1 116.979 67.5 121.246 67.5V68.1L121.846 67.5H125.446C125.179 65.2333 125.046 63.4667 125.046 62.2C125.046 60.5333 125.279 59.7 125.746 59.7V58.9C125.746 55.0333 124.746 53.1 122.746 53.1C122.746 52.5 121.946 52.2 120.346 52.2C115.946 52.2 110.846 53.9 105.046 57.3L101.746 54.9C108.279 50.9 114.679 48.9 120.946 48.9C125.679 48.9 129.046 51.5 131.046 56.7L130.446 57.3L131.446 62.1H130.846L131.446 62.7C131.446 65.1 130.846 66.3 129.646 66.3V67.5C131.246 67.7 132.046 68.3 132.046 69.3V70.5C132.046 71.3 131.446 71.7 130.246 71.7C130.246 78.9 129.246 82.5 127.246 82.5V83.1L128.446 84.9L127.246 86.1ZM147.346 124.9C137.746 124.9 131.413 121.967 128.346 116.1L128.646 111.9C130.846 103.567 133.446 99.4 136.446 99.4V101.2C134.446 105 132.979 106.9 132.046 106.9L132.546 107.4C132.546 107.667 132.079 109.867 131.146 114C132.146 117.2 136.246 119.833 143.446 121.9L145.446 122.2L147.346 120.6C147.079 120.333 146.946 120.033 146.946 119.7C147.946 116.7 148.746 115.2 149.346 115.2V110.1L149.946 105.6L149.346 105.1L149.946 104.8V103.8C148.813 97.4 145.613 94 140.346 93.6C135.013 93.8 130.746 95.2 127.546 97.8H126.546L126.046 97.3V96.9C129.046 92.7667 134.013 90.7 140.946 90.7H144.346C148.679 91.6333 150.846 93 150.846 94.8L150.346 95.1C151.146 95.1 152.313 96.3 153.846 98.7L154.446 99.1C154.046 99.2333 153.846 99.5 153.846 99.9L155.346 102.1C154.879 103.233 154.646 104.3 154.646 105.3C154.646 105.9 154.713 106.433 154.846 106.9L153.846 108.7L154.446 109.2V109.5L153.846 110.1V110.5H154.446C154.046 113.433 153.846 115.2 153.846 115.8L152.946 116.5C152.746 116.833 152.579 117.133 152.446 117.4C152.379 117.733 152.046 118.9 151.446 120.9C150.313 122.967 148.946 124.3 147.346 124.9Z" fill="#00631C"/>
<path d="M89.8531 88.6C89.8531 88.2 89.6531 87.4 89.2531 86.2L89.8531 85.7L89.2531 85.1H88.7531C89.8865 80.5 90.4531 74.5 90.4531 67.1C87.2531 67.1 82.7531 65.1667 76.9531 61.3H76.3531L76.9531 64.7L76.3531 65.3C76.3531 65.7 76.5531 67.0667 76.9531 69.4H76.3531L76.9531 70C76.9531 70.4667 76.7531 70.8667 76.3531 71.2L77.5531 74L75.7531 75.2L76.3531 75.8V77C76.0198 76.6 75.6198 76.4 75.1531 76.4V77.5H76.3531V85.1L76.9531 88L76.3531 88.6C75.8865 88.6 75.4865 88.4 75.1531 88L74.5531 88.6H71.0531L70.4531 86.8L71.6531 76.4L71.0531 69.4H71.6531L71.0531 68.9L71.6531 67.1L70.4531 56.6L71.0531 55L70.4531 51.5H71.0531L70.4531 50.9V44.5L69.8531 37.6L71.6531 36.4H73.9531L75.1531 37.6L74.5531 38.2L75.1531 38.8V40.4C74.7531 40.7333 74.5531 41.1333 74.5531 41.6H75.7531L75.1531 44.5C75.5531 49.1667 76.1531 51.8667 76.9531 52.6L76.3531 54.4C76.7531 54.7333 76.9531 55.1333 76.9531 55.6L76.3531 57.2L77.5531 58.4L76.3531 59.6C76.7531 59.6 78.0865 59.2 80.3531 58.4C81.0865 59.9333 82.8865 60.7 85.7531 60.7V61.3L86.3531 60.7H88.1531L88.7531 61.3L89.2531 60.7H90.4531C90.7865 61.1 91.1865 61.3 91.6531 61.3C92.6531 50.3 93.6865 43 94.7531 39.4L94.1531 38.8L94.7531 34.1L94.1531 32.5L95.9531 31.3C97.4865 32.5 98.2531 34.1333 98.2531 36.2V39.1C98.5865 40.3 98.7531 41.5667 98.7531 42.9C98.7531 46.0333 97.9198 49.4667 96.2531 53.2C96.6531 53.5333 96.8531 53.9333 96.8531 54.4C96.4531 61.6667 95.6531 67.4667 94.4531 71.8L95.0531 73.4L93.8531 79.3L94.4531 81.1L93.8531 81.7V82.1C94.2531 84.5 94.4531 86.0667 94.4531 86.8L93.4531 88V87.4L89.8531 88.6ZM42.1531 87.2H37.3531L37.6531 84.2L36.4531 83V78.4L35.6531 74.6L35.3531 68.3C34.5531 67.0333 33.9531 66.2 33.5531 65.8V65.3L35.6531 63.1H36.7531L37.3531 63.7L43.4531 62.6L50.9531 62.2L53.5531 61.4L54.7531 55.9L55.4531 49.1L54.8531 46.7C54.5865 44.4333 53.9531 43.3 52.9531 43.3V41.6H53.9531L58.7531 41C58.8198 43.6 58.9865 46.1667 59.2531 48.7C58.7865 51.9 58.3865 55.1333 58.0531 58.4L56.6531 66.2C49.5865 66.5333 44.0865 66.9 40.1531 67.3C40.2865 70.2333 40.4865 73.1667 40.7531 76.1C41.2198 78.4333 41.5865 80.7333 41.8531 83L44.2531 82.4C45.5865 82.7333 47.6198 82.9 50.3531 82.9L52.9531 82.4C56.0198 81.6667 59.1198 81.0667 62.2531 80.6L61.1531 85.7L57.1531 86.2L56.6531 85.6L54.8531 86.6L52.7531 87.1L47.9531 86.6L42.1531 87.2ZM31.7531 51.4H29.0531L28.4531 50.8V50.3L29.9531 47.6C33.9531 46.6 37.7531 45.7 41.3531 44.9C42.9531 44.6333 44.5531 44.3 46.1531 43.9L53.0531 42.2L54.1531 43.9L56.3531 44.3V44.9L53.6531 46.6C52.5198 46.6 51.4198 46.7333 50.3531 47V46.6L49.9531 47L44.0531 48.5L42.2531 48.2L41.6531 48.8C41.0531 48.8 38.9531 49.3 35.3531 50.3C35.0865 50.3 33.8865 50.6667 31.7531 51.4ZM83.0531 124.4C73.4531 124.4 67.1198 121.467 64.0531 115.6L64.3531 111.4C66.5531 103.067 69.1531 98.9 72.1531 98.9V100.7C70.1531 104.5 68.6865 106.4 67.7531 106.4L68.2531 106.9C68.2531 107.167 67.7865 109.367 66.8531 113.5C67.8531 116.7 71.9531 119.333 79.1531 121.4L81.1531 121.7L83.0531 120.1C82.7865 119.833 82.6531 119.533 82.6531 119.2C83.6531 116.2 84.4531 114.7 85.0531 114.7V109.6L85.6531 105.1L85.0531 104.6L85.6531 104.3V103.3C84.5198 96.9 81.3198 93.5 76.0531 93.1C70.7198 93.3 66.4531 94.7 63.2531 97.3H62.2531L61.7531 96.8V96.4C64.7531 92.2667 69.7198 90.2 76.6531 90.2H80.0531C84.3865 91.1333 86.5531 92.5 86.5531 94.3L86.0531 94.6C86.8531 94.6 88.0198 95.8 89.5531 98.2L90.1531 98.6C89.7531 98.7333 89.5531 99 89.5531 99.4L91.0531 101.6C90.5865 102.733 90.3531 103.8 90.3531 104.8C90.3531 105.4 90.4198 105.933 90.5531 106.4L89.5531 108.2L90.1531 108.7V109L89.5531 109.6V110H90.1531C89.7531 112.933 89.5531 114.7 89.5531 115.3L88.6531 116C88.4531 116.333 88.2865 116.633 88.1531 116.9C88.0865 117.233 87.7531 118.4 87.1531 120.4C86.0198 122.467 84.6531 123.8 83.0531 124.4ZM156.446 91.8H155.346L154.446 88L153.846 88.5L151.146 88.2V87.1L151.746 86.7L151.146 80.5H151.746C151.479 80.1667 151.346 79.8333 151.346 79.5L151.946 79L151.446 77.4L152.246 75.9L151.946 72.7L152.046 71.7L153.246 70.3L152.246 69.1L152.946 60.4L153.546 60L153.146 59.4C153.146 58.9333 153.346 58.5667 153.746 58.3L153.246 56.8L154.446 49.6L154.046 49C154.046 48.7333 154.346 47.5333 154.946 45.4L154.446 43.3L155.246 41.8L154.646 35.1L155.246 34.6L157.446 34.8C159.046 35 159.846 38.2 159.846 44.4V45.9L159.246 46.5L159.546 50.1H158.946L159.546 50.5L158.946 56.2L159.446 58.3C159.046 58.5667 158.779 58.9333 158.646 59.4L158.946 63L158.346 63.4C158.479 66.5333 158.679 68.5 158.946 69.3L158.346 69.7L158.646 73.8H158.046L158.546 74.4V75.4L157.946 75.9L158.346 76.5L157.946 81L157.146 83.5L157.446 86.7L157.346 89.2L156.446 91.8ZM129.246 86.1C126.446 86.1 125.046 84.9 125.046 82.5L126.846 71.1L119.046 69.9C116.579 70.7 112.779 71.1 107.646 71.1C107.246 70.7667 107.046 70.3667 107.046 69.9L108.246 68.7C108.579 69.1 108.979 69.3 109.446 69.3C114.379 68.1 118.979 67.5 123.246 67.5V68.1L123.846 67.5H127.446C127.179 65.2333 127.046 63.4667 127.046 62.2C127.046 60.5333 127.279 59.7 127.746 59.7V58.9C127.746 55.0333 126.746 53.1 124.746 53.1C124.746 52.5 123.946 52.2 122.346 52.2C117.946 52.2 112.846 53.9 107.046 57.3L103.746 54.9C110.279 50.9 116.679 48.9 122.946 48.9C127.679 48.9 131.046 51.5 133.046 56.7L132.446 57.3L133.446 62.1H132.846L133.446 62.7C133.446 65.1 132.846 66.3 131.646 66.3V67.5C133.246 67.7 134.046 68.3 134.046 69.3V70.5C134.046 71.3 133.446 71.7 132.246 71.7C132.246 78.9 131.246 82.5 129.246 82.5V83.1L130.446 84.9L129.246 86.1ZM149.346 124.9C139.746 124.9 133.413 121.967 130.346 116.1L130.646 111.9C132.846 103.567 135.446 99.4 138.446 99.4V101.2C136.446 105 134.979 106.9 134.046 106.9L134.546 107.4C134.546 107.667 134.079 109.867 133.146 114C134.146 117.2 138.246 119.833 145.446 121.9L147.446 122.2L149.346 120.6C149.079 120.333 148.946 120.033 148.946 119.7C149.946 116.7 150.746 115.2 151.346 115.2V110.1L151.946 105.6L151.346 105.1L151.946 104.8V103.8C150.813 97.4 147.613 94 142.346 93.6C137.013 93.8 132.746 95.2 129.546 97.8H128.546L128.046 97.3V96.9C131.046 92.7667 136.013 90.7 142.946 90.7H146.346C150.679 91.6333 152.846 93 152.846 94.8L152.346 95.1C153.146 95.1 154.313 96.3 155.846 98.7L156.446 99.1C156.046 99.2333 155.846 99.5 155.846 99.9L157.346 102.1C156.879 103.233 156.646 104.3 156.646 105.3C156.646 105.9 156.713 106.433 156.846 106.9L155.846 108.7L156.446 109.2V109.5L155.846 110.1V110.5H156.446C156.046 113.433 155.846 115.2 155.846 115.8L154.946 116.5C154.746 116.833 154.579 117.133 154.446 117.4C154.379 117.733 154.046 118.9 153.446 120.9C152.313 122.967 150.946 124.3 149.346 124.9Z" fill="#00631C"/>
<path d="M81.8531 82.6C81.8531 82.2 81.6531 81.4 81.2531 80.2L81.8531 79.7L81.2531 79.1H80.7531C81.8865 74.5 82.4531 68.5 82.4531 61.1C79.2531 61.1 74.7531 59.1667 68.9531 55.3H68.3531L68.9531 58.7L68.3531 59.3C68.3531 59.7 68.5531 61.0667 68.9531 63.4H68.3531L68.9531 64C68.9531 64.4667 68.7531 64.8667 68.3531 65.2L69.5531 68L67.7531 69.2L68.3531 69.8V71C68.0198 70.6 67.6198 70.4 67.1531 70.4V71.5H68.3531V79.1L68.9531 82L68.3531 82.6C67.8865 82.6 67.4865 82.4 67.1531 82L66.5531 82.6H63.0531L62.4531 80.8L63.6531 70.4L63.0531 63.4H63.6531L63.0531 62.9L63.6531 61.1L62.4531 50.6L63.0531 49L62.4531 45.5H63.0531L62.4531 44.9V38.5L61.8531 31.6L63.6531 30.4H65.9531L67.1531 31.6L66.5531 32.2L67.1531 32.8V34.4C66.7531 34.7333 66.5531 35.1333 66.5531 35.6H67.7531L67.1531 38.5C67.5531 43.1667 68.1531 45.8667 68.9531 46.6L68.3531 48.4C68.7531 48.7333 68.9531 49.1333 68.9531 49.6L68.3531 51.2L69.5531 52.4L68.3531 53.6C68.7531 53.6 70.0865 53.2 72.3531 52.4C73.0865 53.9333 74.8865 54.7 77.7531 54.7V55.3L78.3531 54.7H80.1531L80.7531 55.3L81.2531 54.7H82.4531C82.7865 55.1 83.1865 55.3 83.6531 55.3C84.6531 44.3 85.6865 37 86.7531 33.4L86.1531 32.8L86.7531 28.1L86.1531 26.5L87.9531 25.3C89.4865 26.5 90.2531 28.1333 90.2531 30.2V33.1C90.5865 34.3 90.7531 35.5667 90.7531 36.9C90.7531 40.0333 89.9198 43.4667 88.2531 47.2C88.6531 47.5333 88.8531 47.9333 88.8531 48.4C88.4531 55.6667 87.6531 61.4667 86.4531 65.8L87.0531 67.4L85.8531 73.3L86.4531 75.1L85.8531 75.7V76.1C86.2531 78.5 86.4531 80.0667 86.4531 80.8L85.4531 82V81.4L81.8531 82.6ZM34.1531 81.2H29.3531L29.6531 78.2L28.4531 77V72.4L27.6531 68.6L27.3531 62.3C26.5531 61.0333 25.9531 60.2 25.5531 59.8V59.3L27.6531 57.1H28.7531L29.3531 57.7L35.4531 56.6L42.9531 56.2L45.5531 55.4L46.7531 49.9L47.4531 43.1L46.8531 40.7C46.5865 38.4333 45.9531 37.3 44.9531 37.3V35.6H45.9531L50.7531 35C50.8198 37.6 50.9865 40.1667 51.2531 42.7C50.7865 45.9 50.3865 49.1333 50.0531 52.4L48.6531 60.2C41.5865 60.5333 36.0865 60.9 32.1531 61.3C32.2865 64.2333 32.4865 67.1667 32.7531 70.1C33.2198 72.4333 33.5865 74.7333 33.8531 77L36.2531 76.4C37.5865 76.7333 39.6198 76.9 42.3531 76.9L44.9531 76.4C48.0198 75.6667 51.1198 75.0667 54.2531 74.6L53.1531 79.7L49.1531 80.2L48.6531 79.6L46.8531 80.6L44.7531 81.1L39.9531 80.6L34.1531 81.2ZM23.7531 45.4H21.0531L20.4531 44.8V44.3L21.9531 41.6C25.9531 40.6 29.7531 39.7 33.3531 38.9C34.9531 38.6333 36.5531 38.3 38.1531 37.9L45.0531 36.2L46.1531 37.9L48.3531 38.3V38.9L45.6531 40.6C44.5198 40.6 43.4198 40.7333 42.3531 41V40.6L41.9531 41L36.0531 42.5L34.2531 42.2L33.6531 42.8C33.0531 42.8 30.9531 43.3 27.3531 44.3C27.0865 44.3 25.8865 44.6667 23.7531 45.4ZM75.0531 118.4C65.4531 118.4 59.1198 115.467 56.0531 109.6L56.3531 105.4C58.5531 97.0667 61.1531 92.9 64.1531 92.9V94.7C62.1531 98.5 60.6865 100.4 59.7531 100.4L60.2531 100.9C60.2531 101.167 59.7865 103.367 58.8531 107.5C59.8531 110.7 63.9531 113.333 71.1531 115.4L73.1531 115.7L75.0531 114.1C74.7865 113.833 74.6531 113.533 74.6531 113.2C75.6531 110.2 76.4531 108.7 77.0531 108.7V103.6L77.6531 99.1L77.0531 98.6L77.6531 98.3V97.3C76.5198 90.9 73.3198 87.5 68.0531 87.1C62.7198 87.3 58.4531 88.7 55.2531 91.3H54.2531L53.7531 90.8V90.4C56.7531 86.2667 61.7198 84.2 68.6531 84.2H72.0531C76.3865 85.1333 78.5531 86.5 78.5531 88.3L78.0531 88.6C78.8531 88.6 80.0198 89.8 81.5531 92.2L82.1531 92.6C81.7531 92.7333 81.5531 93 81.5531 93.4L83.0531 95.6C82.5865 96.7333 82.3531 97.8 82.3531 98.8C82.3531 99.4 82.4198 99.9333 82.5531 100.4L81.5531 102.2L82.1531 102.7V103L81.5531 103.6V104H82.1531C81.7531 106.933 81.5531 108.7 81.5531 109.3L80.6531 110C80.4531 110.333 80.2865 110.633 80.1531 110.9C80.0865 111.233 79.7531 112.4 79.1531 114.4C78.0198 116.467 76.6531 117.8 75.0531 118.4ZM148.446 85.8H147.346L146.446 82L145.846 82.5L143.146 82.2V81.1L143.746 80.7L143.146 74.5H143.746C143.479 74.1667 143.346 73.8333 143.346 73.5L143.946 73L143.446 71.4L144.246 69.9L143.946 66.7L144.046 65.7L145.246 64.3L144.246 63.1L144.946 54.4L145.546 54L145.146 53.4C145.146 52.9333 145.346 52.5667 145.746 52.3L145.246 50.8L146.446 43.6L146.046 43C146.046 42.7333 146.346 41.5333 146.946 39.4L146.446 37.3L147.246 35.8L146.646 29.1L147.246 28.6L149.446 28.8C151.046 29 151.846 32.2 151.846 38.4V39.9L151.246 40.5L151.546 44.1H150.946L151.546 44.5L150.946 50.2L151.446 52.3C151.046 52.5667 150.779 52.9333 150.646 53.4L150.946 57L150.346 57.4C150.479 60.5333 150.679 62.5 150.946 63.3L150.346 63.7L150.646 67.8H150.046L150.546 68.4V69.4L149.946 69.9L150.346 70.5L149.946 75L149.146 77.5L149.446 80.7L149.346 83.2L148.446 85.8ZM121.246 80.1C118.446 80.1 117.046 78.9 117.046 76.5L118.846 65.1L111.046 63.9C108.579 64.7 104.779 65.1 99.6461 65.1C99.2461 64.7667 99.0461 64.3667 99.0461 63.9L100.246 62.7C100.579 63.1 100.979 63.3 101.446 63.3C106.379 62.1 110.979 61.5 115.246 61.5V62.1L115.846 61.5H119.446C119.179 59.2333 119.046 57.4667 119.046 56.2C119.046 54.5333 119.279 53.7 119.746 53.7V52.9C119.746 49.0333 118.746 47.1 116.746 47.1C116.746 46.5 115.946 46.2 114.346 46.2C109.946 46.2 104.846 47.9 99.0461 51.3L95.7461 48.9C102.279 44.9 108.679 42.9 114.946 42.9C119.679 42.9 123.046 45.5 125.046 50.7L124.446 51.3L125.446 56.1H124.846L125.446 56.7C125.446 59.1 124.846 60.3 123.646 60.3V61.5C125.246 61.7 126.046 62.3 126.046 63.3V64.5C126.046 65.3 125.446 65.7 124.246 65.7C124.246 72.9 123.246 76.5 121.246 76.5V77.1L122.446 78.9L121.246 80.1ZM141.346 118.9C131.746 118.9 125.413 115.967 122.346 110.1L122.646 105.9C124.846 97.5667 127.446 93.4 130.446 93.4V95.2C128.446 99 126.979 100.9 126.046 100.9L126.546 101.4C126.546 101.667 126.079 103.867 125.146 108C126.146 111.2 130.246 113.833 137.446 115.9L139.446 116.2L141.346 114.6C141.079 114.333 140.946 114.033 140.946 113.7C141.946 110.7 142.746 109.2 143.346 109.2V104.1L143.946 99.6L143.346 99.1L143.946 98.8V97.8C142.813 91.4 139.613 88 134.346 87.6C129.013 87.8 124.746 89.2 121.546 91.8H120.546L120.046 91.3V90.9C123.046 86.7667 128.013 84.7 134.946 84.7H138.346C142.679 85.6333 144.846 87 144.846 88.8L144.346 89.1C145.146 89.1 146.313 90.3 147.846 92.7L148.446 93.1C148.046 93.2333 147.846 93.5 147.846 93.9L149.346 96.1C148.879 97.2333 148.646 98.3 148.646 99.3C148.646 99.9 148.713 100.433 148.846 100.9L147.846 102.7L148.446 103.2V103.5L147.846 104.1V104.5H148.446C148.046 107.433 147.846 109.2 147.846 109.8L146.946 110.5C146.746 110.833 146.579 111.133 146.446 111.4C146.379 111.733 146.046 112.9 145.446 114.9C144.313 116.967 142.946 118.3 141.346 118.9Z" fill="white"/>
<path d="M83.8531 83.6C83.8531 83.2 83.6531 82.4 83.2531 81.2L83.8531 80.7L83.2531 80.1H82.7531C83.8865 75.5 84.4531 69.5 84.4531 62.1C81.2531 62.1 76.7531 60.1667 70.9531 56.3H70.3531L70.9531 59.7L70.3531 60.3C70.3531 60.7 70.5531 62.0667 70.9531 64.4H70.3531L70.9531 65C70.9531 65.4667 70.7531 65.8667 70.3531 66.2L71.5531 69L69.7531 70.2L70.3531 70.8V72C70.0198 71.6 69.6198 71.4 69.1531 71.4V72.5H70.3531V80.1L70.9531 83L70.3531 83.6C69.8865 83.6 69.4865 83.4 69.1531 83L68.5531 83.6H65.0531L64.4531 81.8L65.6531 71.4L65.0531 64.4H65.6531L65.0531 63.9L65.6531 62.1L64.4531 51.6L65.0531 50L64.4531 46.5H65.0531L64.4531 45.9V39.5L63.8531 32.6L65.6531 31.4H67.9531L69.1531 32.6L68.5531 33.2L69.1531 33.8V35.4C68.7531 35.7333 68.5531 36.1333 68.5531 36.6H69.7531L69.1531 39.5C69.5531 44.1667 70.1531 46.8667 70.9531 47.6L70.3531 49.4C70.7531 49.7333 70.9531 50.1333 70.9531 50.6L70.3531 52.2L71.5531 53.4L70.3531 54.6C70.7531 54.6 72.0865 54.2 74.3531 53.4C75.0865 54.9333 76.8865 55.7 79.7531 55.7V56.3L80.3531 55.7H82.1531L82.7531 56.3L83.2531 55.7H84.4531C84.7865 56.1 85.1865 56.3 85.6531 56.3C86.6531 45.3 87.6865 38 88.7531 34.4L88.1531 33.8L88.7531 29.1L88.1531 27.5L89.9531 26.3C91.4865 27.5 92.2531 29.1333 92.2531 31.2V34.1C92.5865 35.3 92.7531 36.5667 92.7531 37.9C92.7531 41.0333 91.9198 44.4667 90.2531 48.2C90.6531 48.5333 90.8531 48.9333 90.8531 49.4C90.4531 56.6667 89.6531 62.4667 88.4531 66.8L89.0531 68.4L87.8531 74.3L88.4531 76.1L87.8531 76.7V77.1C88.2531 79.5 88.4531 81.0667 88.4531 81.8L87.4531 83V82.4L83.8531 83.6ZM36.1531 82.2H31.3531L31.6531 79.2L30.4531 78V73.4L29.6531 69.6L29.3531 63.3C28.5531 62.0333 27.9531 61.2 27.5531 60.8V60.3L29.6531 58.1H30.7531L31.3531 58.7L37.4531 57.6L44.9531 57.2L47.5531 56.4L48.7531 50.9L49.4531 44.1L48.8531 41.7C48.5865 39.4333 47.9531 38.3 46.9531 38.3V36.6H47.9531L52.7531 36C52.8198 38.6 52.9865 41.1667 53.2531 43.7C52.7865 46.9 52.3865 50.1333 52.0531 53.4L50.6531 61.2C43.5865 61.5333 38.0865 61.9 34.1531 62.3C34.2865 65.2333 34.4865 68.1667 34.7531 71.1C35.2198 73.4333 35.5865 75.7333 35.8531 78L38.2531 77.4C39.5865 77.7333 41.6198 77.9 44.3531 77.9L46.9531 77.4C50.0198 76.6667 53.1198 76.0667 56.2531 75.6L55.1531 80.7L51.1531 81.2L50.6531 80.6L48.8531 81.6L46.7531 82.1L41.9531 81.6L36.1531 82.2ZM25.7531 46.4H23.0531L22.4531 45.8V45.3L23.9531 42.6C27.9531 41.6 31.7531 40.7 35.3531 39.9C36.9531 39.6333 38.5531 39.3 40.1531 38.9L47.0531 37.2L48.1531 38.9L50.3531 39.3V39.9L47.6531 41.6C46.5198 41.6 45.4198 41.7333 44.3531 42V41.6L43.9531 42L38.0531 43.5L36.2531 43.2L35.6531 43.8C35.0531 43.8 32.9531 44.3 29.3531 45.3C29.0865 45.3 27.8865 45.6667 25.7531 46.4ZM77.0531 119.4C67.4531 119.4 61.1198 116.467 58.0531 110.6L58.3531 106.4C60.5531 98.0667 63.1531 93.9 66.1531 93.9V95.7C64.1531 99.5 62.6865 101.4 61.7531 101.4L62.2531 101.9C62.2531 102.167 61.7865 104.367 60.8531 108.5C61.8531 111.7 65.9531 114.333 73.1531 116.4L75.1531 116.7L77.0531 115.1C76.7865 114.833 76.6531 114.533 76.6531 114.2C77.6531 111.2 78.4531 109.7 79.0531 109.7V104.6L79.6531 100.1L79.0531 99.6L79.6531 99.3V98.3C78.5198 91.9 75.3198 88.5 70.0531 88.1C64.7198 88.3 60.4531 89.7 57.2531 92.3H56.2531L55.7531 91.8V91.4C58.7531 87.2667 63.7198 85.2 70.6531 85.2H74.0531C78.3865 86.1333 80.5531 87.5 80.5531 89.3L80.0531 89.6C80.8531 89.6 82.0198 90.8 83.5531 93.2L84.1531 93.6C83.7531 93.7333 83.5531 94 83.5531 94.4L85.0531 96.6C84.5865 97.7333 84.3531 98.8 84.3531 99.8C84.3531 100.4 84.4198 100.933 84.5531 101.4L83.5531 103.2L84.1531 103.7V104L83.5531 104.6V105H84.1531C83.7531 107.933 83.5531 109.7 83.5531 110.3L82.6531 111C82.4531 111.333 82.2865 111.633 82.1531 111.9C82.0865 112.233 81.7531 113.4 81.1531 115.4C80.0198 117.467 78.6531 118.8 77.0531 119.4ZM150.446 86.8H149.346L148.446 83L147.846 83.5L145.146 83.2V82.1L145.746 81.7L145.146 75.5H145.746C145.479 75.1667 145.346 74.8333 145.346 74.5L145.946 74L145.446 72.4L146.246 70.9L145.946 67.7L146.046 66.7L147.246 65.3L146.246 64.1L146.946 55.4L147.546 55L147.146 54.4C147.146 53.9333 147.346 53.5667 147.746 53.3L147.246 51.8L148.446 44.6L148.046 44C148.046 43.7333 148.346 42.5333 148.946 40.4L148.446 38.3L149.246 36.8L148.646 30.1L149.246 29.6L151.446 29.8C153.046 30 153.846 33.2 153.846 39.4V40.9L153.246 41.5L153.546 45.1H152.946L153.546 45.5L152.946 51.2L153.446 53.3C153.046 53.5667 152.779 53.9333 152.646 54.4L152.946 58L152.346 58.4C152.479 61.5333 152.679 63.5 152.946 64.3L152.346 64.7L152.646 68.8H152.046L152.546 69.4V70.4L151.946 70.9L152.346 71.5L151.946 76L151.146 78.5L151.446 81.7L151.346 84.2L150.446 86.8ZM123.246 81.1C120.446 81.1 119.046 79.9 119.046 77.5L120.846 66.1L113.046 64.9C110.579 65.7 106.779 66.1 101.646 66.1C101.246 65.7667 101.046 65.3667 101.046 64.9L102.246 63.7C102.579 64.1 102.979 64.3 103.446 64.3C108.379 63.1 112.979 62.5 117.246 62.5V63.1L117.846 62.5H121.446C121.179 60.2333 121.046 58.4667 121.046 57.2C121.046 55.5333 121.279 54.7 121.746 54.7V53.9C121.746 50.0333 120.746 48.1 118.746 48.1C118.746 47.5 117.946 47.2 116.346 47.2C111.946 47.2 106.846 48.9 101.046 52.3L97.7461 49.9C104.279 45.9 110.679 43.9 116.946 43.9C121.679 43.9 125.046 46.5 127.046 51.7L126.446 52.3L127.446 57.1H126.846L127.446 57.7C127.446 60.1 126.846 61.3 125.646 61.3V62.5C127.246 62.7 128.046 63.3 128.046 64.3V65.5C128.046 66.3 127.446 66.7 126.246 66.7C126.246 73.9 125.246 77.5 123.246 77.5V78.1L124.446 79.9L123.246 81.1ZM143.346 119.9C133.746 119.9 127.413 116.967 124.346 111.1L124.646 106.9C126.846 98.5667 129.446 94.4 132.446 94.4V96.2C130.446 100 128.979 101.9 128.046 101.9L128.546 102.4C128.546 102.667 128.079 104.867 127.146 109C128.146 112.2 132.246 114.833 139.446 116.9L141.446 117.2L143.346 115.6C143.079 115.333 142.946 115.033 142.946 114.7C143.946 111.7 144.746 110.2 145.346 110.2V105.1L145.946 100.6L145.346 100.1L145.946 99.8V98.8C144.813 92.4 141.613 89 136.346 88.6C131.013 88.8 126.746 90.2 123.546 92.8H122.546L122.046 92.3V91.9C125.046 87.7667 130.013 85.7 136.946 85.7H140.346C144.679 86.6333 146.846 88 146.846 89.8L146.346 90.1C147.146 90.1 148.313 91.3 149.846 93.7L150.446 94.1C150.046 94.2333 149.846 94.5 149.846 94.9L151.346 97.1C150.879 98.2333 150.646 99.3 150.646 100.3C150.646 100.9 150.713 101.433 150.846 101.9L149.846 103.7L150.446 104.2V104.5L149.846 105.1V105.5H150.446C150.046 108.433 149.846 110.2 149.846 110.8L148.946 111.5C148.746 111.833 148.579 112.133 148.446 112.4C148.379 112.733 148.046 113.9 147.446 115.9C146.313 117.967 144.946 119.3 143.346 119.9Z" fill="white"/>
</svg>
