<svg width="287" height="422" viewBox="0 0 287 422" fill="none" xmlns="http://www.w3.org/2000/svg">
<path d="M44.3065 223.595C37.4313 232.385 24.7263 233.945 15.9289 227.08V227.08C7.13162 220.214 5.5734 207.524 12.4486 198.734L73.8453 120.241L105.703 145.103L44.3065 223.595Z" fill="white"/>
<path d="M274.551 198.646C281.427 207.436 279.868 220.127 271.071 226.992V226.992C262.274 233.857 249.569 232.297 242.693 223.508L180.841 144.432L212.699 119.571L274.551 198.646Z" fill="white"/>
<path d="M71.8672 131.924C71.8672 115.355 85.2986 101.924 101.867 101.924H186.875C203.444 101.924 216.875 115.355 216.875 131.924V289.678H71.8672V131.924Z" fill="#828282"/>
<path d="M204.343 66.161C204.343 102.701 181.447 132.322 144.371 132.322C107.294 132.322 84.3984 102.701 84.3984 66.161C84.3984 29.6213 107.294 0 144.371 0C181.447 0 204.343 29.6213 204.343 66.161Z" fill="#0F0F0F"/>
<path d="M71.8677 217.754C71.8677 201.186 85.2991 187.754 101.868 187.754H186.875C203.444 187.754 216.875 201.186 216.875 217.754V344.182C164.658 354.942 132.817 354.97 71.8677 344.182V217.754Z" fill="#9FBBE4"/>
<path d="M71.8677 332.593H87.6721C98.7178 332.593 107.672 341.548 107.672 352.593V422H71.8677V332.593Z" fill="#9FBBE4"/>
<path d="M179.281 352.593C179.281 341.548 188.236 332.593 199.281 332.593H216.876V422H179.281V352.593Z" fill="#9FBBE4"/>
<rect x="71.8677" y="321.864" width="145.008" height="1.78813" fill="#666666"/>
<ellipse cx="100.511" cy="231.564" rx="7.16088" ry="8.04661" fill="#2D0000"/>
<ellipse cx="187.337" cy="231.564" rx="8.05599" ry="8.04661" fill="#2D0000"/>
</svg>
