<svg width="288" height="423" viewBox="0 0 288 423" fill="none" xmlns="http://www.w3.org/2000/svg">
<path d="M44.3417 224.057C37.4625 232.862 24.7478 234.423 15.9428 227.544V227.544C7.13775 220.665 5.57658 207.95 12.4558 199.145L73.91 120.487L105.796 145.399L44.3417 224.057Z" fill="white"/>
<path d="M274.796 199.057C281.675 207.862 280.114 220.577 271.309 227.456V227.456C262.504 234.335 249.789 232.774 242.91 223.969L181 144.727L212.886 119.815L274.796 199.057Z" fill="white"/>
<path d="M71.9302 132.132C71.9302 115.564 85.3616 102.132 101.93 102.132H187.065C203.634 102.132 217.065 115.564 217.065 132.132V290.27H71.9302V132.132Z" fill="#828282"/>
<path d="M204.523 66.2963C204.523 102.911 181.607 132.593 144.498 132.593C107.388 132.593 84.4727 102.911 84.4727 66.2963C84.4727 29.6818 107.388 0 144.498 0C181.607 0 204.523 29.6818 204.523 66.2963Z" fill="#0F0F0F"/>
<path d="M71.9307 218.138C71.9307 201.57 85.3621 188.138 101.931 188.138H187.066C203.634 188.138 217.066 201.57 217.066 218.138V344.886C164.802 355.668 132.933 355.696 71.9307 344.886V218.138Z" fill="#9FBBE4"/>
<path d="M71.9307 333.273H87.7665C98.8122 333.273 107.766 342.228 107.766 353.273V422.863H71.9307V333.273Z" fill="#9FBBE4"/>
<path d="M179.438 353.273C179.438 342.228 188.393 333.273 199.438 333.273H217.066V422.863H179.438V353.273Z" fill="#9FBBE4"/>
<rect x="71.9307" y="322.522" width="145.135" height="1.79179" fill="#666666"/>
<ellipse cx="100.599" cy="232.037" rx="7.16716" ry="8.06306" fill="#2D0000"/>
<circle cx="187.502" cy="232.037" r="8.06306" fill="#2D0000"/>
</svg>
