<svg width="301" height="422" viewBox="0 0 301 422" fill="none" xmlns="http://www.w3.org/2000/svg">
<path d="M20 195.949C8.95429 195.949 0 186.995 0 175.949L0 155.568L123.417 155.568V195.949L20 195.949Z" fill="white"/>
<path d="M0 95.7732C0 84.3566 9.25502 75.1016 20.6717 75.1016V75.1016C32.0883 75.1016 41.3433 84.3566 41.3433 95.7732L41.3433 195.646H9.99999C4.47714 195.646 0 191.169 0 185.646L0 95.7732Z" fill="white"/>
<path d="M281.001 155.568C292.047 155.568 301.001 164.522 301.001 175.568V195.949L177.584 195.949V155.568L281.001 155.568Z" fill="white"/>
<path d="M301.001 255.744C301.001 267.16 291.746 276.415 280.329 276.415V276.415C268.913 276.415 259.658 267.16 259.658 255.744V155.871H291.001C296.524 155.871 301.001 160.348 301.001 165.871V255.744Z" fill="white"/>
<path d="M72.543 131.924C72.543 115.355 85.9744 101.924 102.543 101.924H190.833C207.401 101.924 220.833 115.355 220.833 131.924V289.678H72.543V131.924Z" fill="#828282"/>
<path d="M208.33 66.161C208.33 102.701 184.916 132.322 147.001 132.322C109.085 132.322 85.6709 102.701 85.6709 66.161C85.6709 29.6213 109.085 0 147.001 0C184.916 0 208.33 29.6213 208.33 66.161Z" fill="#0F0F0F"/>
<path d="M208.33 66.161C208.33 102.701 184.916 132.322 147.001 132.322C109.085 132.322 85.6709 102.701 85.6709 66.161C85.6709 29.6213 109.085 0 147.001 0C184.916 0 208.33 29.6213 208.33 66.161Z" fill="#0F0F0F"/>
<path d="M72.543 217.754C72.543 201.186 85.9744 187.754 102.543 187.754H190.833C207.401 187.754 220.833 201.186 220.833 217.754V344.182C167.433 354.942 134.872 354.97 72.543 344.182V217.754Z" fill="#9FBBE4"/>
<path d="M72.543 332.593H89.1578C100.203 332.593 109.158 341.548 109.158 352.593V422H72.543V332.593Z" fill="#9FBBE4"/>
<path d="M182.388 352.593C182.388 341.548 191.342 332.593 202.388 332.593H220.833V422H182.388V352.593Z" fill="#9FBBE4"/>
<rect x="72.543" y="321.865" width="148.29" height="1.78756" fill="#666666"/>
<ellipse cx="101.836" cy="231.564" rx="7.32296" ry="8.04661" fill="#2D0000"/>
<ellipse cx="190.626" cy="231.564" rx="8.23832" ry="8.04661" fill="#2D0000"/>
</svg>
