<svg width="302" height="423" viewBox="0 0 302 423" fill="none" xmlns="http://www.w3.org/2000/svg">
<path d="M20 155.176C8.95431 155.176 0 164.13 0 175.176L0 195.64L120.791 195.64V155.176L20 155.176Z" fill="white"/>
<path d="M0 256.038C0 267.212 9.05813 276.27 20.2319 276.27V276.27C31.4056 276.27 40.4638 267.212 40.4638 256.038L40.4638 155.479H10C4.47716 155.479 0 159.956 0 165.479L0 256.038Z" fill="white"/>
<path d="M281.791 193.094C292.837 193.094 301.791 184.14 301.791 173.094V152.631L181 152.631V193.094L281.791 193.094Z" fill="white"/>
<path d="M301.791 92.2319C301.791 81.0581 292.733 72 281.559 72V72C270.385 72 261.327 81.0581 261.327 92.2319V192.791H291.791C297.314 192.791 301.791 188.314 301.791 182.791V92.2319Z" fill="white"/>
<path d="M78 132C78 115.431 91.4315 102 108 102H193.135C209.704 102 223.135 115.431 223.135 132V290.138H78V132Z" fill="#828282"/>
<path d="M210.899 66.2963C210.899 102.911 187.983 132.593 150.874 132.593C113.764 132.593 90.8486 102.911 90.8486 66.2963C90.8486 29.6818 113.764 0 150.874 0C187.983 0 210.899 29.6818 210.899 66.2963Z" fill="#0F0F0F"/>
<path d="M210.899 66.2963C210.899 102.911 187.983 132.593 150.874 132.593C113.764 132.593 90.8486 102.911 90.8486 66.2963C90.8486 29.6818 113.764 0 150.874 0C187.983 0 210.899 29.6818 210.899 66.2963Z" fill="#0F0F0F"/>
<path d="M78 218.138C78 201.569 91.4315 188.138 108 188.138H193.135C209.704 188.138 223.135 201.569 223.135 218.138V344.886C170.872 355.667 139.003 355.696 78 344.886V218.138Z" fill="#9FBBE4"/>
<path d="M78 333.273H93.8358C104.882 333.273 113.836 342.227 113.836 353.273V422.863H78V333.273Z" fill="#9FBBE4"/>
<path d="M185.508 353.273C185.508 342.227 194.462 333.273 205.508 333.273H223.135V422.863H185.508V353.273Z" fill="#9FBBE4"/>
<rect x="78" y="322.522" width="145.135" height="1.79179" fill="#666666"/>
<ellipse cx="106.669" cy="232.037" rx="7.16716" ry="8.06306" fill="#2D0000"/>
<circle cx="193.571" cy="232.037" r="8.06306" fill="#2D0000"/>
</svg>
