<svg width="303" height="423" viewBox="0 0 303 423" fill="none" xmlns="http://www.w3.org/2000/svg">
<path d="M29.5728 206.738C19.3548 219.781 -5.18927 240.806 10.4457 246.289C13.884 247.495 18.3805 248.877 24.1716 250.477C35.5259 253.614 47.5911 249.351 54.8559 240.078L116.961 160.807L85.1082 135.852L29.5728 206.738Z" fill="white"/>
<path d="M243.54 79.2956C253.741 66.2394 273.866 61.8943 289.151 68.287C295.012 70.7381 299.863 73.0416 301.52 75.0947C306.066 80.7276 291.442 83.7088 286.985 89.4126L219.53 175.752L187.644 150.84L243.54 79.2956Z" fill="white"/>
<path d="M80.2949 132C80.2949 115.431 93.7264 102 110.295 102H195.295C211.863 102 225.295 115.431 225.295 132V291H80.2949V132Z" fill="#828282"/>
<path d="M213.295 66.5C213.295 103.227 190.198 133 152.795 133C115.392 133 92.2949 103.227 92.2949 66.5C92.2949 29.7731 115.392 0 152.795 0C190.198 0 213.295 29.7731 213.295 66.5Z" fill="#0F0F0F"/>
<path d="M80.6309 218.248C80.6309 201.68 94.0623 188.248 110.631 188.248H195.766C212.334 188.248 225.766 201.68 225.766 218.248V344.996C173.503 355.778 141.634 355.806 80.6309 344.996V218.248Z" fill="#9FBBE4"/>
<path d="M80.6309 333.383H96.4667C107.512 333.383 116.467 342.338 116.467 353.383V422.973H80.6309V333.383Z" fill="#9FBBE4"/>
<path d="M188.139 353.383C188.139 342.338 197.093 333.383 208.139 333.383H225.766V422.973H188.139V353.383Z" fill="#9FBBE4"/>
<rect x="80.6309" y="322.632" width="145.135" height="1.79179" fill="#666666"/>
<ellipse cx="109.3" cy="232.147" rx="7.16716" ry="8.06306" fill="#2D0000"/>
<circle cx="196.202" cy="232.147" r="8.06306" fill="#2D0000"/>
</svg>
