<svg width="295" height="423" viewBox="0 0 295 423" fill="none" xmlns="http://www.w3.org/2000/svg">
<path d="M20 196.35C8.95431 196.35 0 187.395 0 176.35L0 155.886L120.791 155.886V196.35L20 196.35Z" fill="white"/>
<path d="M0 95.487C0 84.3133 9.05813 75.2551 20.2319 75.2551V75.2551C31.4056 75.2551 40.4638 84.3132 40.4638 95.487L40.4638 196.046H10C4.47716 196.046 0 191.569 0 186.046L0 95.487Z" fill="white"/>
<path d="M274.597 155.886C285.642 155.886 294.597 164.84 294.597 175.886V196.35L173.806 196.35V155.886L274.597 155.886Z" fill="white"/>
<path d="M294.597 256.748C294.597 267.922 285.539 276.98 274.365 276.98V276.98C263.191 276.98 254.133 267.922 254.133 256.748V156.189H284.597C290.12 156.189 294.597 160.666 294.597 166.189V256.748Z" fill="white"/>
<path d="M71 132.132C71 115.564 84.4315 102.132 101 102.132H186.135C202.704 102.132 216.135 115.564 216.135 132.132V290.27H71V132.132Z" fill="#828282"/>
<path d="M203.899 66.2963C203.899 102.911 180.983 132.593 143.874 132.593C106.764 132.593 83.8486 102.911 83.8486 66.2963C83.8486 29.6818 106.764 0 143.874 0C180.983 0 203.899 29.6818 203.899 66.2963Z" fill="#0F0F0F"/>
<path d="M203.899 66.2963C203.899 102.911 180.983 132.593 143.874 132.593C106.764 132.593 83.8486 102.911 83.8486 66.2963C83.8486 29.6818 106.764 0 143.874 0C180.983 0 203.899 29.6818 203.899 66.2963Z" fill="#0F0F0F"/>
<path d="M71 218.138C71 201.569 84.4315 188.138 101 188.138H186.135C202.704 188.138 216.135 201.569 216.135 218.138V344.886C163.872 355.667 132.003 355.696 71 344.886V218.138Z" fill="#9FBBE4"/>
<path d="M71 333.273H86.8358C97.8815 333.273 106.836 342.227 106.836 353.273V422.863H71V333.273Z" fill="#9FBBE4"/>
<path d="M178.508 353.273C178.508 342.227 187.462 333.273 198.508 333.273H216.135V422.863H178.508V353.273Z" fill="#9FBBE4"/>
<rect x="71" y="322.522" width="145.135" height="1.79179" fill="#666666"/>
<ellipse cx="99.6691" cy="232.037" rx="7.16716" ry="8.06306" fill="#2D0000"/>
<circle cx="186.571" cy="232.037" r="8.06306" fill="#2D0000"/>
</svg>
