<svg width="302" height="422" viewBox="0 0 302 422" fill="none" xmlns="http://www.w3.org/2000/svg">
<path d="M29.5284 206.201C19.3157 219.248 -5.1402 240.277 10.4938 245.751C13.9013 246.944 18.3434 248.309 24.0481 249.887C35.3973 253.027 47.4534 248.763 54.7139 239.487L116.593 160.437L84.841 135.54L29.5284 206.201Z" fill="white"/>
<path d="M242.727 79.1752C252.922 66.1148 273.044 61.7615 288.322 68.1629C294.109 70.5879 298.896 72.8675 300.556 74.9016C305.133 80.5099 290.52 83.524 286.067 89.2288L218.84 175.348L187.054 150.493L242.727 79.1752Z" fill="white"/>
<path d="M80.043 131.765C80.043 115.197 93.4744 101.765 110.043 101.765H194.588C211.156 101.765 224.588 115.197 224.588 131.765V290.331H80.043V131.765Z" fill="#828282"/>
<path d="M212.625 66.347C212.625 102.99 189.6 132.694 152.315 132.694C115.029 132.694 92.0049 102.99 92.0049 66.347C92.0049 29.7046 115.029 0 152.315 0C189.6 0 212.625 29.7046 212.625 66.347Z" fill="#0F0F0F"/>
<path d="M80.377 217.815C80.377 201.247 93.8084 187.815 110.377 187.815H195.056C211.625 187.815 225.056 201.247 225.056 217.815V344.202C172.957 354.959 141.188 354.988 80.377 344.202V217.815Z" fill="#9FBBE4"/>
<path d="M80.377 332.616H96.1002C107.146 332.616 116.1 341.571 116.1 352.616V422H80.377V332.616Z" fill="#9FBBE4"/>
<path d="M187.547 352.616C187.547 341.571 196.501 332.616 207.547 332.616H225.056V422H187.547V352.616Z" fill="#9FBBE4"/>
<rect x="80.377" y="321.89" width="144.679" height="1.78767" fill="#666666"/>
<ellipse cx="108.956" cy="231.613" rx="7.14466" ry="8.04451" fill="#2D0000"/>
<ellipse cx="195.585" cy="231.613" rx="8.03774" ry="8.04451" fill="#2D0000"/>
</svg>
