<svg width="280" height="423" viewBox="0 0 280 423" fill="none" xmlns="http://www.w3.org/2000/svg">
<path d="M12.4773 96.5568C5.58629 87.761 7.13043 75.0443 15.9262 68.1533V68.1533C24.7221 61.2622 37.4388 62.8064 44.3298 71.6022L105.889 150.178L74.0368 175.132L12.4773 96.5568Z" fill="white"/>
<path d="M235.221 71.4886C242.1 62.6836 254.815 61.1224 263.62 68.0016V68.0016C272.425 74.8809 273.986 87.5955 267.107 96.4006L205.196 175.642L173.31 150.73L235.221 71.4886Z" fill="white"/>
<path d="M65.9307 132.132C65.9307 115.564 79.3621 102.132 95.9307 102.132H181.066C197.634 102.132 211.066 115.564 211.066 132.132V290.27H65.9307V132.132Z" fill="#828282"/>
<path d="M198.523 66.2963C198.523 102.911 175.607 132.593 138.498 132.593C101.389 132.593 78.4731 102.911 78.4731 66.2963C78.4731 29.6818 101.389 0 138.498 0C175.607 0 198.523 29.6818 198.523 66.2963Z" fill="#0F0F0F"/>
<path d="M65.9307 218.138C65.9307 201.57 79.3621 188.138 95.9307 188.138H181.066C197.634 188.138 211.066 201.57 211.066 218.138V344.886C158.802 355.668 126.933 355.696 65.9307 344.886V218.138Z" fill="#9FBBE4"/>
<path d="M65.9307 333.273H81.7665C92.8122 333.273 101.766 342.228 101.766 353.273V422.863H65.9307V333.273Z" fill="#9FBBE4"/>
<path d="M173.438 353.273C173.438 342.228 182.393 333.273 193.438 333.273H211.066V422.863H173.438V353.273Z" fill="#9FBBE4"/>
<rect x="65.9307" y="322.522" width="145.135" height="1.79179" fill="#666666"/>
<ellipse cx="94.5993" cy="232.037" rx="7.16716" ry="8.06306" fill="#2D0000"/>
<circle cx="181.502" cy="232.037" r="8.06306" fill="#2D0000"/>
</svg>
