<svg width="301" height="422" viewBox="0 0 301 422" fill="none" xmlns="http://www.w3.org/2000/svg">
<path d="M20 154.859C8.95432 154.859 0 163.814 0 174.859L0 195.24L120.474 195.24V154.859L20 154.859Z" fill="white"/>
<path d="M0 255.528C0 266.672 9.03438 275.707 20.1789 275.707V275.707C31.3233 275.707 40.3577 266.672 40.3577 255.528L40.3577 155.162H10C4.47716 155.162 0 159.639 0 165.162L0 255.528Z" fill="white"/>
<path d="M281 192.7C292.046 192.7 301 183.746 301 172.7V152.319L180.526 152.319V192.7L281 192.7Z" fill="white"/>
<path d="M301 92.032C301 80.8875 291.966 71.8531 280.821 71.8531V71.8531C269.677 71.8531 260.642 80.8875 260.642 92.032V192.398H291C296.523 192.398 301 187.921 301 182.398V92.032Z" fill="white"/>
<path d="M77.7959 131.792C77.7959 115.223 91.2274 101.792 107.796 101.792H192.551C209.119 101.792 222.551 115.223 222.551 131.792V289.546H77.7959V131.792Z" fill="#828282"/>
<path d="M210.346 66.161C210.346 102.701 187.49 132.322 150.478 132.322C113.466 132.322 90.6104 102.701 90.6104 66.161C90.6104 29.6213 113.466 0 150.478 0C187.49 0 210.346 29.6213 210.346 66.161Z" fill="#0F0F0F"/>
<path d="M210.346 66.161C210.346 102.701 187.49 132.322 150.478 132.322C113.466 132.322 90.6104 102.701 90.6104 66.161C90.6104 29.6213 113.466 0 150.478 0C187.49 0 210.346 29.6213 210.346 66.161Z" fill="#0F0F0F"/>
<path d="M77.7949 217.754C77.7949 201.186 91.2264 187.754 107.795 187.754H192.55C209.118 187.754 222.55 201.186 222.55 217.754V344.182C170.423 354.942 138.638 354.97 77.7949 344.182V217.754Z" fill="#9FBBE4"/>
<path d="M77.7949 332.593H93.5368C104.583 332.593 113.537 341.548 113.537 352.593V422H77.7949V332.593Z" fill="#9FBBE4"/>
<path d="M185.021 352.593C185.021 341.548 193.975 332.593 205.021 332.593H222.549V422H185.021V352.593Z" fill="#9FBBE4"/>
<rect x="77.7949" y="321.864" width="144.755" height="1.78814" fill="#666666"/>
<ellipse cx="106.389" cy="231.564" rx="7.14838" ry="8.04661" fill="#2D0000"/>
<ellipse cx="193.062" cy="231.564" rx="8.04192" ry="8.04661" fill="#2D0000"/>
</svg>
