<svg width="302" height="422" viewBox="0 0 302 422" fill="none" xmlns="http://www.w3.org/2000/svg">
<path d="M273.127 205.448C283.154 218.639 306.842 239.913 291.374 245.414C288.174 246.552 284.073 247.845 278.888 249.326C267.708 252.519 255.884 248.226 248.773 238.872L188.774 159.944L219.609 135.047L273.127 205.448Z" fill="white"/>
<path d="M57.7573 73.015C47.748 59.8116 27.8867 55.3994 12.8032 61.9514C7.45766 64.2734 3.06384 66.4586 1.45375 68.418C-3.1447 74.0141 11.1598 77.1204 15.51 82.8588L80.758 168.929L111.626 144.074L57.7573 73.015Z" fill="white"/>
<path d="M80.6113 131.765C80.6113 115.197 94.0428 101.765 110.611 101.765H190.982C207.55 101.765 220.982 115.197 220.982 131.765V290.331H80.6113V131.765Z" fill="#828282"/>
<path d="M209.365 66.3471C209.365 102.99 187.005 132.694 150.797 132.694C114.588 132.694 92.2285 102.99 92.2285 66.3471C92.2285 29.7046 114.588 0 150.797 0C187.005 0 209.365 29.7046 209.365 66.3471Z" fill="#0F0F0F"/>
<path d="M80.9375 217.815C80.9375 201.246 94.369 187.815 110.938 187.815H191.438C208.007 187.815 221.438 201.246 221.438 217.815V344.202C170.844 354.959 139.992 354.988 80.9375 344.202V217.815Z" fill="#9FBBE4"/>
<path d="M80.9375 332.616H95.6291C106.675 332.616 115.629 341.571 115.629 352.616V422H80.9375V332.616Z" fill="#9FBBE4"/>
<path d="M185.013 352.616C185.013 341.571 193.967 332.616 205.013 332.616H221.439V422H185.013V352.616Z" fill="#9FBBE4"/>
<rect x="80.9375" y="321.89" width="140.501" height="1.78767" fill="#666666"/>
<ellipse cx="108.691" cy="231.613" rx="6.93832" ry="8.04452" fill="#2D0000"/>
<ellipse cx="192.818" cy="231.613" rx="7.80561" ry="8.04452" fill="#2D0000"/>
</svg>
