<svg width="287" height="422" viewBox="0 0 287 422" fill="none" xmlns="http://www.w3.org/2000/svg">
<path d="M12.8963 96.4678C5.77386 87.6303 7.32012 74.8912 16.3499 68.0142V68.0142C25.3798 61.1372 38.4738 62.7265 45.5962 71.564L108.706 149.871L76.0065 174.775L12.8963 96.4678Z" fill="white"/>
<path d="M241.391 71.452C248.502 62.6046 261.594 60.9977 270.633 67.8629V67.8629C279.672 74.7282 281.236 87.4658 274.125 96.3132L210.655 175.284L177.921 150.423L241.391 71.452Z" fill="white"/>
<path d="M67.6846 131.924C67.6846 115.355 81.116 101.924 97.6846 101.924H186.681C203.249 101.924 216.681 115.355 216.681 131.924V289.678H67.6846V131.924Z" fill="#828282"/>
<path d="M203.805 66.161C203.805 102.701 180.279 132.322 142.183 132.322C104.086 132.322 80.561 102.701 80.561 66.161C80.561 29.6213 104.086 0 142.183 0C180.279 0 203.805 29.6213 203.805 66.161Z" fill="#0F0F0F"/>
<path d="M67.6846 217.754C67.6846 201.186 81.116 187.754 97.6846 187.754H186.681C203.249 187.754 216.681 201.186 216.681 217.754V344.182C163.027 354.942 130.31 354.971 67.6846 344.182V217.754Z" fill="#9FBBE4"/>
<path d="M67.6846 332.593H84.4738C95.5195 332.593 104.474 341.548 104.474 352.593V422H67.6846V332.593Z" fill="#9FBBE4"/>
<path d="M178.053 352.593C178.053 341.548 187.007 332.593 198.053 332.593H216.681V422H178.053V352.593Z" fill="#9FBBE4"/>
<rect x="67.6846" y="321.864" width="148.996" height="1.78813" fill="#666666"/>
<ellipse cx="97.1161" cy="231.564" rx="7.35784" ry="8.04661" fill="#2D0000"/>
<ellipse cx="186.33" cy="231.564" rx="8.27757" ry="8.04661" fill="#2D0000"/>
</svg>
