<svg width="312" height="423" viewBox="0 0 312 423" fill="none" xmlns="http://www.w3.org/2000/svg">
<path d="M282.388 206.244C292.606 219.287 317.15 240.312 301.515 245.795C298.077 247.001 293.58 248.383 287.789 249.983C276.435 253.12 264.37 248.857 257.105 239.585L195 160.313L226.853 135.358L282.388 206.244Z" fill="white"/>
<path d="M59.4108 72.862C49.2102 59.8058 29.0854 55.4607 13.7998 61.8534C7.93895 64.3045 3.08802 66.608 1.43116 68.6611C-3.11447 74.294 11.5095 77.2752 15.9658 82.979L83.4214 169.318L115.307 144.406L59.4108 72.862Z" fill="white"/>
<path d="M83.2715 132C83.2715 115.431 96.7029 102 113.271 102H198.271C214.84 102 228.271 115.431 228.271 132V291H83.2715V132Z" fill="#828282"/>
<path d="M216.271 66.5004C216.271 103.227 193.174 133 155.771 133C118.369 133 95.2715 103.227 95.2715 66.5004C95.2715 29.7734 118.369 0.000366211 155.771 0.000366211C193.174 0.000366211 216.271 29.7734 216.271 66.5004Z" fill="#0F0F0F"/>
<path d="M83.6074 218.248C83.6074 201.679 97.0389 188.248 113.607 188.248H198.742C215.311 188.248 228.742 201.679 228.742 218.248V344.996C176.479 355.777 144.61 355.806 83.6074 344.996V218.248Z" fill="#9FBBE4"/>
<path d="M83.6074 333.383H99.4432C110.489 333.383 119.443 342.337 119.443 353.383V422.973H83.6074V333.383Z" fill="#9FBBE4"/>
<path d="M191.115 353.383C191.115 342.337 200.07 333.383 211.115 333.383H228.743V422.973H191.115V353.383Z" fill="#9FBBE4"/>
<rect x="83.6074" y="322.632" width="145.135" height="1.79179" fill="#666666"/>
<ellipse cx="112.277" cy="232.147" rx="7.16716" ry="8.06306" fill="#2D0000"/>
<circle cx="199.178" cy="232.147" r="8.06306" fill="#2D0000"/>
</svg>
