<svg width="1165" height="140" viewBox="0 0 1165 140" fill="none" xmlns="http://www.w3.org/2000/svg">
<rect width="1154" height="126" transform="translate(5 8)" fill="white"/>
<path d="M11.0464 91C11.0464 87.7789 12.5581 84.8832 12.5581 81.7716C12.5581 78.4513 9.53483 75.7094 9.53483 72.4722C9.53483 65.9769 9.53483 59.4815 9.53483 52.9861C9.53483 51.9008 6.75514 51.7278 6.51161 50.75C6.20049 49.5008 6.51161 48.174 6.51161 46.9167C6.51161 44.5208 5 42.2108 5 39.8889C5 33.9259 5 27.963 5 22" stroke="white" stroke-width="10" stroke-linecap="square" stroke-dasharray="20 20"/>
<path d="M14.8255 121C14.8255 119.973 16.3371 119.05 16.3371 118.058C16.3371 116.999 13.3139 116.125 13.3139 115.093C13.3139 113.022 13.3139 110.951 13.3139 108.88C13.3139 108.534 10.5342 108.478 10.2906 108.167C9.97953 107.768 10.2906 107.345 10.2906 106.944C10.2906 106.181 8.77904 105.444 8.77904 104.704C8.77904 102.802 8.77904 100.901 8.77904 99" stroke="white" stroke-width="10" stroke-linecap="square" stroke-dasharray="20 20"/>
<path d="M1153.71 87C1153.71 83.7789 1155.22 80.8832 1155.22 77.7716C1155.22 74.4513 1152.2 71.7094 1152.2 68.4722C1152.2 61.9769 1152.2 55.4815 1152.2 48.9861C1152.2 47.9008 1149.42 47.7278 1149.17 46.75C1148.86 45.5008 1149.17 44.174 1149.17 42.9167C1149.17 40.5208 1147.66 38.2108 1147.66 35.8889C1147.66 29.9259 1147.66 23.963 1147.66 18" stroke="white" stroke-width="10" stroke-linecap="square" stroke-dasharray="20 20"/>
<path d="M1157.49 117C1157.49 115.973 1159 115.05 1159 114.058C1159 112.999 1155.98 112.125 1155.98 111.093C1155.98 109.022 1155.98 106.951 1155.98 104.88C1155.98 104.534 1153.2 104.478 1152.95 104.167C1152.64 103.768 1152.95 103.345 1152.95 102.944C1152.95 102.181 1151.44 101.444 1151.44 100.704C1151.44 98.8025 1151.44 96.9012 1151.44 95" stroke="white" stroke-width="10" stroke-linecap="square" stroke-dasharray="20 20"/>
<path d="M873.888 128.4C876.405 128.4 878.668 129 881.1 129C883.695 129 885.838 127.8 888.368 127.8C893.444 127.8 898.521 127.8 903.597 127.8C904.445 127.8 904.581 126.697 905.345 126.6C906.321 126.477 907.358 126.6 908.341 126.6C910.213 126.6 912.019 126 913.833 126C918.493 126 923.154 126 927.814 126" stroke="white" stroke-width="10" stroke-linecap="square" stroke-dasharray="20 20"/>
<path d="M1106.93 122.4C1109.31 122.4 1111.45 123 1113.75 123C1116.21 123 1118.24 121.8 1120.63 121.8C1125.44 121.8 1130.24 121.8 1135.04 121.8C1135.85 121.8 1135.98 120.697 1136.7 120.6C1137.62 120.477 1138.6 120.6 1139.53 120.6C1141.31 120.6 1143.01 120 1144.73 120C1149.14 120 1153.55 120 1157.96 120" stroke="white" stroke-width="10" stroke-linecap="square" stroke-dasharray="20 20"/>
<path d="M1049.15 123.4C1051.53 123.4 1053.67 124 1055.97 124C1058.43 124 1060.46 122.8 1062.85 122.8C1067.66 122.8 1072.46 122.8 1077.27 122.8C1078.07 122.8 1078.2 121.697 1078.92 121.6C1079.84 121.477 1080.83 121.6 1081.76 121.6C1083.53 121.6 1085.24 121 1086.95 121C1091.36 121 1095.78 121 1100.19 121" stroke="white" stroke-width="10" stroke-linecap="square" stroke-dasharray="20 20"/>
<path d="M993.296 127.4C995.679 127.4 997.821 128 1000.12 128C1002.58 128 1004.61 126.8 1007 126.8C1011.81 126.8 1016.61 126.8 1021.41 126.8C1022.22 126.8 1022.34 125.697 1023.07 125.6C1023.99 125.477 1024.97 125.6 1025.9 125.6C1027.68 125.6 1029.38 125 1031.1 125C1035.51 125 1039.92 125 1044.33 125" stroke="white" stroke-width="10" stroke-linecap="square" stroke-dasharray="20 20"/>
<path d="M986.555 128.4C984.173 128.4 982.031 129 979.729 129C977.273 129 975.245 127.8 972.851 127.8C968.046 127.8 963.242 127.8 958.438 127.8C957.635 127.8 957.507 126.697 956.784 126.6C955.86 126.477 954.878 126.6 953.948 126.6C952.176 126.6 950.467 126 948.75 126C944.339 126 939.929 126 935.518 126" stroke="white" stroke-width="10" stroke-linecap="square" stroke-dasharray="20 20"/>
<path d="M350.031 128.6C347.514 128.6 345.251 128 342.819 128C340.224 128 338.081 129.2 335.551 129.2C330.475 129.2 325.398 129.2 320.322 129.2C319.474 129.2 319.338 130.303 318.574 130.4C317.598 130.523 316.561 130.4 315.578 130.4C313.706 130.4 311.9 131 310.086 131C305.426 131 300.765 131 296.105 131" stroke="white" stroke-width="10" stroke-linecap="square" stroke-dasharray="20 20"/>
<path d="M818.035 126.6C820.418 126.6 822.56 126 824.861 126C827.317 126 829.345 127.2 831.74 127.2C836.544 127.2 841.349 127.2 846.153 127.2C846.956 127.2 847.084 128.303 847.807 128.4C848.731 128.523 849.713 128.4 850.643 128.4C852.415 128.4 854.124 129 855.841 129C860.252 129 864.662 129 869.073 129" stroke="white" stroke-width="10" stroke-linecap="square" stroke-dasharray="20 20"/>
<path d="M760.257 125.6C762.64 125.6 764.782 125 767.083 125C769.539 125 771.567 126.2 773.962 126.2C778.766 126.2 783.571 126.2 788.375 126.2C789.178 126.2 789.306 127.303 790.029 127.4C790.953 127.523 791.934 127.4 792.864 127.4C794.637 127.4 796.345 128 798.063 128C802.473 128 806.884 128 811.295 128" stroke="white" stroke-width="10" stroke-linecap="square" stroke-dasharray="20 20"/>
<path d="M704.405 123.6C706.787 123.6 708.929 123 711.231 123C713.687 123 715.715 124.2 718.109 124.2C722.914 124.2 727.718 124.2 732.523 124.2C733.325 124.2 733.453 125.303 734.177 125.4C735.101 125.523 736.082 125.4 737.012 125.4C738.784 125.4 740.493 126 742.21 126C746.621 126 751.032 126 755.442 126" stroke="white" stroke-width="10" stroke-linecap="square" stroke-dasharray="20 20"/>
<path d="M697.664 125.6C695.282 125.6 693.14 125 690.838 125C688.382 125 686.354 126.2 683.96 126.2C679.155 126.2 674.351 126.2 669.546 126.2C668.744 126.2 668.616 127.303 667.892 127.4C666.968 127.523 665.987 127.4 665.057 127.4C663.285 127.4 661.576 128 659.859 128C655.448 128 651.037 128 646.627 128" stroke="white" stroke-width="10" stroke-linecap="square" stroke-dasharray="20 20"/>
<path d="M638.923 125.6C636.405 125.6 634.142 125 631.71 125C629.116 125 626.973 126.2 624.443 126.2C619.366 126.2 614.29 126.2 609.213 126.2C608.365 126.2 608.23 127.303 607.466 127.4C606.489 127.523 605.453 127.4 604.47 127.4C602.597 127.4 600.792 128 598.977 128C594.317 128 589.657 128 584.996 128" stroke="white" stroke-width="10" stroke-linecap="square" stroke-dasharray="20 20"/>
<path d="M405.884 129.6C403.501 129.6 401.359 129 399.058 129C396.602 129 394.574 130.2 392.179 130.2C387.375 130.2 382.57 130.2 377.766 130.2C376.963 130.2 376.835 131.303 376.112 131.4C375.188 131.523 374.206 131.4 373.276 131.4C371.504 131.4 369.796 132 368.078 132C363.667 132 359.257 132 354.846 132" stroke="white" stroke-width="10" stroke-linecap="square" stroke-dasharray="20 20"/>
<path d="M463.662 128.6C461.279 128.6 459.137 128 456.836 128C454.38 128 452.352 129.2 449.957 129.2C445.153 129.2 440.349 129.2 435.544 129.2C434.741 129.2 434.613 130.303 433.89 130.4C432.966 130.523 431.985 130.4 431.055 130.4C429.282 130.4 427.574 131 425.856 131C421.446 131 417.035 131 412.624 131" stroke="white" stroke-width="10" stroke-linecap="square" stroke-dasharray="20 20"/>
<path d="M519.514 124.6C517.132 124.6 514.99 124 512.688 124C510.232 124 508.204 125.2 505.81 125.2C501.005 125.2 496.201 125.2 491.396 125.2C490.594 125.2 490.466 126.303 489.742 126.4C488.818 126.523 487.837 126.4 486.907 126.4C485.135 126.4 483.426 127 481.709 127C477.298 127 472.887 127 468.477 127" stroke="white" stroke-width="10" stroke-linecap="square" stroke-dasharray="20 20"/>
<path d="M526.255 128.6C528.638 128.6 530.779 128 533.081 128C535.537 128 537.565 129.2 539.96 129.2C544.764 129.2 549.568 129.2 554.373 129.2C555.176 129.2 555.304 130.303 556.027 130.4C556.951 130.523 557.932 130.4 558.862 130.4C560.634 130.4 562.343 131 564.061 131C568.471 131 572.882 131 577.292 131" stroke="white" stroke-width="10" stroke-linecap="square" stroke-dasharray="20 20"/>
<path d="M241.302 131.6C243.82 131.6 246.083 131 248.515 131C251.11 131 253.252 132.2 255.782 132.2C260.859 132.2 265.935 132.2 271.012 132.2C271.86 132.2 271.995 133.303 272.759 133.4C273.736 133.523 274.773 133.4 275.755 133.4C277.628 133.4 279.433 134 281.248 134C285.908 134 290.568 134 295.229 134" stroke="white" stroke-width="10" stroke-linecap="square" stroke-dasharray="20 20"/>
<path d="M422.341 128.6C424.723 128.6 426.865 128 429.167 128C431.623 128 433.651 129.2 436.045 129.2C440.85 129.2 445.654 129.2 450.459 129.2C451.261 129.2 451.389 130.303 452.113 130.4C453.037 130.523 454.018 130.4 454.948 130.4C456.72 130.4 458.429 131 460.146 131C464.557 131 468.968 131 473.378 131" stroke="white" stroke-width="10" stroke-linecap="square" stroke-dasharray="20 20"/>
<path d="M356.859 124.6C354.341 124.6 352.078 124 349.646 124C347.051 124 344.909 125.2 342.378 125.2C337.302 125.2 332.226 125.2 327.149 125.2C326.301 125.2 326.166 126.303 325.402 126.4C324.425 126.523 323.388 126.4 322.406 126.4C320.533 126.4 318.728 127 316.913 127C312.253 127 307.593 127 302.932 127" stroke="white" stroke-width="10" stroke-linecap="square" stroke-dasharray="20 20"/>
<path d="M185.45 129.6C187.832 129.6 189.974 129 192.276 129C194.732 129 196.76 130.2 199.154 130.2C203.959 130.2 208.763 130.2 213.568 130.2C214.37 130.2 214.498 131.303 215.222 131.4C216.146 131.523 217.127 131.4 218.057 131.4C219.829 131.4 221.538 132 223.255 132C227.666 132 232.077 132 236.487 132" stroke="white" stroke-width="10" stroke-linecap="square" stroke-dasharray="20 20"/>
<path d="M127.672 128.6C130.054 128.6 132.196 128 134.498 128C136.954 128 138.982 129.2 141.376 129.2C146.181 129.2 150.985 129.2 155.789 129.2C156.592 129.2 156.72 130.303 157.443 130.4C158.367 130.523 159.349 130.4 160.279 130.4C162.051 130.4 163.76 131 165.477 131C169.888 131 174.298 131 178.709 131" stroke="white" stroke-width="10" stroke-linecap="square" stroke-dasharray="20 20"/>
<path d="M71.8192 127.6C74.2018 127.6 76.3437 127 78.6452 127C81.1012 127 83.1293 128.2 85.5238 128.2C90.3282 128.2 95.1327 128.2 99.9371 128.2C100.74 128.2 100.868 129.303 101.591 129.4C102.515 129.523 103.497 129.4 104.427 129.4C106.199 129.4 107.907 130 109.625 130C114.035 130 118.446 130 122.857 130" stroke="white" stroke-width="10" stroke-linecap="square" stroke-dasharray="20 20"/>
<path d="M65.0784 128.6C62.6959 128.6 60.554 128 58.2524 128C55.7965 128 53.7684 129.2 51.3739 129.2C46.5695 129.2 41.765 129.2 36.9606 129.2C36.1578 129.2 36.0298 130.303 35.3066 130.4C34.3826 130.523 33.4011 130.4 32.4712 130.4C30.699 130.4 28.9903 131 27.2729 131C22.8623 131 18.4516 131 14.041 131" stroke="white" stroke-width="10" stroke-linecap="square" stroke-dasharray="20 20"/>
<path d="M873.888 13.4C876.405 13.4 878.668 14 881.1 14C883.695 14 885.838 12.8 888.368 12.8C893.444 12.8 898.521 12.8 903.597 12.8C904.445 12.8 904.581 11.6967 905.345 11.6C906.321 11.4765 907.358 11.6 908.341 11.6C910.213 11.6 912.019 11 913.833 11C918.493 11 923.154 11 927.814 11" stroke="white" stroke-width="10" stroke-linecap="square" stroke-dasharray="20 20"/>
<path d="M1106.39 12.4C1108.12 12.4 1109.67 13 1111.33 13C1113.11 13 1114.58 11.8 1116.31 11.8C1119.79 11.8 1123.27 11.8 1126.74 11.8C1127.32 11.8 1127.42 10.6967 1127.94 10.6C1128.61 10.4765 1129.32 10.6 1129.99 10.6C1131.27 10.6 1132.51 10 1133.75 10C1136.95 10 1140.14 10 1143.33 10" stroke="white" stroke-width="15" stroke-linecap="square" stroke-dasharray="20 20"/>
<path d="M1049.15 13.4C1051.53 13.4 1053.67 14 1055.97 14C1058.43 14 1060.46 12.8 1062.85 12.8C1067.66 12.8 1072.46 12.8 1077.27 12.8C1078.07 12.8 1078.2 11.6967 1078.92 11.6C1079.84 11.4765 1080.83 11.6 1081.76 11.6C1083.53 11.6 1085.24 11 1086.95 11C1091.36 11 1095.78 11 1100.19 11" stroke="white" stroke-width="15" stroke-linecap="square" stroke-dasharray="20 20"/>
<path d="M993.296 12.4C995.679 12.4 997.821 13 1000.12 13C1002.58 13 1004.61 11.8 1007 11.8C1011.81 11.8 1016.61 11.8 1021.41 11.8C1022.22 11.8 1022.34 10.6967 1023.07 10.6C1023.99 10.4765 1024.97 10.6 1025.9 10.6C1027.68 10.6 1029.38 10 1031.1 10C1035.51 10 1039.92 10 1044.33 10" stroke="white" stroke-width="10" stroke-linecap="square" stroke-dasharray="20 20"/>
<path d="M986.555 13.4C984.173 13.4 982.031 14 979.729 14C977.273 14 975.245 12.8 972.851 12.8C968.046 12.8 963.242 12.8 958.438 12.8C957.635 12.8 957.507 11.6967 956.784 11.6C955.86 11.4765 954.878 11.6 953.948 11.6C952.176 11.6 950.467 11 948.75 11C944.339 11 939.929 11 935.518 11" stroke="white" stroke-width="10" stroke-linecap="square" stroke-dasharray="20 20"/>
<path d="M347.793 16.6C345.275 16.6 343.012 16 340.58 16C337.985 16 335.842 17.2 333.312 17.2C328.236 17.2 323.16 17.2 318.083 17.2C317.235 17.2 317.1 18.3033 316.336 18.4C315.359 18.5235 314.322 18.4 313.34 18.4C311.467 18.4 309.662 19 307.847 19C303.187 19 298.527 19 293.866 19" stroke="white" stroke-width="10" stroke-linecap="square" stroke-dasharray="20 20"/>
<path d="M818.035 11.6C820.418 11.6 822.56 11 824.861 11C827.317 11 829.345 12.2 831.74 12.2C836.544 12.2 841.349 12.2 846.153 12.2C846.956 12.2 847.084 13.3033 847.807 13.4C848.731 13.5235 849.713 13.4 850.643 13.4C852.415 13.4 854.124 14 855.841 14C860.252 14 864.662 14 869.073 14" stroke="white" stroke-width="10" stroke-linecap="square" stroke-dasharray="20 20"/>
<path d="M760.257 10.6C762.64 10.6 764.782 10 767.083 10C769.539 10 771.567 11.2 773.962 11.2C778.766 11.2 783.571 11.2 788.375 11.2C789.178 11.2 789.306 12.3033 790.029 12.4C790.953 12.5235 791.934 12.4 792.864 12.4C794.637 12.4 796.345 13 798.063 13C802.473 13 806.884 13 811.295 13" stroke="white" stroke-width="10" stroke-linecap="square" stroke-dasharray="20 20"/>
<path d="M704.405 8.6C706.787 8.6 708.929 8 711.231 8C713.687 8 715.715 9.2 718.109 9.2C722.914 9.2 727.718 9.2 732.523 9.2C733.325 9.2 733.453 10.3033 734.177 10.4C735.101 10.5235 736.082 10.4 737.012 10.4C738.784 10.4 740.493 11 742.21 11C746.621 11 751.032 11 755.442 11" stroke="white" stroke-width="10" stroke-linecap="square" stroke-dasharray="20 20"/>
<path d="M697.664 12.6C695.282 12.6 693.14 12 690.838 12C688.382 12 686.354 13.2 683.96 13.2C679.155 13.2 674.351 13.2 669.546 13.2C668.744 13.2 668.616 14.3033 667.892 14.4C666.968 14.5235 665.987 14.4 665.057 14.4C663.285 14.4 661.576 15 659.859 15C655.448 15 651.037 15 646.627 15" stroke="white" stroke-width="15" stroke-linecap="square" stroke-dasharray="20 20"/>
<path d="M638.923 12.6C636.405 12.6 634.142 12 631.71 12C629.116 12 626.973 13.2 624.443 13.2C619.366 13.2 614.29 13.2 609.213 13.2C608.365 13.2 608.23 14.3033 607.466 14.4C606.489 14.5235 605.453 14.4 604.47 14.4C602.597 14.4 600.792 15 598.977 15C594.317 15 589.657 15 584.996 15" stroke="white" stroke-width="15" stroke-linecap="square" stroke-dasharray="20 20"/>
<path d="M403.645 14.6C401.263 14.6 399.121 14 396.819 14C394.363 14 392.335 15.2 389.941 15.2C385.136 15.2 380.332 15.2 375.527 15.2C374.724 15.2 374.596 16.3033 373.873 16.4C372.949 16.5235 371.968 16.4 371.038 16.4C369.266 16.4 367.557 17 365.84 17C361.429 17 357.018 17 352.608 17" stroke="white" stroke-width="10" stroke-linecap="square" stroke-dasharray="20 20"/>
<path d="M461.423 13.6C459.041 13.6 456.899 13 454.597 13C452.141 13 450.113 14.2 447.719 14.2C442.914 14.2 438.11 14.2 433.305 14.2C432.503 14.2 432.375 15.3033 431.651 15.4C430.727 15.5235 429.746 15.4 428.816 15.4C427.044 15.4 425.335 16 423.618 16C419.207 16 414.797 16 410.386 16" stroke="white" stroke-width="10" stroke-linecap="square" stroke-dasharray="20 20"/>
<path d="M517.276 9.6C514.893 9.6 512.751 9 510.45 9C507.994 9 505.966 10.2 503.571 10.2C498.767 10.2 493.962 10.2 489.158 10.2C488.355 10.2 488.227 11.3033 487.504 11.4C486.58 11.5235 485.598 11.4 484.668 11.4C482.896 11.4 481.188 12 479.47 12C475.059 12 470.649 12 466.238 12" stroke="white" stroke-width="15" stroke-linecap="square" stroke-dasharray="20 20"/>
<path d="M526.255 12.6C528.638 12.6 530.779 12 533.081 12C535.537 12 537.565 13.2 539.96 13.2C544.764 13.2 549.568 13.2 554.373 13.2C555.176 13.2 555.304 14.3033 556.027 14.4C556.951 14.5235 557.932 14.4 558.862 14.4C560.634 14.4 562.343 15 564.061 15C568.471 15 572.882 15 577.292 15" stroke="white" stroke-width="15" stroke-linecap="square" stroke-dasharray="20 20"/>
<path d="M67.9673 15.6C65.45 15.6 63.1868 15 60.755 15C58.16 15 56.0171 16.2 53.4871 16.2C48.4107 16.2 43.3343 16.2 38.2579 16.2C37.4097 16.2 37.2745 17.3033 36.5103 17.4C35.534 17.5235 34.497 17.4 33.5144 17.4C31.6419 17.4 29.8365 18 28.0219 18C23.3616 18 18.7013 18 14.041 18" stroke="white" stroke-width="10" stroke-linecap="square" stroke-dasharray="20 20"/>
<path d="M420.102 13.6C422.485 13.6 424.627 13 426.928 13C429.384 13 431.412 14.2 433.807 14.2C438.611 14.2 443.416 14.2 448.22 14.2C449.023 14.2 449.151 15.3033 449.874 15.4C450.798 15.5235 451.779 15.4 452.709 15.4C454.482 15.4 456.19 16 457.908 16C462.318 16 466.729 16 471.14 16" stroke="white" stroke-width="10" stroke-linecap="square" stroke-dasharray="20 20"/>
<path d="M354.62 12.6C352.103 12.6 349.84 12 347.408 12C344.813 12 342.67 13.2 340.14 13.2C335.064 13.2 329.987 13.2 324.911 13.2C324.063 13.2 323.927 14.3033 323.163 14.4C322.187 14.5235 321.15 14.4 320.167 14.4C318.295 14.4 316.489 15 314.675 15C310.014 15 305.354 15 300.694 15" stroke="white" stroke-width="10" stroke-linecap="square" stroke-dasharray="20 20"/>
<path d="M123.82 13.6C121.437 13.6 119.295 13 116.994 13C114.538 13 112.51 14.2 110.115 14.2C105.311 14.2 100.506 14.2 95.7018 14.2C94.8991 14.2 94.7711 15.3033 94.0478 15.4C93.1238 15.5235 92.1424 15.4 91.2124 15.4C89.4402 15.4 87.7316 16 86.0142 16C81.6035 16 77.1929 16 72.7822 16" stroke="white" stroke-width="10" stroke-linecap="square" stroke-dasharray="20 20"/>
<path d="M181.598 12.6C179.215 12.6 177.073 12 174.772 12C172.316 12 170.288 13.2 167.893 13.2C163.089 13.2 158.284 13.2 153.48 13.2C152.677 13.2 152.549 14.3033 151.826 14.4C150.902 14.5235 149.921 14.4 148.991 14.4C147.218 14.4 145.51 15 143.792 15C139.382 15 134.971 15 130.56 15" stroke="white" stroke-width="10" stroke-linecap="square" stroke-dasharray="20 20"/>
<path d="M237.45 13.6C235.068 13.6 232.926 13 230.624 13C228.168 13 226.14 14.2 223.746 14.2C218.941 14.2 214.137 14.2 209.332 14.2C208.53 14.2 208.402 15.3033 207.678 15.4C206.754 15.5235 205.773 15.4 204.843 15.4C203.071 15.4 201.362 16 199.645 16C195.234 16 190.823 16 186.413 16" stroke="white" stroke-width="10" stroke-linecap="square" stroke-dasharray="20 20"/>
<path d="M241.952 12.6C244.335 12.6 246.477 12 248.778 12C251.234 12 253.263 13.2 255.657 13.2C260.461 13.2 265.266 13.2 270.07 13.2C270.873 13.2 271.001 14.3033 271.724 14.4C272.648 14.5235 273.63 14.4 274.56 14.4C276.332 14.4 278.041 15 279.758 15C284.169 15 288.579 15 292.99 15" stroke="white" stroke-width="10" stroke-linecap="square" stroke-dasharray="20 20"/>
</svg>
