<svg width="391" height="174" viewBox="0 0 391 174" fill="none" xmlns="http://www.w3.org/2000/svg">
<path d="M28.82 89.0141L21.6678 87.5563L11.4313 88.3891C11.1125 87.9774 10.72 87.7632 10.2536 87.7464C7.84078 88.0599 6.23463 88.2023 5.43514 88.1736L5.52135 85.7751L5.0295 82.7555L6.87144 81.621L9.86951 81.7287L10.4476 82.3499L11.0687 81.7718L12.8676 81.8365L13.4456 82.4577L17.686 81.4093L24.8383 82.8671C26.0375 82.9102 35.6816 81.856 53.7706 79.7044L53.749 80.304L65.2279 78.315L66.7896 84.9754L64.9261 86.7096L55.397 84.5659C53.7765 85.1081 52.9554 85.6789 52.9339 86.2785L50.557 85.5927L47.5374 86.0846L46.9593 85.4634C46.9234 86.4628 45.0886 87.3975 41.455 88.2675L39.0997 86.9821L37.8573 88.1382L37.2793 87.517L31.24 88.5007L31.2616 87.9011L28.82 89.0141Z" fill="#00631C"/>
<path d="M88.925 87.1719L81.7728 85.714L71.5363 86.5468C71.2175 86.1351 70.8249 85.9209 70.3586 85.9041C67.9458 86.2177 66.3396 86.3601 65.5401 86.3313L65.6263 83.9329L65.1345 80.9132L66.9764 79.7787L69.9745 79.8864L70.5525 80.5076L71.1737 79.9295L72.9726 79.9942L73.5506 80.6154L77.791 79.567L84.9433 81.0249C86.1425 81.068 95.7866 80.0137 113.876 77.8621L113.854 78.4617L125.333 76.4727L126.895 83.1331L125.031 84.8673L115.502 82.7236C113.881 83.2658 113.06 83.8366 113.039 84.4363L110.662 83.7504L107.642 84.2423L107.064 83.6211C107.028 84.6205 105.194 85.5552 101.56 86.4252L99.2047 85.1398L97.9623 86.2959L97.3843 85.6747L91.345 86.6584L91.3666 86.0588L88.925 87.1719Z" fill="#00631C"/>
<path d="M149.03 85.3298L141.878 83.872L131.641 84.7048C131.322 84.2931 130.93 84.0788 130.464 84.0621C128.051 84.3756 126.445 84.518 125.645 84.4893L125.731 82.0908L125.239 79.0712L127.081 77.9366L130.079 78.0444L130.658 78.6656L131.279 78.0875L133.078 78.1522L133.656 78.7733L137.896 77.725L145.048 79.1828C146.247 79.2259 155.892 78.1717 173.981 76.02L173.959 76.6196L185.438 74.6307L187 81.2911L185.136 83.0253L175.607 80.8816C173.986 81.4237 173.165 81.9946 173.144 82.5942L170.767 81.9084L167.747 82.4003L167.169 81.7791C167.133 82.7784 165.299 83.7131 161.665 84.5832L159.31 83.2977L158.067 84.4539L157.489 83.8327L151.45 84.8164L151.472 84.2168L149.03 85.3298Z" fill="#00631C"/>
</svg>
