<svg width="504" height="200" viewBox="0 0 504 200" fill="none" xmlns="http://www.w3.org/2000/svg">
<path d="M30.5092 99.686L23.3931 98.0611L13.1398 98.6539C12.8308 98.2349 12.4434 98.0115 11.9775 97.9838C9.55804 98.2407 7.94899 98.3455 7.1504 98.298L7.29276 95.9023L6.87177 92.8719L8.73978 91.7808L11.7345 91.9588L12.2978 92.5933L12.9324 92.03L14.7292 92.1367L15.2926 92.7713L19.5564 91.8225L26.6725 93.4475C27.8704 93.5186 37.5365 92.6905 55.6709 90.9632L55.6353 91.5621L67.1576 89.8426L68.563 96.5377L66.6594 98.2278L57.183 95.8615C55.5503 96.3655 54.7161 96.917 54.6805 97.516L52.3203 96.7747L49.29 97.1957L48.7266 96.5611C48.6673 97.5594 46.8112 98.4508 43.1582 99.2355L40.8336 97.8953L39.5645 99.022L39.0012 98.3875L32.9406 99.2294L32.9762 98.6305L30.5092 99.686Z" fill="black"/>
<path d="M90.641 99.2522L83.5249 97.6272L73.2717 98.2201C72.9627 97.801 72.5752 97.5776 72.1094 97.55C69.6899 97.8069 68.0808 97.9116 67.2822 97.8642L67.4246 95.4684L67.0036 92.4381L68.8716 91.347L71.8663 91.5249L72.4297 92.1595L73.0642 91.5961L74.861 91.7029L75.4244 92.3374L79.6882 91.3887L86.8043 93.0136C88.0022 93.0848 97.6684 92.2567 115.803 90.5293L115.767 91.1283L127.289 89.4087L128.695 96.1039L126.791 97.7939L117.315 95.4277C115.682 95.9317 114.848 96.4832 114.812 97.0821L112.452 96.3408L109.422 96.7618L108.858 96.1273C108.799 97.1255 106.943 98.017 103.29 98.8017L100.965 97.4614L99.6964 98.5882L99.133 97.9536L93.0724 98.7956L93.108 98.1967L90.641 99.2522Z" fill="black"/>
<path d="M150.772 98.8181L143.656 97.1931L133.403 97.786C133.094 97.3669 132.707 97.1436 132.241 97.1159C129.821 97.3728 128.212 97.4776 127.414 97.4301L127.556 95.0343L127.135 92.004L129.003 90.9129L131.998 91.0909L132.561 91.7254L133.196 91.162L134.992 91.2688L135.556 91.9033L139.82 90.9546L146.936 92.5795C148.134 92.6507 157.8 91.8226 175.934 90.0953L175.899 90.6942L187.421 88.9746L188.826 95.6698L186.923 97.3598L177.446 94.9936C175.813 95.4976 174.979 96.0491 174.944 96.648L172.583 95.9067L169.553 96.3277L168.99 95.6932C168.931 96.6914 167.074 97.5829 163.421 98.3676L161.097 97.0274L159.828 98.1541L159.264 97.5195L153.204 98.3615L153.239 97.7626L150.772 98.8181Z" fill="black"/>
<path d="M209.624 96.8857L202.508 95.2608L192.255 95.8536C191.946 95.4346 191.558 95.2112 191.092 95.1835C188.673 95.4404 187.064 95.5452 186.265 95.4977L186.408 93.102L185.987 90.0717L187.855 88.9805L190.849 89.1585L191.413 89.793L192.047 89.2297L193.844 89.3364L194.407 89.971L198.671 89.0222L205.787 90.6472C206.985 90.7184 216.651 89.8903 234.786 88.1629L234.75 88.7618L246.272 87.0423L247.678 93.7374L245.774 95.4275L236.298 93.0612C234.665 93.5652 233.831 94.1167 233.795 94.7157L231.435 93.9744L228.405 94.3954L227.841 93.7608C227.782 94.7591 225.926 95.6505 222.273 96.4352L219.948 95.095L218.679 96.2217L218.116 95.5872L212.055 96.4292L212.091 95.8302L209.624 96.8857Z" fill="black"/>
<path d="M260.68 95.0808L253.564 93.4558L243.311 94.0487C243.002 93.6296 242.614 93.4063 242.148 93.3786C239.729 93.6355 238.12 93.7403 237.321 93.6928L237.464 91.297L237.043 88.2667L238.911 87.1756L241.905 87.3536L242.469 87.9881L243.103 87.4247L244.9 87.5315L245.463 88.166L249.727 87.2173L256.843 88.8422C258.041 88.9134 267.707 88.0853 285.842 86.358L285.806 86.9569L297.329 85.2373L298.734 91.9325L296.83 93.6225L287.354 91.2563C285.721 91.7603 284.887 92.3118 284.851 92.9107L282.491 92.1694L279.461 92.5904L278.898 91.9559C278.838 92.9541 276.982 93.8456 273.329 94.6303L271.005 93.2901L269.735 94.4168L269.172 93.7822L263.111 94.6242L263.147 94.0253L260.68 95.0808Z" fill="black"/>
</svg>
