<svg width="394" height="183" viewBox="0 0 394 183" fill="none" xmlns="http://www.w3.org/2000/svg">
<path d="M30.225 89.3872L23.1089 87.7622L12.8557 88.3551C12.5466 87.936 12.1592 87.7127 11.6934 87.685C9.27386 87.9419 7.66481 88.0467 6.86622 87.9992L7.00858 85.6034L6.58759 82.5731L8.4556 81.482L11.4503 81.6599L12.0137 82.2945L12.6482 81.7311L14.445 81.8379L15.0084 82.4724L19.2722 81.5237L26.3883 83.1486C27.5862 83.2198 37.2523 82.3917 55.3867 80.6643L55.3511 81.2633L66.8734 79.5437L68.2788 86.2389L66.3752 87.9289L56.8988 85.5627C55.2661 86.0667 54.4319 86.6182 54.3963 87.2171L52.0361 86.4758L49.0058 86.8968L48.4425 86.2623C48.3831 87.2605 46.527 88.152 42.874 88.9367L40.5494 87.5965L39.2804 88.7232L38.717 88.0886L32.6564 88.9306L32.692 88.3317L30.225 89.3872Z" fill="black"/>
<path d="M90.3569 88.9534L83.2407 87.3284L72.9875 87.9213C72.6785 87.5022 72.291 87.2788 71.8252 87.2511C69.4057 87.5081 67.7967 87.6128 66.9981 87.5654L67.1404 85.1696L66.7194 82.1393L68.5874 81.0482L71.5822 81.2261L72.1455 81.8606L72.78 81.2973L74.5769 81.4041L75.1402 82.0386L79.404 81.0898L86.5202 82.7148C87.718 82.786 97.3842 81.9579 115.519 80.2305L115.483 80.8295L127.005 79.1099L128.411 85.805L126.507 87.4951L117.031 85.1288C115.398 85.6329 114.564 86.1844 114.528 86.7833L112.168 86.042L109.138 86.463L108.574 85.8285C108.515 86.8267 106.659 87.7182 103.006 88.5029L100.681 87.1626L99.4122 88.2893L98.8488 87.6548L92.7882 88.4968L92.8238 87.8978L90.3569 88.9534Z" fill="black"/>
<path d="M150.488 88.5193L143.372 86.8943L133.119 87.4872C132.81 87.0681 132.422 86.8447 131.957 86.8171C129.537 87.074 127.928 87.1787 127.129 87.1313L127.272 84.7355L126.851 81.7052L128.719 80.6141L131.713 80.792L132.277 81.4266L132.911 80.8632L134.708 80.97L135.272 81.6045L139.535 80.6558L146.651 82.2807C147.849 82.3519 157.516 81.5238 175.65 79.7964L175.614 80.3954L187.137 78.6758L188.542 85.371L186.638 87.061L177.162 84.6947C175.529 85.1988 174.695 85.7503 174.659 86.3492L172.299 85.6079L169.269 86.0289L168.706 85.3944C168.646 86.3926 166.79 87.2841 163.137 88.0688L160.813 86.7285L159.544 87.8552L158.98 87.2207L152.92 88.0627L152.955 87.4638L150.488 88.5193Z" fill="black"/>
</svg>
